<svg id="10015.io" viewBox="0 0 480 480" xmlns="http://www.w3.org/2000/svg" xmlns:xlink="http://www.w3.org/1999/xlink" >
	<defs>
		<clipPath id="blob">
			<path fill="#474bff" d="M449.5,286.5Q433,333,389.5,353Q346,373,319,421Q292,469,245.5,444Q199,419,162.5,401Q126,383,84.5,359Q43,335,40,287.5Q37,240,40,192.5Q43,145,72.5,106Q102,67,145.5,41.5Q189,16,235,37.5Q281,59,315.5,80.5Q350,102,400,120.5Q450,139,458,189.5Q466,240,449.5,286.5Z" />
		</clipPath>
	</defs>
	<image x="0" y="0" width="100%" height="100%" clip-path="url(#blob)" xlink:href="https://source.unsplash.com/random/600x600/?landscape" preserveAspectRatio="xMidYMid slice"></image>
</svg>
