<svg width="249" height="402" viewBox="0 0 249 402" fill="none" xmlns="http://www.w3.org/2000/svg">
<path d="M132.08 143.07C132.08 150.18 126.82 155.95 120.33 155.95C113.84 155.95 108.59 150.18 108.59 143.07C108.59 135.96 113.85 130.21 120.33 130.21C126.81 130.21 132.08 135.95 132.08 143.07Z" fill="#FFF9CC"/>
<g style="mix-blend-mode:luminosity" opacity="0.45">
<path d="M93.98 143.07L0 401.51H248.79L146.58 143.07H93.98Z" fill="#FFF4C5" fill-opacity="0.53"/>
</g>
<path d="M121.41 0H119.27V91.08H121.41V0Z" fill="#AF91DB"/>
<path d="M123.28 93.53V90.74C123.304 90.112 123.079 89.4998 122.654 89.0371C122.229 88.5743 121.638 88.2986 121.01 88.27H119.64C119.014 88.3011 118.425 88.578 118.002 89.0405C117.579 89.5029 117.356 90.1137 117.38 90.74V93.53C119.267 92.757 121.383 92.757 123.27 93.53H123.28Z" fill="#B2B2D8"/>
<path d="M129.01 102.46V111.21L128.65 111.13C123.601 110.347 118.467 110.283 113.4 110.94L112.04 111.13L111.67 111.21V102.46C111.673 101.988 111.706 101.517 111.77 101.05C111.838 100.549 111.945 100.054 112.09 99.57C112.09 99.51 112.09 99.45 112.14 99.39C112.215 99.1524 112.301 98.9187 112.4 98.69C112.394 98.6502 112.394 98.6098 112.4 98.57L112.58 98.16C112.65 98.01 112.72 97.86 112.8 97.72C113.089 97.1884 113.423 96.6831 113.8 96.21C114.225 95.6847 114.705 95.2054 115.23 94.78C115.39 94.66 115.55 94.53 115.73 94.42C115.902 94.2952 116.083 94.1816 116.27 94.08C116.448 93.9671 116.631 93.8636 116.82 93.77L117.38 93.53C118.31 93.149 119.305 92.9521 120.31 92.95C121.338 92.9455 122.357 93.1426 123.31 93.53C124.589 94.0656 125.73 94.8835 126.648 95.9226C127.566 96.9617 128.236 98.1949 128.61 99.53C128.885 100.482 129.02 101.469 129.01 102.46Z" fill="#AF91DB"/>
<path d="M146.68 143.07H94.01L95.59 130.4C96.59 122.47 103.7 112.92 111.69 111.2L112.06 111.12L113.49 110.92C118.535 110.281 123.644 110.349 128.67 111.12L129.01 111.21C137.01 112.93 144.15 122.48 145.12 130.41L146.68 143.07Z" fill="#AF91DB"/>
<path d="M129.01 102.46H111.66C111.663 101.988 111.696 101.517 111.76 101.05C111.828 100.549 111.935 100.054 112.08 99.57H128.58C128.861 100.508 129.006 101.481 129.01 102.46ZM129.01 108.41V111.21L128.65 111.13C123.601 110.347 118.467 110.283 113.4 110.94L112.04 111.13L111.67 111.21V108.54C114.67 108.24 117.84 108.08 121.05 108.08C123.75 108.08 126.41 108.21 129.01 108.41Z" fill="#B2B2D8"/>
<path d="M146.68 141.07H93.99H91.95V144.83H148.72V141.07H146.68Z" fill="#B2B2D8"/>
</svg>
