<svg  width="500" height="500" viewBox="0 0 521 469" fill="none" xmlns="http://www.w3.org/2000/svg">
<g filter="url(#filter0_i_201_40)">
<path d="M381.371 10.9109C347.748 56.5622 341.917 118.864 371.578 170.237C401.238 221.61 458.108 247.712 514.455 241.419C502.474 257.686 486.964 271.839 468.274 282.63C397.131 323.704 306.846 300.515 266.617 230.836C226.388 161.157 251.448 71.3739 322.591 30.2996C341.281 19.5087 361.293 13.1533 381.371 10.9109Z" fill="url(#paint0_linear_201_40)"/>
</g>
<g filter="url(#filter1_i_201_40)">
<path d="M110.83 415.16L79.1541 458.491C71.338 469.187 56.3914 471.517 45.6957 463.701C35 455.885 32.669 440.94 40.4851 430.244L72.1607 386.912C79.9768 376.217 94.9236 373.886 105.619 381.702C116.315 389.381 118.646 404.464 110.83 415.16Z" fill="#535DFF"/>
<path d="M110.83 415.16L79.1541 458.491C71.338 469.187 56.3914 471.517 45.6957 463.701C35 455.885 32.669 440.94 40.4851 430.244L72.1607 386.912C79.9768 376.217 94.9236 373.886 105.619 381.702C116.315 389.381 118.646 404.464 110.83 415.16Z" fill="url(#paint1_radial_201_40)"/>
</g>
<g filter="url(#filter2_i_201_40)">
<path d="M200.875 415.16L169.199 458.491C161.383 469.187 146.437 471.517 135.741 463.701C125.045 455.885 122.714 440.94 130.53 430.244L162.206 386.912C170.022 376.217 184.969 373.886 195.664 381.702C206.36 389.381 208.691 404.464 200.875 415.16Z" fill="#535DFF"/>
<path d="M200.875 415.16L169.199 458.491C161.383 469.187 146.437 471.517 135.741 463.701C125.045 455.885 122.714 440.94 130.53 430.244L162.206 386.912C170.022 376.217 184.969 373.886 195.664 381.702C206.36 389.381 208.691 404.464 200.875 415.16Z" fill="url(#paint2_radial_201_40)"/>
</g>
<g filter="url(#filter3_i_201_40)">
<path d="M290.921 415.16L259.245 458.491C251.429 469.187 236.482 471.517 225.786 463.701C215.091 455.885 212.76 440.94 220.576 430.244L252.251 386.912C260.068 376.217 275.014 373.886 285.71 381.702C296.406 389.381 298.737 404.464 290.921 415.16Z" fill="#535DFF"/>
<path d="M290.921 415.16L259.245 458.491C251.429 469.187 236.482 471.517 225.786 463.701C215.091 455.885 212.76 440.94 220.576 430.244L252.251 386.912C260.068 376.217 275.014 373.886 285.71 381.702C296.406 389.381 298.737 404.464 290.921 415.16Z" fill="url(#paint3_radial_201_40)"/>
</g>
<path d="M141.516 257.919C170.283 257.919 193.604 234.599 193.604 205.832C193.604 177.065 170.283 153.745 141.516 153.745C112.749 153.745 89.4288 177.065 89.4288 205.832C89.4288 234.599 112.749 257.919 141.516 257.919Z" fill="url(#paint4_radial_201_40)"/>
<path d="M141.516 257.919C170.283 257.919 193.604 234.599 193.604 205.832C193.604 177.065 170.283 153.745 141.516 153.745C112.749 153.745 89.4288 177.065 89.4288 205.832C89.4288 234.599 112.749 257.919 141.516 257.919Z" fill="url(#paint5_radial_201_40)"/>
<g filter="url(#filter4_i_201_40)">
<path d="M338.839 157.998C292.978 113.3 219.601 114.075 174.903 159.936C162.966 172.109 154.381 186.229 148.851 201.305C148.093 203.371 145.556 204.179 143.721 202.965C139.701 200.304 135.415 197.98 130.98 196.107C120.387 191.198 108.631 188.486 96.2292 188.486C50.1102 188.486 12.7756 225.82 12.7756 271.939C12.7756 291.574 19.6224 309.66 30.9907 324C46.3637 344.152 70.5214 357.072 97.7795 357.072C130.592 357.072 224.898 357.072 261.715 357.072C298.146 357.072 330.313 339.114 349.949 311.598C385.087 265.609 381.342 199.466 338.839 157.998Z" fill="#463F6D"/>
<path d="M338.839 157.998C292.978 113.3 219.601 114.075 174.903 159.936C162.966 172.109 154.381 186.229 148.851 201.305C148.093 203.371 145.556 204.179 143.721 202.965C139.701 200.304 135.415 197.98 130.98 196.107C120.387 191.198 108.631 188.486 96.2292 188.486C50.1102 188.486 12.7756 225.82 12.7756 271.939C12.7756 291.574 19.6224 309.66 30.9907 324C46.3637 344.152 70.5214 357.072 97.7795 357.072C130.592 357.072 224.898 357.072 261.715 357.072C298.146 357.072 330.313 339.114 349.949 311.598C385.087 265.609 381.342 199.466 338.839 157.998Z" fill="url(#paint6_linear_201_40)"/>
</g>
<path d="M338.839 157.998C292.978 113.3 219.601 114.075 174.903 159.936C162.966 172.109 154.381 186.229 148.851 201.305C148.093 203.371 145.556 204.179 143.721 202.965C139.701 200.304 135.415 197.98 130.98 196.107C120.387 191.198 108.631 188.486 96.2292 188.486C50.1102 188.486 12.7756 225.82 12.7756 271.939C12.7756 291.574 19.6224 309.66 30.9907 324C46.3637 344.152 70.5214 357.072 97.7795 357.072C130.592 357.072 224.898 357.072 261.715 357.072C298.146 357.072 330.313 339.114 349.949 311.598C385.087 265.609 381.342 199.466 338.839 157.998Z" fill="url(#paint7_radial_201_40)"/>
<path d="M338.839 157.998C292.978 113.3 219.601 114.075 174.903 159.936C162.966 172.109 154.381 186.229 148.851 201.305C148.093 203.371 145.556 204.179 143.721 202.965C139.701 200.304 135.415 197.98 130.98 196.107C120.387 191.198 108.631 188.486 96.2292 188.486C50.1102 188.486 12.7756 225.82 12.7756 271.939C12.7756 291.574 19.6224 309.66 30.9907 324C46.3637 344.152 70.5214 357.072 97.7795 357.072C130.592 357.072 224.898 357.072 261.715 357.072C298.146 357.072 330.313 339.114 349.949 311.598C385.087 265.609 381.342 199.466 338.839 157.998Z" fill="url(#paint8_radial_201_40)"/>
<path d="M338.839 157.998C292.978 113.3 219.601 114.075 174.903 159.936C162.966 172.109 154.381 186.229 148.851 201.305C148.093 203.371 145.556 204.179 143.721 202.965C139.701 200.304 135.415 197.98 130.98 196.107C120.387 191.198 108.631 188.486 96.2292 188.486C50.1102 188.486 12.7756 225.82 12.7756 271.939C12.7756 291.574 19.6224 309.66 30.9907 324C46.3637 344.152 70.5214 357.072 97.7795 357.072C130.592 357.072 224.898 357.072 261.715 357.072C298.146 357.072 330.313 339.114 349.949 311.598C385.087 265.609 381.342 199.466 338.839 157.998Z" fill="url(#paint9_radial_201_40)"/>
<g filter="url(#filter5_d_201_40)">
<path d="M338.839 157.998C292.978 113.3 219.601 114.075 174.903 159.936C162.966 172.109 154.381 186.229 148.851 201.305C148.093 203.371 145.556 204.179 143.721 202.965C139.701 200.304 135.415 197.98 130.98 196.107C120.387 191.198 108.631 188.486 96.2292 188.486C50.1102 188.486 12.7756 225.82 12.7756 271.939C12.7756 291.574 19.6224 309.66 30.9907 324C46.3637 344.152 70.5214 357.072 97.7795 357.072C130.592 357.072 224.898 357.072 261.715 357.072C298.146 357.072 330.313 339.114 349.949 311.598C385.087 265.609 381.342 199.466 338.839 157.998Z" fill="url(#paint10_linear_201_40)" shape-rendering="crispEdges"/>
</g>
<defs>
<filter id="filter0_i_201_40" x="247.422" y="10.9109" width="267.032" height="297.908" filterUnits="userSpaceOnUse" color-interpolation-filters="sRGB">
<feFlood flood-opacity="0" result="BackgroundImageFix"/>
<feBlend mode="normal" in="SourceGraphic" in2="BackgroundImageFix" result="shape"/>
<feColorMatrix in="SourceAlpha" type="matrix" values="0 0 0 0 0 0 0 0 0 0 0 0 0 0 0 0 0 0 127 0" result="hardAlpha"/>
<feOffset dy="5.87779"/>
<feGaussianBlur stdDeviation="5.87779"/>
<feComposite in2="hardAlpha" operator="arithmetic" k2="-1" k3="1"/>
<feColorMatrix type="matrix" values="0 0 0 0 1 0 0 0 0 1 0 0 0 0 1 0 0 0 0.55 0"/>
<feBlend mode="normal" in2="shape" result="effect1_innerShadow_201_40"/>
</filter>
<filter id="filter1_i_201_40" x="35.8623" y="375.708" width="87.8178" height="92.6164" filterUnits="userSpaceOnUse" color-interpolation-filters="sRGB">
<feFlood flood-opacity="0" result="BackgroundImageFix"/>
<feBlend mode="normal" in="SourceGraphic" in2="BackgroundImageFix" result="shape"/>
<feColorMatrix in="SourceAlpha" type="matrix" values="0 0 0 0 0 0 0 0 0 0 0 0 0 0 0 0 0 0 127 0" result="hardAlpha"/>
<feOffset dx="8.22747" dy="-1.37125"/>
<feGaussianBlur stdDeviation="10.2843"/>
<feComposite in2="hardAlpha" operator="arithmetic" k2="-1" k3="1"/>
<feColorMatrix type="matrix" values="0 0 0 0 0.256493 0 0 0 0 0.282719 0 0 0 0 0.741667 0 0 0 1 0"/>
<feBlend mode="normal" in2="shape" result="effect1_innerShadow_201_40"/>
</filter>
<filter id="filter2_i_201_40" x="125.907" y="375.708" width="87.8178" height="92.6164" filterUnits="userSpaceOnUse" color-interpolation-filters="sRGB">
<feFlood flood-opacity="0" result="BackgroundImageFix"/>
<feBlend mode="normal" in="SourceGraphic" in2="BackgroundImageFix" result="shape"/>
<feColorMatrix in="SourceAlpha" type="matrix" values="0 0 0 0 0 0 0 0 0 0 0 0 0 0 0 0 0 0 127 0" result="hardAlpha"/>
<feOffset dx="8.22747" dy="-1.37125"/>
<feGaussianBlur stdDeviation="10.2843"/>
<feComposite in2="hardAlpha" operator="arithmetic" k2="-1" k3="1"/>
<feColorMatrix type="matrix" values="0 0 0 0 0.256493 0 0 0 0 0.282719 0 0 0 0 0.741667 0 0 0 1 0"/>
<feBlend mode="normal" in2="shape" result="effect1_innerShadow_201_40"/>
</filter>
<filter id="filter3_i_201_40" x="215.953" y="375.708" width="87.8179" height="92.6164" filterUnits="userSpaceOnUse" color-interpolation-filters="sRGB">
<feFlood flood-opacity="0" result="BackgroundImageFix"/>
<feBlend mode="normal" in="SourceGraphic" in2="BackgroundImageFix" result="shape"/>
<feColorMatrix in="SourceAlpha" type="matrix" values="0 0 0 0 0 0 0 0 0 0 0 0 0 0 0 0 0 0 127 0" result="hardAlpha"/>
<feOffset dx="8.22747" dy="-1.37125"/>
<feGaussianBlur stdDeviation="10.2843"/>
<feComposite in2="hardAlpha" operator="arithmetic" k2="-1" k3="1"/>
<feColorMatrix type="matrix" values="0 0 0 0 0.256493 0 0 0 0 0.282719 0 0 0 0 0.741667 0 0 0 1 0"/>
<feBlend mode="normal" in2="shape" result="effect1_innerShadow_201_40"/>
</filter>
<filter id="filter4_i_201_40" x="12.7756" y="112.125" width="361" height="244.947" filterUnits="userSpaceOnUse" color-interpolation-filters="sRGB">
<feFlood flood-opacity="0" result="BackgroundImageFix"/>
<feBlend mode="normal" in="SourceGraphic" in2="BackgroundImageFix" result="shape"/>
<feColorMatrix in="SourceAlpha" type="matrix" values="0 0 0 0 0 0 0 0 0 0 0 0 0 0 0 0 0 0 127 0" result="hardAlpha"/>
<feOffset dy="-12.8754"/>
<feGaussianBlur stdDeviation="12.8754"/>
<feComposite in2="hardAlpha" operator="arithmetic" k2="-1" k3="1"/>
<feColorMatrix type="matrix" values="0 0 0 0 0.815686 0 0 0 0 0.784314 0 0 0 0 0.956863 0 0 0 1 0"/>
<feBlend mode="normal" in2="shape" result="effect1_innerShadow_201_40"/>
</filter>
<filter id="filter5_d_201_40" x="4.76837e-05" y="125" width="386.551" height="257.623" filterUnits="userSpaceOnUse" color-interpolation-filters="sRGB">
<feFlood flood-opacity="0" result="BackgroundImageFix"/>
<feColorMatrix in="SourceAlpha" type="matrix" values="0 0 0 0 0 0 0 0 0 0 0 0 0 0 0 0 0 0 127 0" result="hardAlpha"/>
<feOffset dy="12.7756"/>
<feGaussianBlur stdDeviation="6.38779"/>
<feComposite in2="hardAlpha" operator="out"/>
<feColorMatrix type="matrix" values="0 0 0 0 0 0 0 0 0 0 0 0 0 0 0 0 0 0 0.25 0"/>
<feBlend mode="normal" in2="BackgroundImageFix" result="effect1_dropShadow_201_40"/>
<feBlend mode="normal" in="SourceGraphic" in2="effect1_dropShadow_201_40" result="shape"/>
</filter>
<linearGradient id="paint0_linear_201_40" x1="388.693" y1="-13.2993" x2="335.314" y2="309.907" gradientUnits="userSpaceOnUse">
<stop stop-color="#FFEE94"/>
<stop offset="1" stop-color="#FF9900"/>
</linearGradient>
<radialGradient id="paint1_radial_201_40" cx="0" cy="0" r="1" gradientUnits="userSpaceOnUse" gradientTransform="translate(115.453 389.843) rotate(149.241) scale(31.0704 26.9514)">
<stop stop-color="#6779FF"/>
<stop offset="1" stop-color="#6779FF" stop-opacity="0"/>
</radialGradient>
<radialGradient id="paint2_radial_201_40" cx="0" cy="0" r="1" gradientUnits="userSpaceOnUse" gradientTransform="translate(205.498 389.843) rotate(149.241) scale(31.0704 26.9514)">
<stop stop-color="#6779FF"/>
<stop offset="1" stop-color="#6779FF" stop-opacity="0"/>
</radialGradient>
<radialGradient id="paint3_radial_201_40" cx="0" cy="0" r="1" gradientUnits="userSpaceOnUse" gradientTransform="translate(295.543 389.843) rotate(149.241) scale(31.0704 26.9514)">
<stop stop-color="#6779FF"/>
<stop offset="1" stop-color="#6779FF" stop-opacity="0"/>
</radialGradient>
<radialGradient id="paint4_radial_201_40" cx="0" cy="0" r="1" gradientUnits="userSpaceOnUse" gradientTransform="translate(160.295 186.507) rotate(-172.463) scale(71.484 71.4839)">
<stop offset="0.308752" stop-color="#463F6D"/>
<stop offset="1" stop-color="#463F6D"/>
</radialGradient>
<radialGradient id="paint5_radial_201_40" cx="0" cy="0" r="1" gradientUnits="userSpaceOnUse" gradientTransform="translate(147.082 201.424) rotate(-141.242) scale(38.8062 35.5554)">
<stop stop-color="#463F6D"/>
<stop offset="1" stop-color="#463F6D" stop-opacity="0"/>
</radialGradient>
<linearGradient id="paint6_linear_201_40" x1="230.155" y1="344.593" x2="230.155" y2="247.73" gradientUnits="userSpaceOnUse">
<stop stop-color="#463F6D"/>
<stop offset="1" stop-color="#463F6D" stop-opacity="0"/>
</linearGradient>
<radialGradient id="paint7_radial_201_40" cx="0" cy="0" r="1" gradientUnits="userSpaceOnUse" gradientTransform="translate(98.625 258.164) rotate(144.444) scale(88.2252 92.4465)">
<stop stop-color="#463F6D"/>
<stop offset="1" stop-color="#463F6D" stop-opacity="0"/>
</radialGradient>
<radialGradient id="paint8_radial_201_40" cx="0" cy="0" r="1" gradientUnits="userSpaceOnUse" gradientTransform="translate(312.063 234.157) rotate(166.654) scale(307.593 242.24)">
<stop offset="0.815422" stop-color="#463F6D" stop-opacity="0"/>
<stop offset="1" stop-color="#463F6D"/>
</radialGradient>
<radialGradient id="paint9_radial_201_40" cx="0" cy="0" r="1" gradientUnits="userSpaceOnUse" gradientTransform="translate(59.7616 370.198) rotate(-50.5724) scale(109.522 151.144)">
<stop stop-color="#473C78"/>
<stop offset="1" stop-color="#473C78" stop-opacity="0"/>
</radialGradient>
<linearGradient id="paint10_linear_201_40" x1="280.037" y1="381.177" x2="280.956" y2="300.305" gradientUnits="userSpaceOnUse">
<stop stop-color="#463F6D"/>
<stop offset="1" stop-color="#453E66" stop-opacity="0.45"/>
</linearGradient>
</defs>
</svg>
