<svg width="385" height="370" viewBox="0 0 385 370" fill="none" xmlns="http://www.w3.org/2000/svg">
<path d="M83.6353 9.02199C95.2245 -4.02308 110.982 -1.94687 121.063 9.02199L127.212 16.1409C129.341 18.4573 132.423 19.6585 135.557 19.3945L146.489 16.1409C161.389 12.9468 174.93 24.0629 174.93 41.3283V47.8323C175.245 51.3829 178.347 53.7899 181.55 55.354L191.426 59.4808C205.713 66.458 209.284 83.0138 198.876 96.9089L195.919 100.811C193.267 104.396 193.813 109.102 196.451 112.696L199.408 116.836C210.169 130.08 204.102 148.251 188.901 154.6L180.4 158.15C177.196 159.488 175.942 161.784 175.344 165.202L174.752 176.317C172.682 191.573 159.133 198.463 148.263 196.925L135.313 193.465C132.203 193.025 128.336 194.057 126.267 197.308L121.595 203.694C110.007 216.762 94.3649 214.589 86.4735 206.947L77.8566 196.51C75.6003 194.325 72.7557 192.46 69.3511 193.745L56.318 197.308C45.5583 198.832 32.8885 190.561 30.8606 179.884L29.3556 164.433C28.7447 161.217 26.6241 158.491 23.657 157.109L14.5145 153.968C0.766258 147.561 -3.83852 132.051 4.05532 119.098L9.20833 111.973C11.2781 108.577 11.1798 104.286 8.95643 100.989L5.1131 95.5489C-5.76636 80.0574 1.75561 62.742 17.8772 57.5509L21.4328 56.4061C25.3573 55.1425 29.1482 51.8833 29.4742 47.7734L30.266 37.7963C31.5513 21.6018 46.3288 12.3093 61.8717 17.0343L66.902 18.5635C71.7506 20.4557 75.5492 18.8444 78.1955 15.962L83.6353 9.02199Z" fill="url(#paint0_linear_92_122)"/>
<path d="M83.6353 9.02199C95.2245 -4.02308 110.982 -1.94687 121.063 9.02199L127.212 16.1409C129.341 18.4573 132.423 19.6585 135.557 19.3945L146.489 16.1409C161.389 12.9468 174.93 24.0629 174.93 41.3283V47.8323C175.245 51.3829 178.347 53.7899 181.55 55.354L191.426 59.4808C205.713 66.458 209.284 83.0138 198.876 96.9089L195.919 100.811C193.267 104.396 193.813 109.102 196.451 112.696L199.408 116.836C210.169 130.08 204.102 148.251 188.901 154.6L180.4 158.15C177.196 159.488 175.942 161.784 175.344 165.202L174.752 176.317C172.682 191.573 159.133 198.463 148.263 196.925L135.313 193.465C132.203 193.025 128.336 194.057 126.267 197.308L121.595 203.694C110.007 216.762 94.3649 214.589 86.4735 206.947L77.8566 196.51C75.6003 194.325 72.7557 192.46 69.3511 193.745L56.318 197.308C45.5583 198.832 32.8885 190.561 30.8606 179.884L29.3556 164.433C28.7447 161.217 26.6241 158.491 23.657 157.109L14.5145 153.968C0.766258 147.561 -3.83852 132.051 4.05532 119.098L9.20833 111.973C11.2781 108.577 11.1798 104.286 8.95643 100.989L5.1131 95.5489C-5.76636 80.0574 1.75561 62.742 17.8772 57.5509L21.4328 56.4061C25.3573 55.1425 29.1482 51.8833 29.4742 47.7734L30.266 37.7963C31.5513 21.6018 46.3288 12.3093 61.8717 17.0343L66.902 18.5635C71.7506 20.4557 75.5492 18.8444 78.1955 15.962L83.6353 9.02199Z" fill="url(#paint1_radial_92_122)"/>
<path d="M83.6353 9.02199C95.2245 -4.02308 110.982 -1.94687 121.063 9.02199L127.212 16.1409C129.341 18.4573 132.423 19.6585 135.557 19.3945L146.489 16.1409C161.389 12.9468 174.93 24.0629 174.93 41.3283V47.8323C175.245 51.3829 178.347 53.7899 181.55 55.354L191.426 59.4808C205.713 66.458 209.284 83.0138 198.876 96.9089L195.919 100.811C193.267 104.396 193.813 109.102 196.451 112.696L199.408 116.836C210.169 130.08 204.102 148.251 188.901 154.6L180.4 158.15C177.196 159.488 175.942 161.784 175.344 165.202L174.752 176.317C172.682 191.573 159.133 198.463 148.263 196.925L135.313 193.465C132.203 193.025 128.336 194.057 126.267 197.308L121.595 203.694C110.007 216.762 94.3649 214.589 86.4735 206.947L77.8566 196.51C75.6003 194.325 72.7557 192.46 69.3511 193.745L56.318 197.308C45.5583 198.832 32.8885 190.561 30.8606 179.884L29.3556 164.433C28.7447 161.217 26.6241 158.491 23.657 157.109L14.5145 153.968C0.766258 147.561 -3.83852 132.051 4.05532 119.098L9.20833 111.973C11.2781 108.577 11.1798 104.286 8.95643 100.989L5.1131 95.5489C-5.76636 80.0574 1.75561 62.742 17.8772 57.5509L21.4328 56.4061C25.3573 55.1425 29.1482 51.8833 29.4742 47.7734L30.266 37.7963C31.5513 21.6018 46.3288 12.3093 61.8717 17.0343L66.902 18.5635C71.7506 20.4557 75.5492 18.8444 78.1955 15.962L83.6353 9.02199Z" fill="url(#paint2_radial_92_122)"/>
<path d="M83.6353 9.02199C95.2245 -4.02308 110.982 -1.94687 121.063 9.02199L127.212 16.1409C129.341 18.4573 132.423 19.6585 135.557 19.3945L146.489 16.1409C161.389 12.9468 174.93 24.0629 174.93 41.3283V47.8323C175.245 51.3829 178.347 53.7899 181.55 55.354L191.426 59.4808C205.713 66.458 209.284 83.0138 198.876 96.9089L195.919 100.811C193.267 104.396 193.813 109.102 196.451 112.696L199.408 116.836C210.169 130.08 204.102 148.251 188.901 154.6L180.4 158.15C177.196 159.488 175.942 161.784 175.344 165.202L174.752 176.317C172.682 191.573 159.133 198.463 148.263 196.925L135.313 193.465C132.203 193.025 128.336 194.057 126.267 197.308L121.595 203.694C110.007 216.762 94.3649 214.589 86.4735 206.947L77.8566 196.51C75.6003 194.325 72.7557 192.46 69.3511 193.745L56.318 197.308C45.5583 198.832 32.8885 190.561 30.8606 179.884L29.3556 164.433C28.7447 161.217 26.6241 158.491 23.657 157.109L14.5145 153.968C0.766258 147.561 -3.83852 132.051 4.05532 119.098L9.20833 111.973C11.2781 108.577 11.1798 104.286 8.95643 100.989L5.1131 95.5489C-5.76636 80.0574 1.75561 62.742 17.8772 57.5509L21.4328 56.4061C25.3573 55.1425 29.1482 51.8833 29.4742 47.7734L30.266 37.7963C31.5513 21.6018 46.3288 12.3093 61.8717 17.0343L66.902 18.5635C71.7506 20.4557 75.5492 18.8444 78.1955 15.962L83.6353 9.02199Z" fill="url(#paint3_radial_92_122)"/>
<path d="M83.6353 9.02199C95.2245 -4.02308 110.982 -1.94687 121.063 9.02199L127.212 16.1409C129.341 18.4573 132.423 19.6585 135.557 19.3945L146.489 16.1409C161.389 12.9468 174.93 24.0629 174.93 41.3283V47.8323C175.245 51.3829 178.347 53.7899 181.55 55.354L191.426 59.4808C205.713 66.458 209.284 83.0138 198.876 96.9089L195.919 100.811C193.267 104.396 193.813 109.102 196.451 112.696L199.408 116.836C210.169 130.08 204.102 148.251 188.901 154.6L180.4 158.15C177.196 159.488 175.942 161.784 175.344 165.202L174.752 176.317C172.682 191.573 159.133 198.463 148.263 196.925L135.313 193.465C132.203 193.025 128.336 194.057 126.267 197.308L121.595 203.694C110.007 216.762 94.3649 214.589 86.4735 206.947L77.8566 196.51C75.6003 194.325 72.7557 192.46 69.3511 193.745L56.318 197.308C45.5583 198.832 32.8885 190.561 30.8606 179.884L29.3556 164.433C28.7447 161.217 26.6241 158.491 23.657 157.109L14.5145 153.968C0.766258 147.561 -3.83852 132.051 4.05532 119.098L9.20833 111.973C11.2781 108.577 11.1798 104.286 8.95643 100.989L5.1131 95.5489C-5.76636 80.0574 1.75561 62.742 17.8772 57.5509L21.4328 56.4061C25.3573 55.1425 29.1482 51.8833 29.4742 47.7734L30.266 37.7963C31.5513 21.6018 46.3288 12.3093 61.8717 17.0343L66.902 18.5635C71.7506 20.4557 75.5492 18.8444 78.1955 15.962L83.6353 9.02199Z" fill="url(#paint4_radial_92_122)"/>
<path d="M83.6353 9.02199C95.2245 -4.02308 110.982 -1.94687 121.063 9.02199L127.212 16.1409C129.341 18.4573 132.423 19.6585 135.557 19.3945L146.489 16.1409C161.389 12.9468 174.93 24.0629 174.93 41.3283V47.8323C175.245 51.3829 178.347 53.7899 181.55 55.354L191.426 59.4808C205.713 66.458 209.284 83.0138 198.876 96.9089L195.919 100.811C193.267 104.396 193.813 109.102 196.451 112.696L199.408 116.836C210.169 130.08 204.102 148.251 188.901 154.6L180.4 158.15C177.196 159.488 175.942 161.784 175.344 165.202L174.752 176.317C172.682 191.573 159.133 198.463 148.263 196.925L135.313 193.465C132.203 193.025 128.336 194.057 126.267 197.308L121.595 203.694C110.007 216.762 94.3649 214.589 86.4735 206.947L77.8566 196.51C75.6003 194.325 72.7557 192.46 69.3511 193.745L56.318 197.308C45.5583 198.832 32.8885 190.561 30.8606 179.884L29.3556 164.433C28.7447 161.217 26.6241 158.491 23.657 157.109L14.5145 153.968C0.766258 147.561 -3.83852 132.051 4.05532 119.098L9.20833 111.973C11.2781 108.577 11.1798 104.286 8.95643 100.989L5.1131 95.5489C-5.76636 80.0574 1.75561 62.742 17.8772 57.5509L21.4328 56.4061C25.3573 55.1425 29.1482 51.8833 29.4742 47.7734L30.266 37.7963C31.5513 21.6018 46.3288 12.3093 61.8717 17.0343L66.902 18.5635C71.7506 20.4557 75.5492 18.8444 78.1955 15.962L83.6353 9.02199Z" fill="url(#paint5_radial_92_122)"/>
<path d="M83.6353 9.02199C95.2245 -4.02308 110.982 -1.94687 121.063 9.02199L127.212 16.1409C129.341 18.4573 132.423 19.6585 135.557 19.3945L146.489 16.1409C161.389 12.9468 174.93 24.0629 174.93 41.3283V47.8323C175.245 51.3829 178.347 53.7899 181.55 55.354L191.426 59.4808C205.713 66.458 209.284 83.0138 198.876 96.9089L195.919 100.811C193.267 104.396 193.813 109.102 196.451 112.696L199.408 116.836C210.169 130.08 204.102 148.251 188.901 154.6L180.4 158.15C177.196 159.488 175.942 161.784 175.344 165.202L174.752 176.317C172.682 191.573 159.133 198.463 148.263 196.925L135.313 193.465C132.203 193.025 128.336 194.057 126.267 197.308L121.595 203.694C110.007 216.762 94.3649 214.589 86.4735 206.947L77.8566 196.51C75.6003 194.325 72.7557 192.46 69.3511 193.745L56.318 197.308C45.5583 198.832 32.8885 190.561 30.8606 179.884L29.3556 164.433C28.7447 161.217 26.6241 158.491 23.657 157.109L14.5145 153.968C0.766258 147.561 -3.83852 132.051 4.05532 119.098L9.20833 111.973C11.2781 108.577 11.1798 104.286 8.95643 100.989L5.1131 95.5489C-5.76636 80.0574 1.75561 62.742 17.8772 57.5509L21.4328 56.4061C25.3573 55.1425 29.1482 51.8833 29.4742 47.7734L30.266 37.7963C31.5513 21.6018 46.3288 12.3093 61.8717 17.0343L66.902 18.5635C71.7506 20.4557 75.5492 18.8444 78.1955 15.962L83.6353 9.02199Z" fill="url(#paint6_radial_92_122)"/>
<path d="M83.6353 9.02199C95.2245 -4.02308 110.982 -1.94687 121.063 9.02199L127.212 16.1409C129.341 18.4573 132.423 19.6585 135.557 19.3945L146.489 16.1409C161.389 12.9468 174.93 24.0629 174.93 41.3283V47.8323C175.245 51.3829 178.347 53.7899 181.55 55.354L191.426 59.4808C205.713 66.458 209.284 83.0138 198.876 96.9089L195.919 100.811C193.267 104.396 193.813 109.102 196.451 112.696L199.408 116.836C210.169 130.08 204.102 148.251 188.901 154.6L180.4 158.15C177.196 159.488 175.942 161.784 175.344 165.202L174.752 176.317C172.682 191.573 159.133 198.463 148.263 196.925L135.313 193.465C132.203 193.025 128.336 194.057 126.267 197.308L121.595 203.694C110.007 216.762 94.3649 214.589 86.4735 206.947L77.8566 196.51C75.6003 194.325 72.7557 192.46 69.3511 193.745L56.318 197.308C45.5583 198.832 32.8885 190.561 30.8606 179.884L29.3556 164.433C28.7447 161.217 26.6241 158.491 23.657 157.109L14.5145 153.968C0.766258 147.561 -3.83852 132.051 4.05532 119.098L9.20833 111.973C11.2781 108.577 11.1798 104.286 8.95643 100.989L5.1131 95.5489C-5.76636 80.0574 1.75561 62.742 17.8772 57.5509L21.4328 56.4061C25.3573 55.1425 29.1482 51.8833 29.4742 47.7734L30.266 37.7963C31.5513 21.6018 46.3288 12.3093 61.8717 17.0343L66.902 18.5635C71.7506 20.4557 75.5492 18.8444 78.1955 15.962L83.6353 9.02199Z" fill="url(#paint7_radial_92_122)"/>
<path d="M83.6353 9.02199C95.2245 -4.02308 110.982 -1.94687 121.063 9.02199L127.212 16.1409C129.341 18.4573 132.423 19.6585 135.557 19.3945L146.489 16.1409C161.389 12.9468 174.93 24.0629 174.93 41.3283V47.8323C175.245 51.3829 178.347 53.7899 181.55 55.354L191.426 59.4808C205.713 66.458 209.284 83.0138 198.876 96.9089L195.919 100.811C193.267 104.396 193.813 109.102 196.451 112.696L199.408 116.836C210.169 130.08 204.102 148.251 188.901 154.6L180.4 158.15C177.196 159.488 175.942 161.784 175.344 165.202L174.752 176.317C172.682 191.573 159.133 198.463 148.263 196.925L135.313 193.465C132.203 193.025 128.336 194.057 126.267 197.308L121.595 203.694C110.007 216.762 94.3649 214.589 86.4735 206.947L77.8566 196.51C75.6003 194.325 72.7557 192.46 69.3511 193.745L56.318 197.308C45.5583 198.832 32.8885 190.561 30.8606 179.884L29.3556 164.433C28.7447 161.217 26.6241 158.491 23.657 157.109L14.5145 153.968C0.766258 147.561 -3.83852 132.051 4.05532 119.098L9.20833 111.973C11.2781 108.577 11.1798 104.286 8.95643 100.989L5.1131 95.5489C-5.76636 80.0574 1.75561 62.742 17.8772 57.5509L21.4328 56.4061C25.3573 55.1425 29.1482 51.8833 29.4742 47.7734L30.266 37.7963C31.5513 21.6018 46.3288 12.3093 61.8717 17.0343L66.902 18.5635C71.7506 20.4557 75.5492 18.8444 78.1955 15.962L83.6353 9.02199Z" fill="url(#paint8_radial_92_122)"/>
<path d="M83.6353 9.02199C95.2245 -4.02308 110.982 -1.94687 121.063 9.02199L127.212 16.1409C129.341 18.4573 132.423 19.6585 135.557 19.3945L146.489 16.1409C161.389 12.9468 174.93 24.0629 174.93 41.3283V47.8323C175.245 51.3829 178.347 53.7899 181.55 55.354L191.426 59.4808C205.713 66.458 209.284 83.0138 198.876 96.9089L195.919 100.811C193.267 104.396 193.813 109.102 196.451 112.696L199.408 116.836C210.169 130.08 204.102 148.251 188.901 154.6L180.4 158.15C177.196 159.488 175.942 161.784 175.344 165.202L174.752 176.317C172.682 191.573 159.133 198.463 148.263 196.925L135.313 193.465C132.203 193.025 128.336 194.057 126.267 197.308L121.595 203.694C110.007 216.762 94.3649 214.589 86.4735 206.947L77.8566 196.51C75.6003 194.325 72.7557 192.46 69.3511 193.745L56.318 197.308C45.5583 198.832 32.8885 190.561 30.8606 179.884L29.3556 164.433C28.7447 161.217 26.6241 158.491 23.657 157.109L14.5145 153.968C0.766258 147.561 -3.83852 132.051 4.05532 119.098L9.20833 111.973C11.2781 108.577 11.1798 104.286 8.95643 100.989L5.1131 95.5489C-5.76636 80.0574 1.75561 62.742 17.8772 57.5509L21.4328 56.4061C25.3573 55.1425 29.1482 51.8833 29.4742 47.7734L30.266 37.7963C31.5513 21.6018 46.3288 12.3093 61.8717 17.0343L66.902 18.5635C71.7506 20.4557 75.5492 18.8444 78.1955 15.962L83.6353 9.02199Z" fill="url(#paint9_radial_92_122)"/>
<g filter="url(#filter0_d_92_122)">
<path d="M102.435 187.66C147.339 187.66 183.742 151.257 183.742 106.352C183.742 61.4472 147.339 25.0448 102.435 25.0448C57.5301 25.0448 21.1277 61.4472 21.1277 106.352C21.1277 151.257 57.5301 187.66 102.435 187.66Z" fill="url(#paint10_radial_92_122)"/>
<path d="M102.435 187.66C147.339 187.66 183.742 151.257 183.742 106.352C183.742 61.4472 147.339 25.0448 102.435 25.0448C57.5301 25.0448 21.1277 61.4472 21.1277 106.352C21.1277 151.257 57.5301 187.66 102.435 187.66Z" fill="url(#paint11_radial_92_122)"/>
</g>
<path d="M140.879 171.203C171.515 171.203 196.352 146.367 196.352 115.729C196.352 85.0924 171.515 60.2561 140.879 60.2561C110.241 60.2561 85.4048 85.0924 85.4048 115.729C85.4048 146.367 110.241 171.203 140.879 171.203Z" fill="url(#paint12_radial_92_122)"/>
<path d="M140.879 171.203C171.515 171.203 196.352 146.367 196.352 115.729C196.352 85.0924 171.515 60.2561 140.879 60.2561C110.241 60.2561 85.4048 85.0924 85.4048 115.729C85.4048 146.367 110.241 171.203 140.879 171.203Z" fill="url(#paint13_radial_92_122)"/>
<g filter="url(#filter1_i_92_122)">
<path d="M92.0542 316.161L60.3785 359.492C52.5624 370.188 37.6158 372.517 26.9201 364.701C16.2244 356.885 13.8934 341.94 21.7095 331.244L53.3851 287.913C61.2012 277.217 76.1479 274.886 86.8436 282.702C97.5393 290.381 99.8703 305.465 92.0542 316.161Z" fill="#535DFF"/>
<path d="M92.0542 316.161L60.3785 359.492C52.5624 370.188 37.6158 372.517 26.9201 364.701C16.2244 356.885 13.8934 341.94 21.7095 331.244L53.3851 287.913C61.2012 277.217 76.1479 274.886 86.8436 282.702C97.5393 290.381 99.8703 305.465 92.0542 316.161Z" fill="url(#paint14_radial_92_122)"/>
</g>
<g filter="url(#filter2_i_92_122)">
<path d="M182.099 316.161L150.424 359.492C142.608 370.188 127.661 372.517 116.965 364.701C106.27 356.885 103.939 341.94 111.755 331.244L143.43 287.913C151.246 277.217 166.193 274.886 176.889 282.702C187.584 290.381 189.916 305.465 182.099 316.161Z" fill="#535DFF"/>
<path d="M182.099 316.161L150.424 359.492C142.608 370.188 127.661 372.517 116.965 364.701C106.27 356.885 103.939 341.94 111.755 331.244L143.43 287.913C151.246 277.217 166.193 274.886 176.889 282.702C187.584 290.381 189.916 305.465 182.099 316.161Z" fill="url(#paint15_radial_92_122)"/>
</g>
<g filter="url(#filter3_i_92_122)">
<path d="M272.145 316.161L240.469 359.492C232.653 370.188 217.706 372.517 207.011 364.701C196.315 356.885 193.984 341.94 201.8 331.244L233.476 287.913C241.292 277.217 256.238 274.886 266.934 282.702C277.63 290.381 279.961 305.465 272.145 316.161Z" fill="#535DFF"/>
<path d="M272.145 316.161L240.469 359.492C232.653 370.188 217.706 372.517 207.011 364.701C196.315 356.885 193.984 341.94 201.8 331.244L233.476 287.913C241.292 277.217 256.238 274.886 266.934 282.702C277.63 290.381 279.961 305.465 272.145 316.161Z" fill="url(#paint16_radial_92_122)"/>
</g>
<g filter="url(#filter4_i_92_122)">
<path d="M347.261 60.1882C298.419 12.5845 220.271 13.4099 172.667 62.2519C159.954 75.2165 150.811 90.254 144.921 106.311C144.115 108.511 141.412 109.372 139.458 108.078C135.177 105.245 130.612 102.77 125.889 100.775C114.607 95.547 102.087 92.6578 88.8791 92.6578C39.7617 92.6578 0 132.419 0 181.537C0 202.449 7.29187 221.71 19.3993 236.982C35.7717 258.445 61.4999 272.204 90.5302 272.204C125.476 272.204 225.913 272.204 265.123 272.204C303.923 272.204 338.181 253.079 359.093 223.774C396.516 174.795 392.527 104.352 347.261 60.1882Z" fill="#D5D4DA"/>
<path d="M347.261 60.1882C298.419 12.5845 220.271 13.4099 172.667 62.2519C159.954 75.2165 150.811 90.254 144.921 106.311C144.115 108.511 141.412 109.372 139.458 108.078C135.177 105.245 130.612 102.77 125.889 100.775C114.607 95.547 102.087 92.6578 88.8791 92.6578C39.7617 92.6578 0 132.419 0 181.537C0 202.449 7.29187 221.71 19.3993 236.982C35.7717 258.445 61.4999 272.204 90.5302 272.204C125.476 272.204 225.913 272.204 265.123 272.204C303.923 272.204 338.181 253.079 359.093 223.774C396.516 174.795 392.527 104.352 347.261 60.1882Z" fill="url(#paint17_linear_92_122)"/>
</g>
<path d="M347.261 60.1882C298.419 12.5845 220.271 13.4099 172.667 62.2519C159.954 75.2165 150.811 90.254 144.921 106.311C144.115 108.511 141.412 109.372 139.458 108.078C135.177 105.245 130.612 102.77 125.889 100.775C114.607 95.547 102.087 92.6578 88.8791 92.6578C39.7617 92.6578 0 132.419 0 181.537C0 202.449 7.29187 221.71 19.3993 236.982C35.7717 258.445 61.4999 272.204 90.5302 272.204C125.476 272.204 225.913 272.204 265.123 272.204C303.923 272.204 338.181 253.079 359.093 223.774C396.516 174.795 392.527 104.352 347.261 60.1882Z" fill="url(#paint18_radial_92_122)"/>
<path d="M347.261 60.1882C298.419 12.5845 220.271 13.4099 172.667 62.2519C159.954 75.2165 150.811 90.254 144.921 106.311C144.115 108.511 141.412 109.372 139.458 108.078C135.177 105.245 130.612 102.77 125.889 100.775C114.607 95.547 102.087 92.6578 88.8791 92.6578C39.7617 92.6578 0 132.419 0 181.537C0 202.449 7.29187 221.71 19.3993 236.982C35.7717 258.445 61.4999 272.204 90.5302 272.204C125.476 272.204 225.913 272.204 265.123 272.204C303.923 272.204 338.181 253.079 359.093 223.774C396.516 174.795 392.527 104.352 347.261 60.1882Z" fill="url(#paint19_radial_92_122)"/>
<path d="M347.261 60.1882C298.419 12.5845 220.271 13.4099 172.667 62.2519C159.954 75.2165 150.811 90.254 144.921 106.311C144.115 108.511 141.412 109.372 139.458 108.078C135.177 105.245 130.612 102.77 125.889 100.775C114.607 95.547 102.087 92.6578 88.8791 92.6578C39.7617 92.6578 0 132.419 0 181.537C0 202.449 7.29187 221.71 19.3993 236.982C35.7717 258.445 61.4999 272.204 90.5302 272.204C125.476 272.204 225.913 272.204 265.123 272.204C303.923 272.204 338.181 253.079 359.093 223.774C396.516 174.795 392.527 104.352 347.261 60.1882Z" fill="url(#paint20_radial_92_122)"/>
<path d="M347.261 60.1882C298.419 12.5845 220.271 13.4099 172.667 62.2519C159.954 75.2165 150.811 90.254 144.921 106.311C144.115 108.511 141.412 109.372 139.458 108.078C135.177 105.245 130.612 102.77 125.889 100.775C114.607 95.547 102.087 92.6578 88.8791 92.6578C39.7617 92.6578 0 132.419 0 181.537C0 202.449 7.29187 221.71 19.3993 236.982C35.7717 258.445 61.4999 272.204 90.5302 272.204C125.476 272.204 225.913 272.204 265.123 272.204C303.923 272.204 338.181 253.079 359.093 223.774C396.516 174.795 392.527 104.352 347.261 60.1882Z" fill="url(#paint21_radial_92_122)"/>
<path d="M347.261 60.1882C298.419 12.5845 220.271 13.4099 172.667 62.2519C159.954 75.2165 150.811 90.254 144.921 106.311C144.115 108.511 141.412 109.372 139.458 108.078C135.177 105.245 130.612 102.77 125.889 100.775C114.607 95.547 102.087 92.6578 88.8791 92.6578C39.7617 92.6578 0 132.419 0 181.537C0 202.449 7.29187 221.71 19.3993 236.982C35.7717 258.445 61.4999 272.204 90.5302 272.204C125.476 272.204 225.913 272.204 265.123 272.204C303.923 272.204 338.181 253.079 359.093 223.774C396.516 174.795 392.527 104.352 347.261 60.1882Z" fill="url(#paint22_linear_92_122)"/>
<g filter="url(#filter5_f_92_122)">
<path d="M183.535 215.607C173.014 232.048 158.326 245.475 152.297 250.133H215.185C203.019 242.898 189.016 224.101 183.535 215.607Z" fill="#EAE0FF"/>
</g>
<defs>
<filter id="filter0_d_92_122" x="12.9002" y="25.0448" width="170.841" height="170.842" filterUnits="userSpaceOnUse" color-interpolation-filters="sRGB">
<feFlood flood-opacity="0" result="BackgroundImageFix"/>
<feColorMatrix in="SourceAlpha" type="matrix" values="0 0 0 0 0 0 0 0 0 0 0 0 0 0 0 0 0 0 127 0" result="hardAlpha"/>
<feOffset dx="-4.11374" dy="4.11374"/>
<feGaussianBlur stdDeviation="2.05687"/>
<feComposite in2="hardAlpha" operator="out"/>
<feColorMatrix type="matrix" values="0 0 0 0 0.921569 0 0 0 0 0.47451 0 0 0 0 0.133333 0 0 0 1 0"/>
<feBlend mode="normal" in2="BackgroundImageFix" result="effect1_dropShadow_92_122"/>
<feBlend mode="normal" in="SourceGraphic" in2="effect1_dropShadow_92_122" result="shape"/>
</filter>
<filter id="filter1_i_92_122" x="17.0867" y="276.708" width="87.8178" height="92.6164" filterUnits="userSpaceOnUse" color-interpolation-filters="sRGB">
<feFlood flood-opacity="0" result="BackgroundImageFix"/>
<feBlend mode="normal" in="SourceGraphic" in2="BackgroundImageFix" result="shape"/>
<feColorMatrix in="SourceAlpha" type="matrix" values="0 0 0 0 0 0 0 0 0 0 0 0 0 0 0 0 0 0 127 0" result="hardAlpha"/>
<feOffset dx="8.22747" dy="-1.37125"/>
<feGaussianBlur stdDeviation="10.2843"/>
<feComposite in2="hardAlpha" operator="arithmetic" k2="-1" k3="1"/>
<feColorMatrix type="matrix" values="0 0 0 0 0.256493 0 0 0 0 0.282719 0 0 0 0 0.741667 0 0 0 1 0"/>
<feBlend mode="normal" in2="shape" result="effect1_innerShadow_92_122"/>
</filter>
<filter id="filter2_i_92_122" x="107.132" y="276.708" width="87.8178" height="92.6164" filterUnits="userSpaceOnUse" color-interpolation-filters="sRGB">
<feFlood flood-opacity="0" result="BackgroundImageFix"/>
<feBlend mode="normal" in="SourceGraphic" in2="BackgroundImageFix" result="shape"/>
<feColorMatrix in="SourceAlpha" type="matrix" values="0 0 0 0 0 0 0 0 0 0 0 0 0 0 0 0 0 0 127 0" result="hardAlpha"/>
<feOffset dx="8.22747" dy="-1.37125"/>
<feGaussianBlur stdDeviation="10.2843"/>
<feComposite in2="hardAlpha" operator="arithmetic" k2="-1" k3="1"/>
<feColorMatrix type="matrix" values="0 0 0 0 0.256493 0 0 0 0 0.282719 0 0 0 0 0.741667 0 0 0 1 0"/>
<feBlend mode="normal" in2="shape" result="effect1_innerShadow_92_122"/>
</filter>
<filter id="filter3_i_92_122" x="197.177" y="276.708" width="87.8178" height="92.6164" filterUnits="userSpaceOnUse" color-interpolation-filters="sRGB">
<feFlood flood-opacity="0" result="BackgroundImageFix"/>
<feBlend mode="normal" in="SourceGraphic" in2="BackgroundImageFix" result="shape"/>
<feColorMatrix in="SourceAlpha" type="matrix" values="0 0 0 0 0 0 0 0 0 0 0 0 0 0 0 0 0 0 127 0" result="hardAlpha"/>
<feOffset dx="8.22747" dy="-1.37125"/>
<feGaussianBlur stdDeviation="10.2843"/>
<feComposite in2="hardAlpha" operator="arithmetic" k2="-1" k3="1"/>
<feColorMatrix type="matrix" values="0 0 0 0 0.256493 0 0 0 0 0.282719 0 0 0 0 0.741667 0 0 0 1 0"/>
<feBlend mode="normal" in2="shape" result="effect1_innerShadow_92_122"/>
</filter>
<filter id="filter4_i_92_122" x="0" y="11.3323" width="384.469" height="260.872" filterUnits="userSpaceOnUse" color-interpolation-filters="sRGB">
<feFlood flood-opacity="0" result="BackgroundImageFix"/>
<feBlend mode="normal" in="SourceGraphic" in2="BackgroundImageFix" result="shape"/>
<feColorMatrix in="SourceAlpha" type="matrix" values="0 0 0 0 0 0 0 0 0 0 0 0 0 0 0 0 0 0 127 0" result="hardAlpha"/>
<feOffset dy="-13.7125"/>
<feGaussianBlur stdDeviation="13.7125"/>
<feComposite in2="hardAlpha" operator="arithmetic" k2="-1" k3="1"/>
<feColorMatrix type="matrix" values="0 0 0 0 0.815686 0 0 0 0 0.784314 0 0 0 0 0.956863 0 0 0 1 0"/>
<feBlend mode="normal" in2="shape" result="effect1_innerShadow_92_122"/>
</filter>
<filter id="filter5_f_92_122" x="131.728" y="195.038" width="104.025" height="75.6639" filterUnits="userSpaceOnUse" color-interpolation-filters="sRGB">
<feFlood flood-opacity="0" result="BackgroundImageFix"/>
<feBlend mode="normal" in="SourceGraphic" in2="BackgroundImageFix" result="shape"/>
<feGaussianBlur stdDeviation="10.2843" result="effect1_foregroundBlur_92_122"/>
</filter>
<linearGradient id="paint0_linear_92_122" x1="165.582" y1="35.7835" x2="49.4075" y2="184.006" gradientUnits="userSpaceOnUse">
<stop stop-color="#FC8B23"/>
<stop offset="1" stop-color="#E67639"/>
</linearGradient>
<radialGradient id="paint1_radial_92_122" cx="0" cy="0" r="1" gradientUnits="userSpaceOnUse" gradientTransform="translate(121.994 9.82705) rotate(138.155) scale(28.5983 25.2326)">
<stop offset="0.300161" stop-color="#FFA13A"/>
<stop offset="1" stop-color="#FFA13A" stop-opacity="0"/>
</radialGradient>
<radialGradient id="paint2_radial_92_122" cx="0" cy="0" r="1" gradientUnits="userSpaceOnUse" gradientTransform="translate(47.5874 0.798908) rotate(67.8105) scale(45.4646 40.1139)">
<stop offset="0.300161" stop-color="#FF942A"/>
<stop offset="1" stop-color="#FF942A" stop-opacity="0"/>
</radialGradient>
<radialGradient id="paint3_radial_92_122" cx="0" cy="0" r="1" gradientUnits="userSpaceOnUse" gradientTransform="translate(169.69 43.2144) rotate(-164.745) scale(18.1273 25.0997)">
<stop offset="0.300161" stop-color="#FFA13D"/>
<stop offset="1" stop-color="#FFA13D" stop-opacity="0"/>
</radialGradient>
<radialGradient id="paint4_radial_92_122" cx="0" cy="0" r="1" gradientUnits="userSpaceOnUse" gradientTransform="translate(206.257 69.6064) rotate(154.195) scale(32.1406 23.7382)">
<stop offset="0.300161" stop-color="#FFA13D"/>
<stop offset="1" stop-color="#FFA13D" stop-opacity="0"/>
</radialGradient>
<radialGradient id="paint5_radial_92_122" cx="0" cy="0" r="1" gradientUnits="userSpaceOnUse" gradientTransform="translate(213.252 123.98) rotate(-173.379) scale(35.8523 20.2041)">
<stop offset="0.300161" stop-color="#FFA13D"/>
<stop offset="1" stop-color="#FFA13D" stop-opacity="0"/>
</radialGradient>
<radialGradient id="paint6_radial_92_122" cx="0" cy="0" r="1" gradientUnits="userSpaceOnUse" gradientTransform="translate(181.137 165.635) rotate(-43.9639) scale(32.521 31.3301)">
<stop stop-color="#E0762A"/>
<stop offset="1" stop-color="#E0762A" stop-opacity="0"/>
</radialGradient>
<radialGradient id="paint7_radial_92_122" cx="0" cy="0" r="1" gradientUnits="userSpaceOnUse" gradientTransform="translate(30.4167 158.003) rotate(-127.747) scale(24.9321 24.0193)">
<stop stop-color="#E0762A"/>
<stop offset="1" stop-color="#E0762A" stop-opacity="0"/>
</radialGradient>
<radialGradient id="paint8_radial_92_122" cx="0" cy="0" r="1" gradientUnits="userSpaceOnUse" gradientTransform="translate(-3.60665 73.7401) rotate(25.2777) scale(25.3185 30.601)">
<stop stop-color="#F0851D"/>
<stop offset="1" stop-color="#F0851D" stop-opacity="0"/>
</radialGradient>
<radialGradient id="paint9_radial_92_122" cx="0" cy="0" r="1" gradientUnits="userSpaceOnUse" gradientTransform="translate(147.524 201.743) rotate(-142.487) scale(29.5187 27.8483)">
<stop offset="0.336586" stop-color="#E3745B"/>
<stop offset="1" stop-color="#E3745B" stop-opacity="0"/>
</radialGradient>
<radialGradient id="paint10_radial_92_122" cx="0" cy="0" r="1" gradientUnits="userSpaceOnUse" gradientTransform="translate(148.575 59.2472) rotate(117.739) scale(145.086 179.167)">
<stop offset="0.17178" stop-color="#FFD13D"/>
<stop offset="1" stop-color="#D89A29"/>
</radialGradient>
<radialGradient id="paint11_radial_92_122" cx="0" cy="0" r="1" gradientUnits="userSpaceOnUse" gradientTransform="translate(168.847 92.4674) rotate(168.299) scale(173.15 146.188)">
<stop offset="0.620449" stop-color="#DCA225" stop-opacity="0"/>
<stop offset="1" stop-color="#DCA225"/>
</radialGradient>
<radialGradient id="paint12_radial_92_122" cx="0" cy="0" r="1" gradientUnits="userSpaceOnUse" gradientTransform="translate(160.878 95.148) rotate(-172.463) scale(76.1313 76.1313)">
<stop offset="0.308752" stop-color="#E8E8E9"/>
<stop offset="1" stop-color="#D2D2D2"/>
</radialGradient>
<radialGradient id="paint13_radial_92_122" cx="0" cy="0" r="1" gradientUnits="userSpaceOnUse" gradientTransform="translate(146.807 111.035) rotate(-141.242) scale(41.3291 37.8669)">
<stop stop-color="#CDCDCE"/>
<stop offset="1" stop-color="#CDCDCE" stop-opacity="0"/>
</radialGradient>
<radialGradient id="paint14_radial_92_122" cx="0" cy="0" r="1" gradientUnits="userSpaceOnUse" gradientTransform="translate(96.677 290.843) rotate(149.241) scale(31.0704 26.9514)">
<stop stop-color="#6779FF"/>
<stop offset="1" stop-color="#6779FF" stop-opacity="0"/>
</radialGradient>
<radialGradient id="paint15_radial_92_122" cx="0" cy="0" r="1" gradientUnits="userSpaceOnUse" gradientTransform="translate(186.722 290.843) rotate(149.241) scale(31.0704 26.9514)">
<stop stop-color="#6779FF"/>
<stop offset="1" stop-color="#6779FF" stop-opacity="0"/>
</radialGradient>
<radialGradient id="paint16_radial_92_122" cx="0" cy="0" r="1" gradientUnits="userSpaceOnUse" gradientTransform="translate(276.767 290.843) rotate(149.241) scale(31.0704 26.9514)">
<stop stop-color="#6779FF"/>
<stop offset="1" stop-color="#6779FF" stop-opacity="0"/>
</radialGradient>
<linearGradient id="paint17_linear_92_122" x1="231.511" y1="258.914" x2="231.511" y2="155.754" gradientUnits="userSpaceOnUse">
<stop stop-color="#DED7FA"/>
<stop offset="1" stop-color="#DED7FA" stop-opacity="0"/>
</linearGradient>
<radialGradient id="paint18_radial_92_122" cx="0" cy="0" r="1" gradientUnits="userSpaceOnUse" gradientTransform="translate(334.672 108.142) rotate(136.5) scale(153.157 164.292)">
<stop offset="0.178875" stop-color="#FCFBFE"/>
<stop offset="1" stop-color="#FCFBFE" stop-opacity="0"/>
</radialGradient>
<radialGradient id="paint19_radial_92_122" cx="0" cy="0" r="1" gradientUnits="userSpaceOnUse" gradientTransform="translate(91.4307 166.866) rotate(144.444) scale(93.9609 98.4566)">
<stop stop-color="#FCFBFE"/>
<stop offset="1" stop-color="#FCFBFE" stop-opacity="0"/>
</radialGradient>
<radialGradient id="paint20_radial_92_122" cx="0" cy="0" r="1" gradientUnits="userSpaceOnUse" gradientTransform="translate(318.745 141.298) rotate(166.654) scale(327.591 257.989)">
<stop offset="0.815422" stop-color="#CECCD7" stop-opacity="0"/>
<stop offset="1" stop-color="#CECCD7"/>
</radialGradient>
<radialGradient id="paint21_radial_92_122" cx="0" cy="0" r="1" gradientUnits="userSpaceOnUse" gradientTransform="translate(50.0406 286.184) rotate(-50.5724) scale(116.643 160.97)">
<stop stop-color="#D0C9EE"/>
<stop offset="1" stop-color="#D0C9EE" stop-opacity="0"/>
</radialGradient>
<linearGradient id="paint22_linear_92_122" x1="284.636" y1="297.876" x2="285.615" y2="211.747" gradientUnits="userSpaceOnUse">
<stop stop-color="#CFC6FF"/>
<stop offset="1" stop-color="#CFC6FF" stop-opacity="0"/>
</linearGradient>
</defs>
</svg>
