<svg width="41" height="40" viewBox="0 0 41 40" fill="none" xmlns="http://www.w3.org/2000/svg">
<path fill-rule="evenodd" clip-rule="evenodd" d="M7.64332 34.207C5.71924 32.2829 5.71924 29.1862 5.71924 22.9926V16.4233C5.71924 10.2298 5.71924 7.13294 7.64332 5.20897C9.56743 3.28483 12.6642 3.28483 18.8577 3.28483H22.1424C28.3359 3.28483 31.4328 3.28483 33.3567 5.20897C35.2809 7.13294 35.2809 10.2298 35.2809 16.4233V22.9926C35.2809 29.1862 35.2809 32.2829 33.3567 34.207C31.4328 36.1311 28.3359 36.1311 22.1424 36.1311H18.8577C12.6642 36.1311 9.56743 36.1311 7.64332 34.207ZM12.6991 26.2772C12.6991 26.9575 13.2505 27.509 13.9308 27.509H27.0693C27.7496 27.509 28.3011 26.9575 28.3011 26.2772C28.3011 25.597 27.7496 25.0455 27.0693 25.0455H13.9308C13.2505 25.0455 12.6991 25.597 12.6991 26.2772ZM12.6991 19.708C12.6991 20.3882 13.2505 20.9397 13.9308 20.9397H27.0693C27.7496 20.9397 28.3011 20.3882 28.3011 19.708C28.3011 19.0277 27.7496 18.4762 27.0693 18.4762H13.9308C13.2505 18.4762 12.6991 19.0277 12.6991 19.708ZM13.9308 14.3704C13.2505 14.3704 12.6991 13.819 12.6991 13.1387C12.6991 12.4585 13.2505 11.907 13.9308 11.907H22.1424C22.8226 11.907 23.3741 12.4585 23.3741 13.1387C23.3741 13.819 22.8226 14.3704 22.1424 14.3704H13.9308Z" fill="white"/>
</svg>
