<svg width="41" height="41" viewBox="0 0 41 41" fill="none" xmlns="http://www.w3.org/2000/svg">
<g clip-path="url(#clip0_106_2)">
<path d="M40.4733 38.0233L31.2349 28.7766C33.7263 25.7417 35.2145 21.8541 35.2145 17.6236C35.2145 7.90036 27.3305 0.0163879 17.6073 0.0163879C7.88397 0.0163879 0 7.90036 0 17.6236C0 27.3469 7.88397 35.2309 17.6073 35.2309C21.8544 35.2309 25.7504 33.726 28.7936 31.2179L38.032 40.4562C39.1105 41.4428 40.1221 40.8074 40.4733 40.4562C41.1756 39.7623 41.1756 38.7172 40.4733 38.0233ZM3.43617 17.6236C3.43617 9.7982 9.78181 3.45256 17.6073 3.45256C25.4327 3.45256 31.7867 9.7982 31.7867 17.6236C31.7867 25.4491 25.4411 31.7947 17.6156 31.7947C9.79017 31.7947 3.43617 25.4491 3.43617 17.6236Z" fill="#D8D8D8"/>
</g>
<defs>
<clipPath id="clip0_106_2">
<rect width="41" height="41" fill="white"/>
</clipPath>
</defs>
</svg>
