<svg width="368" height="261" viewBox="0 0 368 261" fill="none" xmlns="http://www.w3.org/2000/svg">
<path d="M80.0526 8.63552C91.1454 -3.85074 106.228 -1.86348 115.877 8.63552L121.762 15.4495C123.801 17.6666 126.75 18.8164 129.75 18.5637L140.214 15.4495C154.475 12.3922 167.436 23.0321 167.436 39.5579V45.7834C167.738 49.1818 170.707 51.4857 173.773 52.9829L183.226 56.9328C196.901 63.6111 200.319 79.4578 190.357 92.7577L187.527 96.493C184.989 99.9244 185.511 104.428 188.036 107.868L190.866 111.831C201.166 124.508 195.359 141.9 180.809 147.977L172.672 151.375C169.606 152.656 168.405 154.853 167.833 158.125L167.266 168.765C165.285 183.366 152.316 189.962 141.912 188.489L129.517 185.178C126.54 184.756 122.839 185.745 120.858 188.856L116.386 194.969C105.294 207.477 90.3226 205.397 82.7692 198.082L74.5215 188.093C72.3619 186 69.6391 184.215 66.3804 185.445L53.9055 188.856C43.6067 190.315 31.4797 182.398 29.5386 172.178L28.0981 157.389C27.5134 154.311 25.4836 151.702 22.6436 150.379L13.8927 147.372C0.733434 141.24 -3.67409 126.394 3.88161 113.996L8.81388 107.177C10.795 103.926 10.7009 99.819 8.57277 96.6628L4.89408 91.456C-5.51934 76.6281 1.68041 60.0544 17.1114 55.0856L20.5147 53.9898C24.2711 52.7803 27.8995 49.6608 28.2117 45.7269L28.9695 36.1773C30.1997 20.6764 44.3442 11.782 59.2213 16.3046L64.0361 17.7683C68.677 19.5795 72.3129 18.0371 74.8459 15.2782L80.0526 8.63552Z" fill="url(#paint0_linear_90_74)"/>
<path d="M80.0526 8.63552C91.1454 -3.85074 106.228 -1.86348 115.877 8.63552L121.762 15.4495C123.801 17.6666 126.75 18.8164 129.75 18.5637L140.214 15.4495C154.475 12.3922 167.436 23.0321 167.436 39.5579V45.7834C167.738 49.1818 170.707 51.4857 173.773 52.9829L183.226 56.9328C196.901 63.6111 200.319 79.4578 190.357 92.7577L187.527 96.493C184.989 99.9244 185.511 104.428 188.036 107.868L190.866 111.831C201.166 124.508 195.359 141.9 180.809 147.977L172.672 151.375C169.606 152.656 168.405 154.853 167.833 158.125L167.266 168.765C165.285 183.366 152.316 189.962 141.912 188.489L129.517 185.178C126.54 184.756 122.839 185.745 120.858 188.856L116.386 194.969C105.294 207.477 90.3226 205.397 82.7692 198.082L74.5215 188.093C72.3619 186 69.6391 184.215 66.3804 185.445L53.9055 188.856C43.6067 190.315 31.4797 182.398 29.5386 172.178L28.0981 157.389C27.5134 154.311 25.4836 151.702 22.6436 150.379L13.8927 147.372C0.733434 141.24 -3.67409 126.394 3.88161 113.996L8.81388 107.177C10.795 103.926 10.7009 99.819 8.57277 96.6628L4.89408 91.456C-5.51934 76.6281 1.68041 60.0544 17.1114 55.0856L20.5147 53.9898C24.2711 52.7803 27.8995 49.6608 28.2117 45.7269L28.9695 36.1773C30.1997 20.6764 44.3442 11.782 59.2213 16.3046L64.0361 17.7683C68.677 19.5795 72.3129 18.0371 74.8459 15.2782L80.0526 8.63552Z" fill="url(#paint1_radial_90_74)"/>
<path d="M80.0526 8.63552C91.1454 -3.85074 106.228 -1.86348 115.877 8.63552L121.762 15.4495C123.801 17.6666 126.75 18.8164 129.75 18.5637L140.214 15.4495C154.475 12.3922 167.436 23.0321 167.436 39.5579V45.7834C167.738 49.1818 170.707 51.4857 173.773 52.9829L183.226 56.9328C196.901 63.6111 200.319 79.4578 190.357 92.7577L187.527 96.493C184.989 99.9244 185.511 104.428 188.036 107.868L190.866 111.831C201.166 124.508 195.359 141.9 180.809 147.977L172.672 151.375C169.606 152.656 168.405 154.853 167.833 158.125L167.266 168.765C165.285 183.366 152.316 189.962 141.912 188.489L129.517 185.178C126.54 184.756 122.839 185.745 120.858 188.856L116.386 194.969C105.294 207.477 90.3226 205.397 82.7692 198.082L74.5215 188.093C72.3619 186 69.6391 184.215 66.3804 185.445L53.9055 188.856C43.6067 190.315 31.4797 182.398 29.5386 172.178L28.0981 157.389C27.5134 154.311 25.4836 151.702 22.6436 150.379L13.8927 147.372C0.733434 141.24 -3.67409 126.394 3.88161 113.996L8.81388 107.177C10.795 103.926 10.7009 99.819 8.57277 96.6628L4.89408 91.456C-5.51934 76.6281 1.68041 60.0544 17.1114 55.0856L20.5147 53.9898C24.2711 52.7803 27.8995 49.6608 28.2117 45.7269L28.9695 36.1773C30.1997 20.6764 44.3442 11.782 59.2213 16.3046L64.0361 17.7683C68.677 19.5795 72.3129 18.0371 74.8459 15.2782L80.0526 8.63552Z" fill="url(#paint2_radial_90_74)"/>
<path d="M80.0526 8.63552C91.1454 -3.85074 106.228 -1.86348 115.877 8.63552L121.762 15.4495C123.801 17.6666 126.75 18.8164 129.75 18.5637L140.214 15.4495C154.475 12.3922 167.436 23.0321 167.436 39.5579V45.7834C167.738 49.1818 170.707 51.4857 173.773 52.9829L183.226 56.9328C196.901 63.6111 200.319 79.4578 190.357 92.7577L187.527 96.493C184.989 99.9244 185.511 104.428 188.036 107.868L190.866 111.831C201.166 124.508 195.359 141.9 180.809 147.977L172.672 151.375C169.606 152.656 168.405 154.853 167.833 158.125L167.266 168.765C165.285 183.366 152.316 189.962 141.912 188.489L129.517 185.178C126.54 184.756 122.839 185.745 120.858 188.856L116.386 194.969C105.294 207.477 90.3226 205.397 82.7692 198.082L74.5215 188.093C72.3619 186 69.6391 184.215 66.3804 185.445L53.9055 188.856C43.6067 190.315 31.4797 182.398 29.5386 172.178L28.0981 157.389C27.5134 154.311 25.4836 151.702 22.6436 150.379L13.8927 147.372C0.733434 141.24 -3.67409 126.394 3.88161 113.996L8.81388 107.177C10.795 103.926 10.7009 99.819 8.57277 96.6628L4.89408 91.456C-5.51934 76.6281 1.68041 60.0544 17.1114 55.0856L20.5147 53.9898C24.2711 52.7803 27.8995 49.6608 28.2117 45.7269L28.9695 36.1773C30.1997 20.6764 44.3442 11.782 59.2213 16.3046L64.0361 17.7683C68.677 19.5795 72.3129 18.0371 74.8459 15.2782L80.0526 8.63552Z" fill="url(#paint3_radial_90_74)"/>
<path d="M80.0526 8.63552C91.1454 -3.85074 106.228 -1.86348 115.877 8.63552L121.762 15.4495C123.801 17.6666 126.75 18.8164 129.75 18.5637L140.214 15.4495C154.475 12.3922 167.436 23.0321 167.436 39.5579V45.7834C167.738 49.1818 170.707 51.4857 173.773 52.9829L183.226 56.9328C196.901 63.6111 200.319 79.4578 190.357 92.7577L187.527 96.493C184.989 99.9244 185.511 104.428 188.036 107.868L190.866 111.831C201.166 124.508 195.359 141.9 180.809 147.977L172.672 151.375C169.606 152.656 168.405 154.853 167.833 158.125L167.266 168.765C165.285 183.366 152.316 189.962 141.912 188.489L129.517 185.178C126.54 184.756 122.839 185.745 120.858 188.856L116.386 194.969C105.294 207.477 90.3226 205.397 82.7692 198.082L74.5215 188.093C72.3619 186 69.6391 184.215 66.3804 185.445L53.9055 188.856C43.6067 190.315 31.4797 182.398 29.5386 172.178L28.0981 157.389C27.5134 154.311 25.4836 151.702 22.6436 150.379L13.8927 147.372C0.733434 141.24 -3.67409 126.394 3.88161 113.996L8.81388 107.177C10.795 103.926 10.7009 99.819 8.57277 96.6628L4.89408 91.456C-5.51934 76.6281 1.68041 60.0544 17.1114 55.0856L20.5147 53.9898C24.2711 52.7803 27.8995 49.6608 28.2117 45.7269L28.9695 36.1773C30.1997 20.6764 44.3442 11.782 59.2213 16.3046L64.0361 17.7683C68.677 19.5795 72.3129 18.0371 74.8459 15.2782L80.0526 8.63552Z" fill="url(#paint4_radial_90_74)"/>
<path d="M80.0526 8.63552C91.1454 -3.85074 106.228 -1.86348 115.877 8.63552L121.762 15.4495C123.801 17.6666 126.75 18.8164 129.75 18.5637L140.214 15.4495C154.475 12.3922 167.436 23.0321 167.436 39.5579V45.7834C167.738 49.1818 170.707 51.4857 173.773 52.9829L183.226 56.9328C196.901 63.6111 200.319 79.4578 190.357 92.7577L187.527 96.493C184.989 99.9244 185.511 104.428 188.036 107.868L190.866 111.831C201.166 124.508 195.359 141.9 180.809 147.977L172.672 151.375C169.606 152.656 168.405 154.853 167.833 158.125L167.266 168.765C165.285 183.366 152.316 189.962 141.912 188.489L129.517 185.178C126.54 184.756 122.839 185.745 120.858 188.856L116.386 194.969C105.294 207.477 90.3226 205.397 82.7692 198.082L74.5215 188.093C72.3619 186 69.6391 184.215 66.3804 185.445L53.9055 188.856C43.6067 190.315 31.4797 182.398 29.5386 172.178L28.0981 157.389C27.5134 154.311 25.4836 151.702 22.6436 150.379L13.8927 147.372C0.733434 141.24 -3.67409 126.394 3.88161 113.996L8.81388 107.177C10.795 103.926 10.7009 99.819 8.57277 96.6628L4.89408 91.456C-5.51934 76.6281 1.68041 60.0544 17.1114 55.0856L20.5147 53.9898C24.2711 52.7803 27.8995 49.6608 28.2117 45.7269L28.9695 36.1773C30.1997 20.6764 44.3442 11.782 59.2213 16.3046L64.0361 17.7683C68.677 19.5795 72.3129 18.0371 74.8459 15.2782L80.0526 8.63552Z" fill="url(#paint5_radial_90_74)"/>
<path d="M80.0526 8.63552C91.1454 -3.85074 106.228 -1.86348 115.877 8.63552L121.762 15.4495C123.801 17.6666 126.75 18.8164 129.75 18.5637L140.214 15.4495C154.475 12.3922 167.436 23.0321 167.436 39.5579V45.7834C167.738 49.1818 170.707 51.4857 173.773 52.9829L183.226 56.9328C196.901 63.6111 200.319 79.4578 190.357 92.7577L187.527 96.493C184.989 99.9244 185.511 104.428 188.036 107.868L190.866 111.831C201.166 124.508 195.359 141.9 180.809 147.977L172.672 151.375C169.606 152.656 168.405 154.853 167.833 158.125L167.266 168.765C165.285 183.366 152.316 189.962 141.912 188.489L129.517 185.178C126.54 184.756 122.839 185.745 120.858 188.856L116.386 194.969C105.294 207.477 90.3226 205.397 82.7692 198.082L74.5215 188.093C72.3619 186 69.6391 184.215 66.3804 185.445L53.9055 188.856C43.6067 190.315 31.4797 182.398 29.5386 172.178L28.0981 157.389C27.5134 154.311 25.4836 151.702 22.6436 150.379L13.8927 147.372C0.733434 141.24 -3.67409 126.394 3.88161 113.996L8.81388 107.177C10.795 103.926 10.7009 99.819 8.57277 96.6628L4.89408 91.456C-5.51934 76.6281 1.68041 60.0544 17.1114 55.0856L20.5147 53.9898C24.2711 52.7803 27.8995 49.6608 28.2117 45.7269L28.9695 36.1773C30.1997 20.6764 44.3442 11.782 59.2213 16.3046L64.0361 17.7683C68.677 19.5795 72.3129 18.0371 74.8459 15.2782L80.0526 8.63552Z" fill="url(#paint6_radial_90_74)"/>
<path d="M80.0526 8.63552C91.1454 -3.85074 106.228 -1.86348 115.877 8.63552L121.762 15.4495C123.801 17.6666 126.75 18.8164 129.75 18.5637L140.214 15.4495C154.475 12.3922 167.436 23.0321 167.436 39.5579V45.7834C167.738 49.1818 170.707 51.4857 173.773 52.9829L183.226 56.9328C196.901 63.6111 200.319 79.4578 190.357 92.7577L187.527 96.493C184.989 99.9244 185.511 104.428 188.036 107.868L190.866 111.831C201.166 124.508 195.359 141.9 180.809 147.977L172.672 151.375C169.606 152.656 168.405 154.853 167.833 158.125L167.266 168.765C165.285 183.366 152.316 189.962 141.912 188.489L129.517 185.178C126.54 184.756 122.839 185.745 120.858 188.856L116.386 194.969C105.294 207.477 90.3226 205.397 82.7692 198.082L74.5215 188.093C72.3619 186 69.6391 184.215 66.3804 185.445L53.9055 188.856C43.6067 190.315 31.4797 182.398 29.5386 172.178L28.0981 157.389C27.5134 154.311 25.4836 151.702 22.6436 150.379L13.8927 147.372C0.733434 141.24 -3.67409 126.394 3.88161 113.996L8.81388 107.177C10.795 103.926 10.7009 99.819 8.57277 96.6628L4.89408 91.456C-5.51934 76.6281 1.68041 60.0544 17.1114 55.0856L20.5147 53.9898C24.2711 52.7803 27.8995 49.6608 28.2117 45.7269L28.9695 36.1773C30.1997 20.6764 44.3442 11.782 59.2213 16.3046L64.0361 17.7683C68.677 19.5795 72.3129 18.0371 74.8459 15.2782L80.0526 8.63552Z" fill="url(#paint7_radial_90_74)"/>
<path d="M80.0526 8.63552C91.1454 -3.85074 106.228 -1.86348 115.877 8.63552L121.762 15.4495C123.801 17.6666 126.75 18.8164 129.75 18.5637L140.214 15.4495C154.475 12.3922 167.436 23.0321 167.436 39.5579V45.7834C167.738 49.1818 170.707 51.4857 173.773 52.9829L183.226 56.9328C196.901 63.6111 200.319 79.4578 190.357 92.7577L187.527 96.493C184.989 99.9244 185.511 104.428 188.036 107.868L190.866 111.831C201.166 124.508 195.359 141.9 180.809 147.977L172.672 151.375C169.606 152.656 168.405 154.853 167.833 158.125L167.266 168.765C165.285 183.366 152.316 189.962 141.912 188.489L129.517 185.178C126.54 184.756 122.839 185.745 120.858 188.856L116.386 194.969C105.294 207.477 90.3226 205.397 82.7692 198.082L74.5215 188.093C72.3619 186 69.6391 184.215 66.3804 185.445L53.9055 188.856C43.6067 190.315 31.4797 182.398 29.5386 172.178L28.0981 157.389C27.5134 154.311 25.4836 151.702 22.6436 150.379L13.8927 147.372C0.733434 141.24 -3.67409 126.394 3.88161 113.996L8.81388 107.177C10.795 103.926 10.7009 99.819 8.57277 96.6628L4.89408 91.456C-5.51934 76.6281 1.68041 60.0544 17.1114 55.0856L20.5147 53.9898C24.2711 52.7803 27.8995 49.6608 28.2117 45.7269L28.9695 36.1773C30.1997 20.6764 44.3442 11.782 59.2213 16.3046L64.0361 17.7683C68.677 19.5795 72.3129 18.0371 74.8459 15.2782L80.0526 8.63552Z" fill="url(#paint8_radial_90_74)"/>
<path d="M80.0526 8.63552C91.1454 -3.85074 106.228 -1.86348 115.877 8.63552L121.762 15.4495C123.801 17.6666 126.75 18.8164 129.75 18.5637L140.214 15.4495C154.475 12.3922 167.436 23.0321 167.436 39.5579V45.7834C167.738 49.1818 170.707 51.4857 173.773 52.9829L183.226 56.9328C196.901 63.6111 200.319 79.4578 190.357 92.7577L187.527 96.493C184.989 99.9244 185.511 104.428 188.036 107.868L190.866 111.831C201.166 124.508 195.359 141.9 180.809 147.977L172.672 151.375C169.606 152.656 168.405 154.853 167.833 158.125L167.266 168.765C165.285 183.366 152.316 189.962 141.912 188.489L129.517 185.178C126.54 184.756 122.839 185.745 120.858 188.856L116.386 194.969C105.294 207.477 90.3226 205.397 82.7692 198.082L74.5215 188.093C72.3619 186 69.6391 184.215 66.3804 185.445L53.9055 188.856C43.6067 190.315 31.4797 182.398 29.5386 172.178L28.0981 157.389C27.5134 154.311 25.4836 151.702 22.6436 150.379L13.8927 147.372C0.733434 141.24 -3.67409 126.394 3.88161 113.996L8.81388 107.177C10.795 103.926 10.7009 99.819 8.57277 96.6628L4.89408 91.456C-5.51934 76.6281 1.68041 60.0544 17.1114 55.0856L20.5147 53.9898C24.2711 52.7803 27.8995 49.6608 28.2117 45.7269L28.9695 36.1773C30.1997 20.6764 44.3442 11.782 59.2213 16.3046L64.0361 17.7683C68.677 19.5795 72.3129 18.0371 74.8459 15.2782L80.0526 8.63552Z" fill="url(#paint9_radial_90_74)"/>
<g filter="url(#filter0_d_90_74)">
<path d="M98.0468 179.621C141.028 179.621 175.871 144.778 175.871 101.796C175.871 58.815 141.028 23.9719 98.0468 23.9719C55.0658 23.9719 20.2227 58.815 20.2227 101.796C20.2227 144.778 55.0658 179.621 98.0468 179.621Z" fill="url(#paint10_radial_90_74)"/>
<path d="M98.0468 179.621C141.028 179.621 175.871 144.778 175.871 101.796C175.871 58.815 141.028 23.9719 98.0468 23.9719C55.0658 23.9719 20.2227 58.815 20.2227 101.796C20.2227 144.778 55.0658 179.621 98.0468 179.621Z" fill="url(#paint11_radial_90_74)"/>
</g>
<path d="M134.844 163.869C164.168 163.869 187.941 140.097 187.941 110.772C187.941 81.4474 164.168 57.675 134.844 57.675C105.519 57.675 81.7463 81.4474 81.7463 110.772C81.7463 140.097 105.519 163.869 134.844 163.869Z" fill="url(#paint12_radial_90_74)"/>
<path d="M134.844 163.869C164.168 163.869 187.941 140.097 187.941 110.772C187.941 81.4474 164.168 57.675 134.844 57.675C105.519 57.675 81.7463 81.4474 81.7463 110.772C81.7463 140.097 105.519 163.869 134.844 163.869Z" fill="url(#paint13_radial_90_74)"/>
<g filter="url(#filter1_i_90_74)">
<path d="M332.386 57.6099C285.635 12.0453 210.836 12.8355 165.271 59.5852C153.102 71.9944 144.351 86.3878 138.713 101.757C137.942 103.863 135.355 104.687 133.484 103.449C129.387 100.736 125.017 98.3674 120.496 96.4582C109.698 91.454 97.7141 88.6886 85.0718 88.6886C38.0585 88.6886 0 126.747 0 173.761C0 193.776 6.97951 212.213 18.5683 226.83C34.2393 247.374 58.8655 260.544 86.6522 260.544C120.101 260.544 216.235 260.544 253.766 260.544C290.904 260.544 323.694 242.238 343.711 214.188C379.531 167.307 375.713 99.8822 332.386 57.6099Z" fill="#D5D4DA"/>
<path d="M332.386 57.6099C285.635 12.0453 210.836 12.8355 165.271 59.5852C153.102 71.9944 144.351 86.3878 138.713 101.757C137.942 103.863 135.355 104.687 133.484 103.449C129.387 100.736 125.017 98.3674 120.496 96.4582C109.698 91.454 97.7141 88.6886 85.0718 88.6886C38.0585 88.6886 0 126.747 0 173.761C0 193.776 6.97951 212.213 18.5683 226.83C34.2393 247.374 58.8655 260.544 86.6522 260.544C120.101 260.544 216.235 260.544 253.766 260.544C290.904 260.544 323.694 242.238 343.711 214.188C379.531 167.307 375.713 99.8822 332.386 57.6099Z" fill="url(#paint14_linear_90_74)"/>
</g>
<path d="M332.386 57.6099C285.635 12.0453 210.836 12.8355 165.271 59.5852C153.102 71.9944 144.351 86.3878 138.713 101.757C137.942 103.863 135.355 104.687 133.484 103.449C129.387 100.736 125.017 98.3674 120.496 96.4582C109.698 91.454 97.7141 88.6886 85.0718 88.6886C38.0585 88.6886 0 126.747 0 173.761C0 193.776 6.97951 212.213 18.5683 226.83C34.2393 247.374 58.8655 260.544 86.6522 260.544C120.101 260.544 216.235 260.544 253.766 260.544C290.904 260.544 323.694 242.238 343.711 214.188C379.531 167.307 375.713 99.8822 332.386 57.6099Z" fill="url(#paint15_radial_90_74)"/>
<path d="M332.386 57.6099C285.635 12.0453 210.836 12.8355 165.271 59.5852C153.102 71.9944 144.351 86.3878 138.713 101.757C137.942 103.863 135.355 104.687 133.484 103.449C129.387 100.736 125.017 98.3674 120.496 96.4582C109.698 91.454 97.7141 88.6886 85.0718 88.6886C38.0585 88.6886 0 126.747 0 173.761C0 193.776 6.97951 212.213 18.5683 226.83C34.2393 247.374 58.8655 260.544 86.6522 260.544C120.101 260.544 216.235 260.544 253.766 260.544C290.904 260.544 323.694 242.238 343.711 214.188C379.531 167.307 375.713 99.8822 332.386 57.6099Z" fill="url(#paint16_radial_90_74)"/>
<path d="M332.386 57.6099C285.635 12.0453 210.836 12.8355 165.271 59.5852C153.102 71.9944 144.351 86.3878 138.713 101.757C137.942 103.863 135.355 104.687 133.484 103.449C129.387 100.736 125.017 98.3674 120.496 96.4582C109.698 91.454 97.7141 88.6886 85.0718 88.6886C38.0585 88.6886 0 126.747 0 173.761C0 193.776 6.97951 212.213 18.5683 226.83C34.2393 247.374 58.8655 260.544 86.6522 260.544C120.101 260.544 216.235 260.544 253.766 260.544C290.904 260.544 323.694 242.238 343.711 214.188C379.531 167.307 375.713 99.8822 332.386 57.6099Z" fill="url(#paint17_radial_90_74)"/>
<path d="M332.386 57.6099C285.635 12.0453 210.836 12.8355 165.271 59.5852C153.102 71.9944 144.351 86.3878 138.713 101.757C137.942 103.863 135.355 104.687 133.484 103.449C129.387 100.736 125.017 98.3674 120.496 96.4582C109.698 91.454 97.7141 88.6886 85.0718 88.6886C38.0585 88.6886 0 126.747 0 173.761C0 193.776 6.97951 212.213 18.5683 226.83C34.2393 247.374 58.8655 260.544 86.6522 260.544C120.101 260.544 216.235 260.544 253.766 260.544C290.904 260.544 323.694 242.238 343.711 214.188C379.531 167.307 375.713 99.8822 332.386 57.6099Z" fill="url(#paint18_radial_90_74)"/>
<path d="M332.386 57.6099C285.635 12.0453 210.836 12.8355 165.271 59.5852C153.102 71.9944 144.351 86.3878 138.713 101.757C137.942 103.863 135.355 104.687 133.484 103.449C129.387 100.736 125.017 98.3674 120.496 96.4582C109.698 91.454 97.7141 88.6886 85.0718 88.6886C38.0585 88.6886 0 126.747 0 173.761C0 193.776 6.97951 212.213 18.5683 226.83C34.2393 247.374 58.8655 260.544 86.6522 260.544C120.101 260.544 216.235 260.544 253.766 260.544C290.904 260.544 323.694 242.238 343.711 214.188C379.531 167.307 375.713 99.8822 332.386 57.6099Z" fill="url(#paint19_linear_90_74)"/>
<defs>
<filter id="filter0_d_90_74" x="12.3476" y="23.9719" width="163.523" height="163.524" filterUnits="userSpaceOnUse" color-interpolation-filters="sRGB">
<feFlood flood-opacity="0" result="BackgroundImageFix"/>
<feColorMatrix in="SourceAlpha" type="matrix" values="0 0 0 0 0 0 0 0 0 0 0 0 0 0 0 0 0 0 127 0" result="hardAlpha"/>
<feOffset dx="-3.93752" dy="3.93752"/>
<feGaussianBlur stdDeviation="1.96876"/>
<feComposite in2="hardAlpha" operator="out"/>
<feColorMatrix type="matrix" values="0 0 0 0 0.921569 0 0 0 0 0.47451 0 0 0 0 0.133333 0 0 0 1 0"/>
<feBlend mode="normal" in2="BackgroundImageFix" result="effect1_dropShadow_90_74"/>
<feBlend mode="normal" in="SourceGraphic" in2="effect1_dropShadow_90_74" result="shape"/>
</filter>
<filter id="filter1_i_90_74" x="0" y="10.8469" width="368" height="249.697" filterUnits="userSpaceOnUse" color-interpolation-filters="sRGB">
<feFlood flood-opacity="0" result="BackgroundImageFix"/>
<feBlend mode="normal" in="SourceGraphic" in2="BackgroundImageFix" result="shape"/>
<feColorMatrix in="SourceAlpha" type="matrix" values="0 0 0 0 0 0 0 0 0 0 0 0 0 0 0 0 0 0 127 0" result="hardAlpha"/>
<feOffset dy="-13.1251"/>
<feGaussianBlur stdDeviation="13.1251"/>
<feComposite in2="hardAlpha" operator="arithmetic" k2="-1" k3="1"/>
<feColorMatrix type="matrix" values="0 0 0 0 0.815686 0 0 0 0 0.784314 0 0 0 0 0.956863 0 0 0 1 0"/>
<feBlend mode="normal" in2="shape" result="effect1_innerShadow_90_74"/>
</filter>
<linearGradient id="paint0_linear_90_74" x1="158.489" y1="34.2506" x2="47.291" y2="176.124" gradientUnits="userSpaceOnUse">
<stop stop-color="#FC8B23"/>
<stop offset="1" stop-color="#E67639"/>
</linearGradient>
<radialGradient id="paint1_radial_90_74" cx="0" cy="0" r="1" gradientUnits="userSpaceOnUse" gradientTransform="translate(116.768 9.40609) rotate(138.155) scale(27.3732 24.1517)">
<stop offset="0.300161" stop-color="#FFA13A"/>
<stop offset="1" stop-color="#FFA13A" stop-opacity="0"/>
</radialGradient>
<radialGradient id="paint2_radial_90_74" cx="0" cy="0" r="1" gradientUnits="userSpaceOnUse" gradientTransform="translate(45.5489 0.764686) rotate(67.8105) scale(43.5171 38.3955)">
<stop offset="0.300161" stop-color="#FF942A"/>
<stop offset="1" stop-color="#FF942A" stop-opacity="0"/>
</radialGradient>
<radialGradient id="paint3_radial_90_74" cx="0" cy="0" r="1" gradientUnits="userSpaceOnUse" gradientTransform="translate(162.421 41.3632) rotate(-164.745) scale(17.3508 24.0245)">
<stop offset="0.300161" stop-color="#FFA13D"/>
<stop offset="1" stop-color="#FFA13D" stop-opacity="0"/>
</radialGradient>
<radialGradient id="paint4_radial_90_74" cx="0" cy="0" r="1" gradientUnits="userSpaceOnUse" gradientTransform="translate(197.422 66.6247) rotate(154.195) scale(30.7638 22.7213)">
<stop offset="0.300161" stop-color="#FFA13D"/>
<stop offset="1" stop-color="#FFA13D" stop-opacity="0"/>
</radialGradient>
<radialGradient id="paint5_radial_90_74" cx="0" cy="0" r="1" gradientUnits="userSpaceOnUse" gradientTransform="translate(204.117 118.669) rotate(-173.379) scale(34.3165 19.3386)">
<stop offset="0.300161" stop-color="#FFA13D"/>
<stop offset="1" stop-color="#FFA13D" stop-opacity="0"/>
</radialGradient>
<radialGradient id="paint6_radial_90_74" cx="0" cy="0" r="1" gradientUnits="userSpaceOnUse" gradientTransform="translate(173.378 158.54) rotate(-43.9639) scale(31.1279 29.988)">
<stop stop-color="#E0762A"/>
<stop offset="1" stop-color="#E0762A" stop-opacity="0"/>
</radialGradient>
<radialGradient id="paint7_radial_90_74" cx="0" cy="0" r="1" gradientUnits="userSpaceOnUse" gradientTransform="translate(29.1137 151.235) rotate(-127.747) scale(23.8641 22.9904)">
<stop stop-color="#E0762A"/>
<stop offset="1" stop-color="#E0762A" stop-opacity="0"/>
</radialGradient>
<radialGradient id="paint8_radial_90_74" cx="0" cy="0" r="1" gradientUnits="userSpaceOnUse" gradientTransform="translate(-3.45215 70.5813) rotate(25.2777) scale(24.234 29.2901)">
<stop stop-color="#F0851D"/>
<stop offset="1" stop-color="#F0851D" stop-opacity="0"/>
</radialGradient>
<radialGradient id="paint9_radial_90_74" cx="0" cy="0" r="1" gradientUnits="userSpaceOnUse" gradientTransform="translate(141.205 193.101) rotate(-142.487) scale(28.2542 26.6554)">
<stop offset="0.336586" stop-color="#E3745B"/>
<stop offset="1" stop-color="#E3745B" stop-opacity="0"/>
</radialGradient>
<radialGradient id="paint10_radial_90_74" cx="0" cy="0" r="1" gradientUnits="userSpaceOnUse" gradientTransform="translate(142.21 56.7092) rotate(117.739) scale(138.871 171.492)">
<stop offset="0.17178" stop-color="#FFD13D"/>
<stop offset="1" stop-color="#D89A29"/>
</radialGradient>
<radialGradient id="paint11_radial_90_74" cx="0" cy="0" r="1" gradientUnits="userSpaceOnUse" gradientTransform="translate(161.614 88.5064) rotate(168.299) scale(165.733 139.926)">
<stop offset="0.620449" stop-color="#DCA225" stop-opacity="0"/>
<stop offset="1" stop-color="#DCA225"/>
</radialGradient>
<radialGradient id="paint12_radial_90_74" cx="0" cy="0" r="1" gradientUnits="userSpaceOnUse" gradientTransform="translate(153.987 91.0722) rotate(-172.463) scale(72.8701 72.8701)">
<stop offset="0.308752" stop-color="#E8E8E9"/>
<stop offset="1" stop-color="#D2D2D2"/>
</radialGradient>
<radialGradient id="paint13_radial_90_74" cx="0" cy="0" r="1" gradientUnits="userSpaceOnUse" gradientTransform="translate(140.518 106.279) rotate(-141.242) scale(39.5587 36.2448)">
<stop stop-color="#CDCDCE"/>
<stop offset="1" stop-color="#CDCDCE" stop-opacity="0"/>
</radialGradient>
<linearGradient id="paint14_linear_90_74" x1="221.594" y1="247.823" x2="221.594" y2="149.082" gradientUnits="userSpaceOnUse">
<stop stop-color="#DED7FA"/>
<stop offset="1" stop-color="#DED7FA" stop-opacity="0"/>
</linearGradient>
<radialGradient id="paint15_radial_90_74" cx="0" cy="0" r="1" gradientUnits="userSpaceOnUse" gradientTransform="translate(320.335 103.509) rotate(136.5) scale(146.596 157.254)">
<stop offset="0.178875" stop-color="#FCFBFE"/>
<stop offset="1" stop-color="#FCFBFE" stop-opacity="0"/>
</radialGradient>
<radialGradient id="paint16_radial_90_74" cx="0" cy="0" r="1" gradientUnits="userSpaceOnUse" gradientTransform="translate(87.5141 159.718) rotate(144.444) scale(89.9359 94.2391)">
<stop stop-color="#FCFBFE"/>
<stop offset="1" stop-color="#FCFBFE" stop-opacity="0"/>
</radialGradient>
<radialGradient id="paint17_radial_90_74" cx="0" cy="0" r="1" gradientUnits="userSpaceOnUse" gradientTransform="translate(305.091 135.245) rotate(166.654) scale(313.558 246.937)">
<stop offset="0.815422" stop-color="#CECCD7" stop-opacity="0"/>
<stop offset="1" stop-color="#CECCD7"/>
</radialGradient>
<radialGradient id="paint18_radial_90_74" cx="0" cy="0" r="1" gradientUnits="userSpaceOnUse" gradientTransform="translate(47.897 273.925) rotate(-50.5724) scale(111.646 154.075)">
<stop stop-color="#D0C9EE"/>
<stop offset="1" stop-color="#D0C9EE" stop-opacity="0"/>
</radialGradient>
<linearGradient id="paint19_linear_90_74" x1="272.443" y1="285.116" x2="273.381" y2="202.676" gradientUnits="userSpaceOnUse">
<stop stop-color="#CFC6FF"/>
<stop offset="1" stop-color="#CFC6FF" stop-opacity="0"/>
</linearGradient>
</defs>
</svg>
