<svg width="25" height="4" viewBox="0 0 25 4" fill="none" xmlns="http://www.w3.org/2000/svg">
<path d="M0 1.56808L0.833333 1.87206C1.66667 2.17606 3.33333 2.78404 5 3.18873C6.66667 3.60101 8.33333 3.79101 10 2.98733C11.6667 2.17606 13.3333 0.352107 15 0.048116C16.6667 -0.255875 18.3333 0.96009 20 1.46738C21.6667 1.96706 23.3333 1.77706 24.1667 1.66878L25 1.56808V4H24.1667C23.3333 4 21.6667 4 20 4C18.3333 4 16.6667 4 15 4C13.3333 4 11.6667 4 10 4C8.33333 4 6.66667 4 5 4C3.33333 4 1.66667 4 0.833333 4H0V1.56808Z" fill="#222222"/>
</svg>
