<svg width="70" height="70" viewBox="0 0 70 70" fill="none" xmlns="http://www.w3.org/2000/svg">
<path d="M17.6976 23.0992C18.027 20.4938 21.413 16.9528 24.1003 17.3457L24.096 17.3414C26.7111 17.8384 28.7813 22.3395 29.9487 24.3635C30.7758 25.8319 30.2387 27.3198 29.4672 27.9476C28.4265 28.7864 26.799 29.9438 27.1405 31.1059C27.7475 33.1719 34.9549 40.3792 38.4997 42.4281C39.8415 43.2036 40.8145 41.1582 41.6453 40.1102C42.249 39.3042 43.738 38.8224 45.2032 39.6181C47.3913 40.8924 49.4526 42.3733 51.3588 44.0405C52.3108 44.8362 52.5342 46.0122 51.8746 47.255C50.7127 49.444 47.3524 52.3307 44.9131 51.744C40.6527 50.7197 23.4231 44.0405 17.8888 24.6903C17.5776 23.7748 17.6559 23.4288 17.6976 23.0992Z" fill="#D8D8D8"/>
<path fill-rule="evenodd" clip-rule="evenodd" d="M34.9506 66.326C31.4231 66.326 29.4713 65.9475 26.3018 64.8845L20.2316 67.9197C16.3978 69.8366 11.8871 67.0488 11.8871 62.7624V56.2357C5.67883 50.4468 3.23828 43.7719 3.23828 34.6137C3.23828 17.0994 17.4364 2.90131 34.9506 2.90131C52.4648 2.90131 66.663 17.0994 66.663 34.6137C66.663 52.1278 52.4648 66.326 34.9506 66.326ZM17.653 53.7284L15.8193 52.0186C10.9959 47.5212 9.00416 42.493 9.00416 34.6137C9.00416 20.2838 20.6208 8.66719 34.9506 8.66719C49.2806 8.66719 60.8971 20.2838 60.8971 34.6137C60.8971 48.9436 49.2806 60.5601 34.9506 60.5601C32.1089 60.5601 30.7761 60.3035 28.1352 59.4179L25.865 58.6565L17.653 62.7624V53.7284Z" fill="#D8D8D8"/>
</svg>
