<svg width="389" height="366" viewBox="0 0 389 366" fill="none" xmlns="http://www.w3.org/2000/svg">
<g filter="url(#filter0_i_200_106)">
<path d="M249.563 10.9109C215.94 56.5621 210.11 118.864 239.77 170.237C269.43 221.61 326.3 247.712 382.647 241.419C370.666 257.686 355.156 271.839 336.466 282.629C265.323 323.704 175.038 300.515 134.809 230.836C94.58 161.157 119.64 71.3739 190.783 30.2996C209.474 19.5087 229.485 13.1532 249.563 10.9109Z" fill="url(#paint0_linear_200_106)"/>
</g>
<path d="M109.461 268.811C131.711 268.811 149.749 250.773 149.749 228.522C149.749 206.272 131.711 188.234 109.461 188.234C87.2093 188.234 69.1716 206.272 69.1716 228.522C69.1716 250.773 87.2093 268.811 109.461 268.811Z" fill="url(#paint1_radial_200_106)"/>
<path d="M109.461 268.811C131.711 268.811 149.749 250.773 149.749 228.522C149.749 206.272 131.711 188.234 109.461 188.234C87.2093 188.234 69.1716 206.272 69.1716 228.522C69.1716 250.773 87.2093 268.811 109.461 268.811Z" fill="url(#paint2_radial_200_106)"/>
<g filter="url(#filter1_i_200_106)">
<path d="M262.086 191.524C226.613 156.95 169.858 157.55 135.284 193.022C126.051 202.438 119.411 213.359 115.133 225.021C114.548 226.619 112.585 227.244 111.166 226.305C108.057 224.247 104.741 222.449 101.31 221C93.1172 217.203 84.0242 215.105 74.4316 215.105C38.7593 215.105 9.88159 243.982 9.88159 279.655C9.88159 294.843 15.1774 308.832 23.9707 319.923C35.8614 335.511 54.547 345.504 75.6307 345.504C101.011 345.504 173.955 345.504 202.432 345.504C230.611 345.504 255.491 331.614 270.68 310.331C297.858 274.758 294.961 223.598 262.086 191.524Z" fill="#463F6D"/>
<path d="M262.086 191.524C226.613 156.95 169.858 157.55 135.284 193.022C126.051 202.438 119.411 213.359 115.133 225.021C114.548 226.619 112.585 227.244 111.166 226.305C108.057 224.247 104.741 222.449 101.31 221C93.1172 217.203 84.0242 215.105 74.4316 215.105C38.7593 215.105 9.88159 243.982 9.88159 279.655C9.88159 294.843 15.1774 308.832 23.9707 319.923C35.8614 335.511 54.547 345.504 75.6307 345.504C101.011 345.504 173.955 345.504 202.432 345.504C230.611 345.504 255.491 331.614 270.68 310.331C297.858 274.758 294.961 223.598 262.086 191.524Z" fill="url(#paint3_linear_200_106)"/>
</g>
<path d="M262.086 191.524C226.613 156.95 169.858 157.55 135.284 193.022C126.051 202.438 119.411 213.359 115.133 225.021C114.548 226.619 112.585 227.244 111.166 226.305C108.057 224.247 104.741 222.449 101.31 221C93.1172 217.203 84.0242 215.105 74.4316 215.105C38.7593 215.105 9.88159 243.982 9.88159 279.655C9.88159 294.843 15.1774 308.832 23.9707 319.923C35.8614 335.511 54.547 345.504 75.6307 345.504C101.011 345.504 173.955 345.504 202.432 345.504C230.611 345.504 255.491 331.614 270.68 310.331C297.858 274.758 294.961 223.598 262.086 191.524Z" fill="url(#paint4_radial_200_106)"/>
<path d="M262.086 191.524C226.613 156.95 169.858 157.55 135.284 193.022C126.051 202.438 119.411 213.359 115.133 225.021C114.548 226.619 112.585 227.244 111.166 226.305C108.057 224.247 104.741 222.449 101.31 221C93.1172 217.203 84.0242 215.105 74.4316 215.105C38.7593 215.105 9.88159 243.982 9.88159 279.655C9.88159 294.843 15.1774 308.832 23.9707 319.923C35.8614 335.511 54.547 345.504 75.6307 345.504C101.011 345.504 173.955 345.504 202.432 345.504C230.611 345.504 255.491 331.614 270.68 310.331C297.858 274.758 294.961 223.598 262.086 191.524Z" fill="url(#paint5_radial_200_106)"/>
<path d="M262.086 191.524C226.613 156.95 169.858 157.55 135.284 193.022C126.051 202.438 119.411 213.359 115.133 225.021C114.548 226.619 112.585 227.244 111.166 226.305C108.057 224.247 104.741 222.449 101.31 221C93.1172 217.203 84.0242 215.105 74.4316 215.105C38.7593 215.105 9.88159 243.982 9.88159 279.655C9.88159 294.843 15.1774 308.832 23.9707 319.923C35.8614 335.511 54.547 345.504 75.6307 345.504C101.011 345.504 173.955 345.504 202.432 345.504C230.611 345.504 255.491 331.614 270.68 310.331C297.858 274.758 294.961 223.598 262.086 191.524Z" fill="url(#paint6_radial_200_106)"/>
<g filter="url(#filter2_d_200_106)">
<path d="M262.086 191.524C226.613 156.95 169.858 157.55 135.284 193.022C126.051 202.438 119.411 213.359 115.133 225.021C114.548 226.619 112.585 227.244 111.166 226.305C108.057 224.247 104.741 222.449 101.31 221C93.1172 217.203 84.0242 215.105 74.4316 215.105C38.7593 215.105 9.88159 243.982 9.88159 279.655C9.88159 294.843 15.1774 308.832 23.9707 319.923C35.8614 335.511 54.547 345.504 75.6307 345.504C101.011 345.504 173.955 345.504 202.432 345.504C230.611 345.504 255.491 331.614 270.68 310.331C297.858 274.758 294.961 223.598 262.086 191.524Z" fill="url(#paint7_linear_200_106)" shape-rendering="crispEdges"/>
</g>
<defs>
<filter id="filter0_i_200_106" x="115.615" y="10.9109" width="267.032" height="297.908" filterUnits="userSpaceOnUse" color-interpolation-filters="sRGB">
<feFlood flood-opacity="0" result="BackgroundImageFix"/>
<feBlend mode="normal" in="SourceGraphic" in2="BackgroundImageFix" result="shape"/>
<feColorMatrix in="SourceAlpha" type="matrix" values="0 0 0 0 0 0 0 0 0 0 0 0 0 0 0 0 0 0 127 0" result="hardAlpha"/>
<feOffset dy="5.87779"/>
<feGaussianBlur stdDeviation="5.87779"/>
<feComposite in2="hardAlpha" operator="arithmetic" k2="-1" k3="1"/>
<feColorMatrix type="matrix" values="0 0 0 0 1 0 0 0 0 1 0 0 0 0 1 0 0 0 0.55 0"/>
<feBlend mode="normal" in2="shape" result="effect1_innerShadow_200_106"/>
</filter>
<filter id="filter1_i_200_106" x="9.88159" y="156.041" width="279.228" height="189.463" filterUnits="userSpaceOnUse" color-interpolation-filters="sRGB">
<feFlood flood-opacity="0" result="BackgroundImageFix"/>
<feBlend mode="normal" in="SourceGraphic" in2="BackgroundImageFix" result="shape"/>
<feColorMatrix in="SourceAlpha" type="matrix" values="0 0 0 0 0 0 0 0 0 0 0 0 0 0 0 0 0 0 127 0" result="hardAlpha"/>
<feOffset dy="-9.95891"/>
<feGaussianBlur stdDeviation="9.95891"/>
<feComposite in2="hardAlpha" operator="arithmetic" k2="-1" k3="1"/>
<feColorMatrix type="matrix" values="0 0 0 0 0.815686 0 0 0 0 0.784314 0 0 0 0 0.956863 0 0 0 1 0"/>
<feBlend mode="normal" in2="shape" result="effect1_innerShadow_200_106"/>
</filter>
<filter id="filter2_d_200_106" x="-0.000118256" y="166" width="298.991" height="199.267" filterUnits="userSpaceOnUse" color-interpolation-filters="sRGB">
<feFlood flood-opacity="0" result="BackgroundImageFix"/>
<feColorMatrix in="SourceAlpha" type="matrix" values="0 0 0 0 0 0 0 0 0 0 0 0 0 0 0 0 0 0 127 0" result="hardAlpha"/>
<feOffset dy="9.88171"/>
<feGaussianBlur stdDeviation="4.94086"/>
<feComposite in2="hardAlpha" operator="out"/>
<feColorMatrix type="matrix" values="0 0 0 0 0 0 0 0 0 0 0 0 0 0 0 0 0 0 0.25 0"/>
<feBlend mode="normal" in2="BackgroundImageFix" result="effect1_dropShadow_200_106"/>
<feBlend mode="normal" in="SourceGraphic" in2="effect1_dropShadow_200_106" result="shape"/>
</filter>
<linearGradient id="paint0_linear_200_106" x1="256.885" y1="-13.2994" x2="203.506" y2="309.906" gradientUnits="userSpaceOnUse">
<stop stop-color="#FFEE94"/>
<stop offset="1" stop-color="#FF9900"/>
</linearGradient>
<radialGradient id="paint1_radial_200_106" cx="0" cy="0" r="1" gradientUnits="userSpaceOnUse" gradientTransform="translate(123.986 213.575) rotate(-172.463) scale(55.2917 55.2917)">
<stop offset="0.308752" stop-color="#463F6D"/>
<stop offset="1" stop-color="#463F6D"/>
</radialGradient>
<radialGradient id="paint2_radial_200_106" cx="0" cy="0" r="1" gradientUnits="userSpaceOnUse" gradientTransform="translate(113.766 225.113) rotate(-141.242) scale(30.016 27.5015)">
<stop stop-color="#463F6D"/>
<stop offset="1" stop-color="#463F6D" stop-opacity="0"/>
</radialGradient>
<linearGradient id="paint3_linear_200_106" x1="178.021" y1="335.851" x2="178.021" y2="260.93" gradientUnits="userSpaceOnUse">
<stop stop-color="#463F6D"/>
<stop offset="1" stop-color="#463F6D" stop-opacity="0"/>
</linearGradient>
<radialGradient id="paint4_radial_200_106" cx="0" cy="0" r="1" gradientUnits="userSpaceOnUse" gradientTransform="translate(76.2847 269) rotate(144.444) scale(68.2408 71.5059)">
<stop stop-color="#463F6D"/>
<stop offset="1" stop-color="#463F6D" stop-opacity="0"/>
</radialGradient>
<radialGradient id="paint5_radial_200_106" cx="0" cy="0" r="1" gradientUnits="userSpaceOnUse" gradientTransform="translate(241.375 250.431) rotate(166.654) scale(237.918 187.369)">
<stop offset="0.815422" stop-color="#463F6D" stop-opacity="0"/>
<stop offset="1" stop-color="#463F6D"/>
</radialGradient>
<radialGradient id="paint6_radial_200_106" cx="0" cy="0" r="1" gradientUnits="userSpaceOnUse" gradientTransform="translate(46.2244 355.657) rotate(-50.5724) scale(84.7138 116.908)">
<stop stop-color="#473C78"/>
<stop offset="1" stop-color="#473C78" stop-opacity="0"/>
</radialGradient>
<linearGradient id="paint7_linear_200_106" x1="216.604" y1="364.149" x2="217.315" y2="301.596" gradientUnits="userSpaceOnUse">
<stop stop-color="#463F6D"/>
<stop offset="1" stop-color="#453E66" stop-opacity="0.45"/>
</linearGradient>
</defs>
</svg>
