<svg width="313" height="196" viewBox="0 0 313 196" fill="none" xmlns="http://www.w3.org/2000/svg">
<path d="M14.1619 17.54C15.4541 23.1599 18.2147 28.3361 22.1619 32.54C24.1775 27.1394 24.7227 21.3004 23.7419 15.62C22.4574 9.99723 19.6957 4.8191 15.7419 0.619995C13.7225 6.01972 13.1771 11.8597 14.1619 17.54Z" fill="#56AF96"/>
<path d="M34.7119 20.81C32.8319 29.63 25.5419 35.81 25.5419 35.81C25.5419 35.81 21.3119 27.67 23.2019 18.81C25.0919 9.95 32.3719 3.81 32.3719 3.81C32.3719 3.81 36.6019 11.99 34.7119 20.81Z" fill="#6FDCBF"/>
<path d="M4.59185 34.57C9.97185 46.73 19.5118 60.82 19.5118 60.82C19.5118 60.82 20.3318 41.2 14.9518 29.04C11.5434 21.5502 6.4347 14.9589 0.0318482 9.78998C-0.247033 18.2817 1.30831 26.7338 4.59185 34.57Z" fill="#6FDCBF"/>
<path d="M42.9618 34.21C38.3118 46.71 29.1618 61.47 29.1618 61.47C29.1618 61.47 27.6118 41.93 32.2618 29.47C35.2385 21.7229 39.9607 14.7662 46.0619 9.14001C46.8336 17.6222 45.7764 26.1713 42.9618 34.21Z" fill="#6FDCBF"/>
<path d="M12.0519 31.64C14.7119 42.85 21.6319 57.57 21.6319 57.57C21.6319 57.57 24.2519 40.12 21.6319 28.91C19.899 21.9623 16.6209 15.4951 12.0419 9.98999C10.4994 17.1246 10.5029 24.5068 12.0519 31.64Z" fill="#6FDCBF"/>
<path d="M11.8919 35.12C14.1519 44.67 20.7619 58.04 20.7619 58.04C20.7619 58.04 23.6919 41.94 21.4319 32.39C19.8967 26.4075 16.8412 20.9234 12.5619 16.47C10.8253 22.5397 10.5954 28.9413 11.8919 35.12Z" fill="#52B292"/>
<path d="M23.0319 33.93C21.8019 45.57 27.0919 63.82 27.0919 63.82C27.0919 63.82 34.4019 47.19 35.6419 35.55C36.8819 23.91 31.5819 13.67 31.5819 13.67C31.5819 13.67 24.2819 22.29 23.0319 33.93Z" fill="#56AF96"/>
<path d="M18.6718 44.12C18.8285 49.883 20.5126 55.501 23.5518 60.4C26.5968 55.503 28.2845 49.8843 28.4418 44.12C28.4418 35.12 23.5518 20.84 23.5518 20.84C23.5518 20.84 18.6718 35.13 18.6718 44.12Z" fill="#A4D3BA"/>
<path d="M34.7819 49.89C34.6919 49.08 11.5419 45.69 11.6319 46.52L14.4519 71.69C14.4703 71.8604 14.5525 72.0175 14.6819 72.13C14.7365 72.2089 14.8098 72.2731 14.8953 72.3167C14.9809 72.3604 15.0759 72.3821 15.1719 72.38H33.4119C33.8619 72.38 34.0519 72.28 34.1719 71.97C34.262 71.7041 34.3223 71.4291 34.3519 71.15C35.0585 64.0833 35.6319 56.9966 36.0719 49.89C36.1619 49.06 34.8319 49.07 34.7819 49.89Z" fill="#AD998A"/>
<path d="M38.7018 45.58C38.2018 45.04 37.1618 44.94 35.1618 44.94H13.3718C11.3718 44.94 10.3718 45 9.90184 45.51C9.43184 46.02 9.49184 46.63 9.54184 47.74V50.03C9.54184 51.58 9.54184 52.43 10.0418 52.95C10.5418 53.47 11.6018 53.53 13.3418 53.53H35.1618C37.1618 53.53 38.0918 53.53 38.6018 52.98C39.1118 52.43 39.0218 51.85 38.9818 50.63V49.24C38.9818 48.71 38.9818 48.1 39.0418 47.65C39.0918 46.68 39.1618 46.04 38.7018 45.58Z" fill="#C1AB9D"/>
<path opacity="0.49" d="M11.0918 46.05C10.7792 47.1513 10.6941 48.3047 10.8418 49.44C10.9118 49.96 11.7318 49.97 11.6618 49.44C11.5195 48.376 11.5943 47.2942 11.8818 46.26C11.9004 46.1585 11.88 46.0538 11.8248 45.9667C11.7695 45.8796 11.6835 45.8166 11.5838 45.7901C11.4842 45.7636 11.3782 45.7756 11.287 45.8238C11.1958 45.872 11.1261 45.9527 11.0918 46.05ZM11.6318 51.09C11.7406 51.09 11.8449 51.0468 11.9217 50.9699C11.9986 50.893 12.0418 50.7887 12.0418 50.68C12.0418 50.5713 11.9986 50.467 11.9217 50.3901C11.8449 50.3132 11.7406 50.27 11.6318 50.27C11.5231 50.27 11.4188 50.3132 11.3419 50.3901C11.265 50.467 11.2218 50.5713 11.2218 50.68C11.2218 50.7887 11.265 50.893 11.3419 50.9699C11.4188 51.0468 11.5231 51.09 11.6318 51.09ZM32.4718 59.69C32.3018 60.43 32.1018 61.54 33.0418 61.85C33.9818 62.16 34.4718 61.36 34.5218 60.62C34.5875 60.2387 34.525 59.8465 34.3441 59.5045C34.1631 59.1625 33.874 58.8902 33.5218 58.73C33.3081 58.6862 33.0861 58.7076 32.8846 58.7914C32.6832 58.8752 32.5115 59.0176 32.3918 59.2C32.3117 59.3305 32.251 59.472 32.2118 59.62C32.1518 59.87 32.2118 60.09 32.2118 60.33C32.167 60.5389 32.2015 60.7571 32.3087 60.942C32.416 61.1269 32.5882 61.2652 32.7918 61.33C33.0012 61.3823 33.2227 61.351 33.4094 61.2427C33.5961 61.1344 33.7333 60.9577 33.7918 60.75C33.8022 60.5801 33.8022 60.4098 33.7918 60.24V60.05C33.7918 59.8 33.6818 59.88 33.4818 60.31H33.0418C32.8718 60.25 32.7618 60.07 32.8818 60.39C33.0018 60.71 32.5618 60.39 33.1518 60.27H33.5918C33.8318 60.32 33.9218 61.1 33.9918 60.52C34.004 60.3842 34.0308 60.25 34.0718 60.12C34.3118 59.12 32.7218 58.65 32.4818 59.68L32.4718 59.69ZM34.0618 58.44C34.2793 58.44 34.4879 58.3536 34.6417 58.1998C34.7954 58.046 34.8818 57.8375 34.8818 57.62C34.8818 57.4025 34.7954 57.1939 34.6417 57.0402C34.4879 56.8864 34.2793 56.8 34.0618 56.8C33.8444 56.8 33.6358 56.8864 33.482 57.0402C33.3282 57.1939 33.2418 57.4025 33.2418 57.62C33.2418 57.8375 33.3282 58.046 33.482 58.1998C33.6358 58.3536 33.8444 58.44 34.0618 58.44ZM33.7918 63.65C34.0093 63.65 34.2179 63.5636 34.3717 63.4098C34.5254 63.256 34.6118 63.0475 34.6118 62.83C34.6118 62.6125 34.5254 62.4039 34.3717 62.2501C34.2179 62.0964 34.0093 62.01 33.7918 62.01C33.5744 62.01 33.3658 62.0964 33.212 62.2501C33.0582 62.4039 32.9718 62.6125 32.9718 62.83C32.9718 63.0475 33.0582 63.256 33.212 63.4098C33.3658 63.5636 33.5744 63.65 33.7918 63.65Z" fill="white"/>
<path d="M61.8418 72.6399L71.4619 38.1299C71.5252 37.9388 71.5466 37.7362 71.5245 37.5361C71.5025 37.3359 71.4375 37.1429 71.334 36.9701C71.2306 36.7973 71.091 36.6489 70.925 36.535C70.7589 36.4211 70.5703 36.3443 70.3718 36.3099L63.9318 34.3099C63.7482 34.2279 63.5489 34.1866 63.3478 34.1891C63.1466 34.1915 62.9484 34.2376 62.7668 34.3241C62.5852 34.4106 62.4246 34.5355 62.2959 34.6902C62.1673 34.8449 62.0738 35.0256 62.0218 35.2199L52.4018 69.7399C52.363 69.8487 52.3685 69.9684 52.4171 70.0732C52.4658 70.178 52.5537 70.2594 52.6618 70.2999C52.717 70.3133 52.7743 70.3156 52.8303 70.3067C52.8864 70.2979 52.9402 70.278 52.9885 70.2482C53.0368 70.2185 53.0788 70.1795 53.112 70.1334C53.1452 70.0874 53.1689 70.0352 53.1818 69.9799L53.3018 69.6099L61.1618 72.0399" fill="#6FDCBF"/>
<path d="M64.1619 35.69C63.8105 35.6053 63.44 35.6629 63.131 35.8502C62.8219 36.0375 62.5994 36.3393 62.5119 36.69L53.3719 69.6399L57.1619 70.8299L66.7219 36.4999L64.1619 35.69Z" fill="#D2D8DB"/>
<path d="M61.1618 72.04L70.2918 39.09C70.4156 38.7503 70.4011 38.3756 70.2515 38.0465C70.1019 37.7174 69.8291 37.4601 69.4918 37.33L66.7518 36.5L57.1618 70.83L61.1618 72.04Z" fill="#E2E6E8"/>
<path d="M63.5919 51.48C63.5919 51.48 65.6819 41.56 67.7919 37.48C67.2419 40.02 67.1619 41.21 63.5919 51.48Z" fill="#A3AEB2"/>
<path d="M65.6918 44.18L68.7418 45.11L68.5218 43.19L69.8818 41.76L66.7218 40.8L65.6918 44.18Z" fill="#AF91DB"/>
<path d="M82.2518 72.98V23.22H93.4618V72.98" fill="#A3D9E8"/>
<path d="M93.4618 29.54H82.2618V31.33H93.4618V29.54Z" fill="#6FDCBF"/>
<path d="M93.4618 32.14H82.2618V33.93H93.4618V32.14Z" fill="#6FDCBF"/>
<path d="M71.5418 72.9799V27.58H82.1318V72.9799" fill="#DD859C"/>
<path opacity="0.54" d="M82.1318 37.5H71.5418V39.12H82.1318V37.5Z" fill="white"/>
<path opacity="0.54" d="M82.1318 39.85H71.5418V41.47H82.1318V39.85Z" fill="white"/>
<path fill-rule="evenodd" clip-rule="evenodd" d="M285.432 185.15H270.942C269.042 178.6 287.282 178.42 285.432 185.15Z" fill="#BABCBE"/>
<path fill-rule="evenodd" clip-rule="evenodd" d="M270.972 183.21C272.432 179.1 283.842 178.85 285.392 183.21C283.11 184.174 280.659 184.67 278.182 184.67C275.705 184.67 273.253 184.174 270.972 183.21Z" fill="#E5E6E7"/>
<path fill-rule="evenodd" clip-rule="evenodd" d="M278.882 180.29C278.882 180.314 278.872 180.337 278.855 180.354C278.839 180.37 278.816 180.38 278.792 180.38H277.572C277.548 180.38 277.525 180.37 277.508 180.354C277.491 180.337 277.482 180.314 277.482 180.29V179.92C277.482 179.81 277.742 179.72 278.052 179.72H278.312C278.622 179.72 278.882 179.81 278.882 179.92V180.29Z" fill="#424243"/>
<path d="M290.642 185.11H265.722C265.556 185.11 265.422 185.244 265.422 185.41V185.62C265.422 185.786 265.556 185.92 265.722 185.92H290.642C290.808 185.92 290.942 185.786 290.942 185.62V185.41C290.942 185.244 290.808 185.11 290.642 185.11Z" fill="#B2B2D8"/>
<path d="M307.992 185.51H35.9918C33.2304 185.51 30.9918 187.749 30.9918 190.51C30.9918 193.271 33.2304 195.51 35.9918 195.51H307.992C310.753 195.51 312.992 193.271 312.992 190.51C312.992 187.749 310.753 185.51 307.992 185.51Z" fill="#404040"/>
<path d="M83.9619 167.21C83.9619 167.441 83.8702 167.662 83.707 167.825C83.5439 167.988 83.3226 168.08 83.0919 168.08C82.8611 168.08 82.6398 167.988 82.4767 167.825C82.3135 167.662 82.2219 167.441 82.2219 167.21C82.1982 166.897 82.106 166.593 81.9519 166.32C81.7328 165.888 81.4223 165.509 81.0419 165.21C80.7125 164.946 80.3037 164.802 79.8819 164.8C79.6305 164.815 79.3851 164.883 79.1619 165L79.0019 165.09C78.7272 165.268 78.4951 165.505 78.3223 165.783C78.1495 166.062 78.0401 166.375 78.0019 166.7C77.9008 167.655 78.1038 168.617 78.5819 169.45C78.6619 169.61 78.7619 169.79 78.8719 169.97C79.6547 171.073 80.5643 172.079 81.5819 172.97C83.3719 174.69 85.2319 176.48 85.7819 178.97C85.8195 179.085 85.8327 179.207 85.8205 179.328C85.8084 179.448 85.7712 179.565 85.7113 179.67C85.6514 179.776 85.5702 179.867 85.4728 179.939C85.3754 180.012 85.264 180.063 85.1458 180.089C85.0275 180.116 84.905 180.117 84.7862 180.094C84.6673 180.07 84.5546 180.022 84.4554 179.953C84.3562 179.883 84.2726 179.793 84.21 179.69C84.1474 179.586 84.1071 179.47 84.0919 179.35C83.6519 177.4 81.9819 175.8 80.3819 174.25C79.2444 173.253 78.2365 172.118 77.3819 170.87C77.2619 170.67 77.1419 170.46 77.0319 170.24C76.3855 169.078 76.123 167.741 76.2819 166.42C76.3649 165.842 76.5735 165.289 76.8932 164.8C77.2128 164.311 77.6356 163.898 78.1319 163.59L78.4119 163.44C78.8643 163.205 79.3626 163.072 79.8719 163.05C80.6862 163.042 81.4794 163.309 82.1219 163.81C82.7139 164.267 83.1957 164.852 83.5319 165.52C83.7977 166.045 83.9446 166.622 83.9619 167.21Z" fill="#CC7D96"/>
<path fill-rule="evenodd" clip-rule="evenodd" d="M100.702 162.1C100.782 166.79 99.6319 181.52 95.8619 185.32H87.7819C84.0119 181.52 82.8619 166.79 82.9419 162.1H100.702Z" fill="#DD859C"/>
<path d="M231.292 182.93L228.822 167.19H198.372L195.902 182.93H231.292Z" fill="#D2CFD6"/>
<path d="M117.752 169.01C116.876 169.007 116.036 168.657 115.418 168.037C114.799 167.417 114.452 166.576 114.452 165.7V146.94H312.742V165.7C312.739 166.577 312.39 167.417 311.769 168.038C311.149 168.658 310.309 169.007 309.432 169.01H117.752Z" fill="white"/>
<path d="M312.492 147.21V165.72C312.492 166.532 312.169 167.31 311.596 167.884C311.022 168.458 310.243 168.78 309.432 168.78H117.752C116.951 168.764 116.188 168.435 115.627 167.863C115.066 167.291 114.752 166.521 114.752 165.72V147.21H312.492ZM312.992 146.71H114.162V165.71C114.162 166.652 114.536 167.556 115.201 168.224C115.866 168.891 116.769 169.267 117.712 169.27H309.432C310.376 169.27 311.282 168.895 311.949 168.227C312.617 167.56 312.992 166.654 312.992 165.71V146.71Z" fill="#404040"/>
<path d="M307.522 39.45H119.672C118.956 39.4474 118.247 39.5857 117.585 39.8572C116.922 40.1286 116.32 40.5279 115.812 41.0321C115.304 41.5363 114.901 42.1357 114.624 42.7959C114.348 43.4561 114.204 44.1643 114.202 44.88V148.08H312.992V44.88C312.989 44.1643 312.846 43.4561 312.569 42.7959C312.293 42.1357 311.889 41.5363 311.381 41.0321C310.874 40.5279 310.271 40.1286 309.609 39.8572C308.947 39.5857 308.238 39.4474 307.522 39.45Z" fill="#404040"/>
<path d="M305.842 45.9399H121.552V141.68H305.842V45.9399Z" fill="#E3D1E5"/>
<path d="M245.732 182.93H181.462V185.29H245.732V182.93Z" fill="#EAEAEA"/>
<path d="M213.592 162.65C215.713 162.65 217.432 160.944 217.432 158.84C217.432 156.736 215.713 155.03 213.592 155.03C211.471 155.03 209.752 156.736 209.752 158.84C209.752 160.944 211.471 162.65 213.592 162.65Z" fill="#333333"/>
<mask id="mask0_104_165" style="mask-type:luminance" maskUnits="userSpaceOnUse" x="121" y="45" width="185" height="97">
<path d="M305.842 45.9399H121.552V141.68H305.842V45.9399Z" fill="white"/>
</mask>
<g mask="url(#mask0_104_165)">
<path d="M305.912 45.9399H186.362V141.68H305.912V45.9399Z" fill="#565266"/>
<path d="M305.912 45.9399H186.362V52.3899H305.912V45.9399Z" fill="#B0BAEA"/>
<path d="M192.142 50.54C192.915 50.54 193.542 49.9221 193.542 49.16C193.542 48.3978 192.915 47.78 192.142 47.78C191.369 47.78 190.742 48.3978 190.742 49.16C190.742 49.9221 191.369 50.54 192.142 50.54Z" fill="#E84D4D"/>
<path d="M197.352 50.54C198.125 50.54 198.752 49.9221 198.752 49.16C198.752 48.3978 198.125 47.78 197.352 47.78C196.579 47.78 195.952 48.3978 195.952 49.16C195.952 49.9221 196.579 50.54 197.352 50.54Z" fill="#F2DD77"/>
<path d="M202.302 50.54C203.075 50.54 203.702 49.9221 203.702 49.16C203.702 48.3978 203.075 47.78 202.302 47.78C201.529 47.78 200.902 48.3978 200.902 49.16C200.902 49.9221 201.529 50.54 202.302 50.54Z" fill="#4EB785"/>
<path d="M193.242 57.82C194.412 57.75 194.732 57.66 194.732 57.45C194.732 57.24 194.402 57.02 193.492 56.9V56.56L194.602 55.7H193.302V55.02H195.352L195.412 55.7L194.352 56.5C195.182 56.68 195.502 57.01 195.502 57.4C195.502 58 194.832 58.45 193.292 58.53L193.242 57.82ZM196.292 58.45L196.222 57.84C197.222 57.14 197.722 56.68 197.722 56.23C197.722 55.78 197.402 55.73 196.322 55.7L196.392 54.98C198.022 54.98 198.502 55.44 198.502 55.98C198.502 56.52 198.002 57.12 197.182 57.74H198.572V58.41L196.292 58.45ZM193.242 64.47C194.412 64.4 194.732 64.3 194.732 64.09C194.732 63.88 194.402 63.67 193.492 63.55V63.21L194.602 62.34H193.302V61.67H195.352L195.412 62.34L194.352 63.15C195.182 63.32 195.502 63.66 195.502 64.04C195.502 64.65 194.832 65.1 193.292 65.18L193.242 64.47ZM196.292 65.1L196.222 64.49C197.222 63.78 197.722 63.33 197.722 62.88C197.722 62.43 197.402 62.38 196.322 62.35L196.392 61.62C198.022 61.62 198.502 62.09 198.502 62.62C198.502 63.15 198.002 63.77 197.182 64.39H198.572V65.06L196.292 65.1ZM193.242 71.12C194.412 71.05 194.732 70.95 194.732 70.74C194.732 70.53 194.402 70.32 193.492 70.2V69.86L194.602 68.99H193.302V68.32H195.352L195.412 68.99L194.352 69.8C195.182 69.97 195.502 70.31 195.502 70.69C195.502 71.3 194.832 71.75 193.292 71.83L193.242 71.12ZM198.392 71.21V71.8H197.662V71.21H196.222C196.211 70.2399 196.322 69.2723 196.552 68.33L197.392 68.38L196.842 70.54H197.662V69.41L198.392 69.33V70.49H198.762L198.692 71.16L198.392 71.21ZM193.242 77.77C194.412 77.69 194.732 77.6 194.732 77.39C194.732 77.18 194.402 76.96 193.492 76.85V76.5L194.602 75.64H193.302V74.96H195.352L195.412 75.64L194.352 76.45C195.182 76.62 195.502 76.96 195.502 77.34C195.502 77.94 194.832 78.4 193.292 78.47L193.242 77.77ZM196.332 78.48V77.76C197.502 77.67 197.862 77.56 197.862 77.27C197.862 76.98 197.472 76.85 196.422 76.73L196.532 74.96H198.532L198.472 75.65H197.162V76.24C198.272 76.41 198.602 76.8 198.602 77.24C198.562 77.87 197.902 78.39 196.332 78.48ZM193.242 84.41C194.412 84.34 194.732 84.25 194.732 84.04C194.732 83.83 194.402 83.61 193.492 83.49V83.15L194.602 82.29H193.302V81.61H195.352L195.412 82.29L194.352 83.1C195.182 83.27 195.502 83.61 195.502 83.99C195.502 84.59 194.832 85.04 193.292 85.12L193.242 84.41ZM196.162 83.76C196.162 82.76 196.722 82.03 197.992 81.49L198.312 82.14C197.472 82.45 197.122 82.75 196.982 83.14C197.762 82.69 198.652 83.06 198.652 83.94C198.65 84.1102 198.614 84.2783 198.545 84.4339C198.476 84.5896 198.376 84.7295 198.251 84.8451C198.126 84.9607 197.978 85.0495 197.818 85.1061C197.657 85.1627 197.487 85.186 197.317 85.1744C197.147 85.1628 196.981 85.1166 196.83 85.0387C196.678 84.9608 196.545 84.8527 196.436 84.7212C196.328 84.5897 196.248 84.4375 196.201 84.2739C196.154 84.1104 196.14 83.9389 196.162 83.77V83.76ZM197.922 83.99C197.922 83.51 197.512 83.32 196.922 83.59V83.68C196.922 84.27 197.172 84.51 197.482 84.51C197.792 84.51 197.922 84.34 197.922 83.99ZM193.242 91.06C194.412 90.99 194.732 90.9 194.732 90.69C194.732 90.48 194.402 90.26 193.492 90.14V89.8L194.602 88.94H193.302V88.26H195.352L195.412 88.94L194.352 89.74C195.182 89.92 195.502 90.25 195.502 90.64C195.502 91.24 194.832 91.69 193.292 91.77L193.242 91.06ZM196.552 91.66C196.889 90.7243 197.328 89.8289 197.862 88.99H196.262L196.322 88.29H198.652V88.97C198.122 89.8552 197.686 90.7937 197.352 91.77L196.552 91.66ZM193.242 97.71C194.412 97.64 194.732 97.54 194.732 97.33C194.732 97.12 194.402 96.91 193.492 96.79V96.45L194.602 95.58H193.302V94.91H195.352L195.412 95.58L194.352 96.39C195.182 96.56 195.502 96.9 195.502 97.28C195.502 97.89 194.832 98.34 193.292 98.42L193.242 97.71ZM196.162 97.54C196.345 97.4831 196.506 97.3703 196.622 97.2175C196.738 97.0648 196.803 96.8796 196.808 96.6879C196.814 96.4961 196.759 96.3075 196.652 96.1483C196.546 95.9891 196.391 95.8673 196.212 95.8C196.212 95.32 196.632 94.8 197.432 94.8C198.062 94.8 198.562 95.13 198.562 95.64C198.55 95.8259 198.487 96.005 198.379 96.1569C198.272 96.3089 198.124 96.4277 197.952 96.5C198.312 96.71 198.632 96.97 198.632 97.39C198.632 97.81 198.142 98.39 197.332 98.39C196.522 98.39 196.162 98.07 196.162 97.54ZM197.872 97.54C197.872 97.29 197.552 97.1 197.192 96.9C197.107 96.9584 197.036 97.0358 196.986 97.126C196.936 97.2162 196.907 97.3168 196.902 97.42C196.902 97.67 197.052 97.86 197.402 97.86C197.752 97.86 197.882 97.69 197.882 97.51L197.872 97.54ZM197.552 96.33C197.63 96.2756 197.695 96.2042 197.742 96.121C197.789 96.0379 197.816 95.9452 197.822 95.85C197.822 95.62 197.702 95.45 197.382 95.45C197.062 95.45 196.962 95.59 196.962 95.74C196.962 95.89 197.242 96.13 197.562 96.3L197.552 96.33ZM193.242 104.36C194.412 104.29 194.732 104.19 194.732 103.98C194.732 103.77 194.402 103.55 193.492 103.44V103.09L194.602 102.23H193.302V101.56H195.352L195.412 102.23L194.352 103.04C195.182 103.21 195.502 103.55 195.502 103.93C195.502 104.53 194.832 104.99 193.292 105.07L193.242 104.36ZM196.492 104.46C197.332 104.14 197.682 103.85 197.822 103.46C197.042 103.9 196.152 103.54 196.152 102.66C196.154 102.49 196.19 102.322 196.259 102.166C196.328 102.01 196.428 101.87 196.553 101.755C196.678 101.639 196.826 101.55 196.986 101.494C197.147 101.437 197.317 101.414 197.487 101.426C197.657 101.437 197.822 101.483 197.974 101.561C198.125 101.639 198.259 101.747 198.367 101.879C198.475 102.01 198.556 102.162 198.603 102.326C198.65 102.49 198.663 102.661 198.642 102.83C198.642 103.83 198.082 104.56 196.812 105.1L196.492 104.46ZM197.902 103.01V102.92C197.902 102.33 197.652 102.09 197.342 102.09C197.032 102.09 196.882 102.26 196.882 102.6C196.882 103.09 197.292 103.27 197.902 103.01ZM195.322 111.05V111.64H194.592V111.05H193.162C193.151 110.08 193.262 109.112 193.492 108.17L194.332 108.22L193.782 110.38H194.602V109.3L195.332 109.22V110.38H195.692L195.632 111.05H195.322ZM196.102 109.98C196.102 108.87 196.612 108.13 197.442 108.13C198.272 108.13 198.702 108.78 198.702 109.86C198.702 110.94 198.192 111.71 197.352 111.71C196.512 111.71 196.102 111.06 196.102 109.98ZM196.852 109.91L197.902 109.37C197.822 108.99 197.652 108.76 197.392 108.76C197.132 108.76 196.852 109.14 196.852 109.84V109.91ZM197.952 110L196.952 110.53C197.032 110.9 197.192 111.12 197.452 111.12C197.712 111.12 197.952 110.7 197.952 110ZM195.322 117.7V118.28H194.592V117.7H193.162C193.15 116.73 193.261 115.762 193.492 114.82L194.332 114.87L193.782 117.03H194.602V115.95L195.332 115.87V117.03H195.692L195.632 117.7H195.322ZM196.252 118.28V117.63H197.162V115.87H196.352V115.3L197.162 115.21V114.8L197.922 114.74V117.62H198.742L198.682 118.27L196.252 118.28ZM195.322 124.34V124.93H194.592V124.34H193.162C193.15 123.373 193.261 122.409 193.492 121.47L194.332 121.52L193.782 123.67H194.602V122.6L195.332 122.52V123.67H195.692L195.632 124.34H195.322ZM196.292 124.93L196.222 124.32C197.222 123.61 197.722 123.16 197.722 122.71C197.722 122.26 197.402 122.21 196.322 122.18L196.392 121.45C198.022 121.45 198.502 121.92 198.502 122.5C198.502 123.08 198.002 123.64 197.182 124.26H198.572V124.93H196.292ZM195.322 130.99V131.58H194.592V130.99H193.162C193.151 130.02 193.262 129.052 193.492 128.11L194.332 128.16L193.782 130.32H194.602V129.21L195.332 129.14V130.29H195.692L195.632 130.96L195.322 130.99ZM196.312 130.95C197.482 130.88 197.802 130.78 197.802 130.57C197.802 130.36 197.472 130.15 196.562 130.03V129.69L197.672 128.82H196.372V128.15H198.372L198.432 128.82L197.372 129.63C198.202 129.8 198.522 130.14 198.522 130.52C198.522 131.13 197.852 131.58 196.312 131.66V130.95ZM195.322 137.64V138.21H194.592V137.62H193.162C193.151 136.65 193.262 135.682 193.492 134.74L194.332 134.79L193.782 136.95H194.602V135.87L195.332 135.79V136.95H195.692L195.632 137.62L195.322 137.64ZM198.392 137.64V138.21H197.662V137.62H196.222C196.211 136.65 196.322 135.682 196.552 134.74L197.392 134.79L196.842 136.95H197.662V135.87L198.392 135.79V136.95H198.762L198.692 137.62L198.392 137.64Z" fill="#706D84"/>
<mask id="mask1_104_165" style="mask-type:luminance" maskUnits="userSpaceOnUse" x="127" y="53" width="53" height="83">
<path d="M179.522 53.4099H127.142V135.25H179.522V53.4099Z" fill="white"/>
</mask>
<g mask="url(#mask1_104_165)">
<path d="M175.942 48.6199H130.612C128.64 48.6199 127.042 50.2183 127.042 52.1899V287.18C127.042 289.152 128.64 290.75 130.612 290.75H175.942C177.914 290.75 179.512 289.152 179.512 287.18V52.1899C179.512 50.2183 177.914 48.6199 175.942 48.6199Z" fill="#F0F0F2"/>
<path d="M134.832 62.0199H167.182" stroke="#DD859C" stroke-width="1.2" stroke-miterlimit="10" stroke-linecap="round"/>
<path d="M134.832 67.3099H172.932" stroke="#DD859C" stroke-width="1.2" stroke-miterlimit="10" stroke-linecap="round"/>
<path d="M134.832 72.6099H167.182" stroke="#DD859C" stroke-width="1.2" stroke-miterlimit="10" stroke-linecap="round"/>
<path d="M170.362 80.8799H136.212C134.434 80.8799 132.992 82.3216 132.992 84.0999V105.81C132.992 107.588 134.434 109.03 136.212 109.03H170.362C172.14 109.03 173.582 107.588 173.582 105.81V84.0999C173.582 82.3216 172.14 80.8799 170.362 80.8799Z" fill="#F2C5C2"/>
<g style="mix-blend-mode:overlay" opacity="0.48">
<path d="M147.732 89.4799C147.778 90.5922 147.49 91.6928 146.905 92.6401C146.321 93.5875 145.466 94.3384 144.451 94.7962C143.437 95.254 142.308 95.3979 141.211 95.2092C140.114 95.0206 139.098 94.5082 138.295 93.7377C137.491 92.9673 136.937 91.9741 136.702 90.8859C136.467 89.7977 136.564 88.6642 136.978 87.6311C137.393 86.598 138.107 85.7126 139.029 85.0887C139.951 84.4648 141.039 84.1309 142.152 84.1299C142.87 84.114 143.584 84.2399 144.253 84.5002C144.922 84.7606 145.533 85.1504 146.052 85.6474C146.57 86.1444 146.985 86.7387 147.273 87.3963C147.562 88.054 147.718 88.762 147.732 89.4799Z" fill="white"/>
</g>
<path opacity="0.68" d="M137.962 104.52H154.722" stroke="white" stroke-width="1.2" stroke-miterlimit="10" stroke-linecap="round"/>
<path opacity="0.68" d="M137.962 99.8999H162.482" stroke="white" stroke-width="1.2" stroke-miterlimit="10" stroke-linecap="round"/>
<path d="M167.342 113.62H136.332C134.487 113.62 132.992 115.115 132.992 116.96V159.6C132.992 161.445 134.487 162.94 136.332 162.94H167.342C169.187 162.94 170.682 161.445 170.682 159.6V116.96C170.682 115.115 169.187 113.62 167.342 113.62Z" fill="#BDC0F4"/>
<path opacity="0.81" d="M139.282 133.98H156.212" stroke="white" stroke-width="1.2" stroke-miterlimit="10" stroke-linecap="round"/>
<path opacity="0.81" d="M139.282 129.12H161.622" stroke="white" stroke-width="1.2" stroke-miterlimit="10" stroke-linecap="round"/>
<path opacity="0.81" d="M139.282 123.83H165.582" stroke="white" stroke-width="1.2" stroke-miterlimit="10" stroke-linecap="round"/>
<path opacity="0.81" d="M139.282 118.53H161.622" stroke="white" stroke-width="1.2" stroke-miterlimit="10" stroke-linecap="round"/>
</g>
</g>
<path d="M179.522 49.16H127.142V53.41H179.522V49.16Z" fill="#DDDDDD"/>
<path d="M130.072 52.21C130.585 52.21 131.002 51.7981 131.002 51.29C131.002 50.7819 130.585 50.37 130.072 50.37C129.558 50.37 129.142 50.7819 129.142 51.29C129.142 51.7981 129.558 52.21 130.072 52.21Z" fill="#AFAFAF"/>
<path d="M133.542 52.21C134.056 52.21 134.472 51.7981 134.472 51.29C134.472 50.7819 134.056 50.37 133.542 50.37C133.028 50.37 132.612 50.7819 132.612 51.29C132.612 51.7981 133.028 52.21 133.542 52.21Z" fill="#EAEAEA"/>
<path d="M136.852 52.21C137.366 52.21 137.782 51.7981 137.782 51.29C137.782 50.7819 137.366 50.37 136.852 50.37C136.338 50.37 135.922 50.7819 135.922 51.29C135.922 51.7981 136.338 52.21 136.852 52.21Z" fill="#AFAFAF"/>
<path d="M179.512 135.26H127.042V138.11H179.512V135.26Z" fill="#EAEAEA"/>
<path d="M179.522 53.41H175.682V135.25H179.522V53.41Z" fill="white"/>
<path d="M177.782 54.98H177.422C176.859 54.98 176.402 55.4366 176.402 56V76.17C176.402 76.7333 176.859 77.19 177.422 77.19H177.782C178.345 77.19 178.802 76.7333 178.802 76.17V56C178.802 55.4366 178.345 54.98 177.782 54.98Z" fill="#DDDDDD"/>
<path d="M103.152 72.02H3.32178V76.25H103.152V72.02Z" fill="#404040"/>
</svg>
