<svg width="205" height="214" viewBox="0 0 205 214" fill="none" xmlns="http://www.w3.org/2000/svg">
<path d="M83.6353 9.02199C95.2245 -4.02308 110.982 -1.94687 121.063 9.02199L127.212 16.1409C129.341 18.4573 132.423 19.6585 135.557 19.3945L146.489 16.1409C161.389 12.9468 174.93 24.0629 174.93 41.3283V47.8323C175.245 51.3829 178.347 53.7899 181.55 55.354L191.426 59.4808C205.713 66.458 209.284 83.0138 198.876 96.9089L195.919 100.811C193.267 104.396 193.813 109.102 196.451 112.696L199.408 116.836C210.169 130.08 204.102 148.251 188.901 154.6L180.4 158.15C177.196 159.488 175.942 161.784 175.344 165.202L174.752 176.317C172.682 191.573 159.133 198.463 148.263 196.925L135.313 193.465C132.203 193.025 128.336 194.057 126.267 197.308L121.595 203.694C110.007 216.762 94.3649 214.589 86.4735 206.947L77.8566 196.51C75.6003 194.325 72.7557 192.46 69.3511 193.745L56.318 197.308C45.5583 198.832 32.8885 190.561 30.8606 179.884L29.3556 164.433C28.7447 161.217 26.6241 158.491 23.657 157.109L14.5145 153.968C0.766258 147.561 -3.83852 132.051 4.05532 119.098L9.20833 111.973C11.2781 108.577 11.1798 104.286 8.95643 100.989L5.1131 95.5489C-5.76636 80.0574 1.75561 62.742 17.8772 57.5509L21.4328 56.4061C25.3573 55.1425 29.1482 51.8833 29.4742 47.7734L30.266 37.7963C31.5513 21.6018 46.3288 12.3093 61.8717 17.0343L66.902 18.5635C71.7506 20.4557 75.5492 18.8444 78.1955 15.962L83.6353 9.02199Z" fill="url(#paint0_linear_92_121)"/>
<path d="M83.6353 9.02199C95.2245 -4.02308 110.982 -1.94687 121.063 9.02199L127.212 16.1409C129.341 18.4573 132.423 19.6585 135.557 19.3945L146.489 16.1409C161.389 12.9468 174.93 24.0629 174.93 41.3283V47.8323C175.245 51.3829 178.347 53.7899 181.55 55.354L191.426 59.4808C205.713 66.458 209.284 83.0138 198.876 96.9089L195.919 100.811C193.267 104.396 193.813 109.102 196.451 112.696L199.408 116.836C210.169 130.08 204.102 148.251 188.901 154.6L180.4 158.15C177.196 159.488 175.942 161.784 175.344 165.202L174.752 176.317C172.682 191.573 159.133 198.463 148.263 196.925L135.313 193.465C132.203 193.025 128.336 194.057 126.267 197.308L121.595 203.694C110.007 216.762 94.3649 214.589 86.4735 206.947L77.8566 196.51C75.6003 194.325 72.7557 192.46 69.3511 193.745L56.318 197.308C45.5583 198.832 32.8885 190.561 30.8606 179.884L29.3556 164.433C28.7447 161.217 26.6241 158.491 23.657 157.109L14.5145 153.968C0.766258 147.561 -3.83852 132.051 4.05532 119.098L9.20833 111.973C11.2781 108.577 11.1798 104.286 8.95643 100.989L5.1131 95.5489C-5.76636 80.0574 1.75561 62.742 17.8772 57.5509L21.4328 56.4061C25.3573 55.1425 29.1482 51.8833 29.4742 47.7734L30.266 37.7963C31.5513 21.6018 46.3288 12.3093 61.8717 17.0343L66.902 18.5635C71.7506 20.4557 75.5492 18.8444 78.1955 15.962L83.6353 9.02199Z" fill="url(#paint1_radial_92_121)"/>
<path d="M83.6353 9.02199C95.2245 -4.02308 110.982 -1.94687 121.063 9.02199L127.212 16.1409C129.341 18.4573 132.423 19.6585 135.557 19.3945L146.489 16.1409C161.389 12.9468 174.93 24.0629 174.93 41.3283V47.8323C175.245 51.3829 178.347 53.7899 181.55 55.354L191.426 59.4808C205.713 66.458 209.284 83.0138 198.876 96.9089L195.919 100.811C193.267 104.396 193.813 109.102 196.451 112.696L199.408 116.836C210.169 130.08 204.102 148.251 188.901 154.6L180.4 158.15C177.196 159.488 175.942 161.784 175.344 165.202L174.752 176.317C172.682 191.573 159.133 198.463 148.263 196.925L135.313 193.465C132.203 193.025 128.336 194.057 126.267 197.308L121.595 203.694C110.007 216.762 94.3649 214.589 86.4735 206.947L77.8566 196.51C75.6003 194.325 72.7557 192.46 69.3511 193.745L56.318 197.308C45.5583 198.832 32.8885 190.561 30.8606 179.884L29.3556 164.433C28.7447 161.217 26.6241 158.491 23.657 157.109L14.5145 153.968C0.766258 147.561 -3.83852 132.051 4.05532 119.098L9.20833 111.973C11.2781 108.577 11.1798 104.286 8.95643 100.989L5.1131 95.5489C-5.76636 80.0574 1.75561 62.742 17.8772 57.5509L21.4328 56.4061C25.3573 55.1425 29.1482 51.8833 29.4742 47.7734L30.266 37.7963C31.5513 21.6018 46.3288 12.3093 61.8717 17.0343L66.902 18.5635C71.7506 20.4557 75.5492 18.8444 78.1955 15.962L83.6353 9.02199Z" fill="url(#paint2_radial_92_121)"/>
<path d="M83.6353 9.02199C95.2245 -4.02308 110.982 -1.94687 121.063 9.02199L127.212 16.1409C129.341 18.4573 132.423 19.6585 135.557 19.3945L146.489 16.1409C161.389 12.9468 174.93 24.0629 174.93 41.3283V47.8323C175.245 51.3829 178.347 53.7899 181.55 55.354L191.426 59.4808C205.713 66.458 209.284 83.0138 198.876 96.9089L195.919 100.811C193.267 104.396 193.813 109.102 196.451 112.696L199.408 116.836C210.169 130.08 204.102 148.251 188.901 154.6L180.4 158.15C177.196 159.488 175.942 161.784 175.344 165.202L174.752 176.317C172.682 191.573 159.133 198.463 148.263 196.925L135.313 193.465C132.203 193.025 128.336 194.057 126.267 197.308L121.595 203.694C110.007 216.762 94.3649 214.589 86.4735 206.947L77.8566 196.51C75.6003 194.325 72.7557 192.46 69.3511 193.745L56.318 197.308C45.5583 198.832 32.8885 190.561 30.8606 179.884L29.3556 164.433C28.7447 161.217 26.6241 158.491 23.657 157.109L14.5145 153.968C0.766258 147.561 -3.83852 132.051 4.05532 119.098L9.20833 111.973C11.2781 108.577 11.1798 104.286 8.95643 100.989L5.1131 95.5489C-5.76636 80.0574 1.75561 62.742 17.8772 57.5509L21.4328 56.4061C25.3573 55.1425 29.1482 51.8833 29.4742 47.7734L30.266 37.7963C31.5513 21.6018 46.3288 12.3093 61.8717 17.0343L66.902 18.5635C71.7506 20.4557 75.5492 18.8444 78.1955 15.962L83.6353 9.02199Z" fill="url(#paint3_radial_92_121)"/>
<path d="M83.6353 9.02199C95.2245 -4.02308 110.982 -1.94687 121.063 9.02199L127.212 16.1409C129.341 18.4573 132.423 19.6585 135.557 19.3945L146.489 16.1409C161.389 12.9468 174.93 24.0629 174.93 41.3283V47.8323C175.245 51.3829 178.347 53.7899 181.55 55.354L191.426 59.4808C205.713 66.458 209.284 83.0138 198.876 96.9089L195.919 100.811C193.267 104.396 193.813 109.102 196.451 112.696L199.408 116.836C210.169 130.08 204.102 148.251 188.901 154.6L180.4 158.15C177.196 159.488 175.942 161.784 175.344 165.202L174.752 176.317C172.682 191.573 159.133 198.463 148.263 196.925L135.313 193.465C132.203 193.025 128.336 194.057 126.267 197.308L121.595 203.694C110.007 216.762 94.3649 214.589 86.4735 206.947L77.8566 196.51C75.6003 194.325 72.7557 192.46 69.3511 193.745L56.318 197.308C45.5583 198.832 32.8885 190.561 30.8606 179.884L29.3556 164.433C28.7447 161.217 26.6241 158.491 23.657 157.109L14.5145 153.968C0.766258 147.561 -3.83852 132.051 4.05532 119.098L9.20833 111.973C11.2781 108.577 11.1798 104.286 8.95643 100.989L5.1131 95.5489C-5.76636 80.0574 1.75561 62.742 17.8772 57.5509L21.4328 56.4061C25.3573 55.1425 29.1482 51.8833 29.4742 47.7734L30.266 37.7963C31.5513 21.6018 46.3288 12.3093 61.8717 17.0343L66.902 18.5635C71.7506 20.4557 75.5492 18.8444 78.1955 15.962L83.6353 9.02199Z" fill="url(#paint4_radial_92_121)"/>
<path d="M83.6353 9.02199C95.2245 -4.02308 110.982 -1.94687 121.063 9.02199L127.212 16.1409C129.341 18.4573 132.423 19.6585 135.557 19.3945L146.489 16.1409C161.389 12.9468 174.93 24.0629 174.93 41.3283V47.8323C175.245 51.3829 178.347 53.7899 181.55 55.354L191.426 59.4808C205.713 66.458 209.284 83.0138 198.876 96.9089L195.919 100.811C193.267 104.396 193.813 109.102 196.451 112.696L199.408 116.836C210.169 130.08 204.102 148.251 188.901 154.6L180.4 158.15C177.196 159.488 175.942 161.784 175.344 165.202L174.752 176.317C172.682 191.573 159.133 198.463 148.263 196.925L135.313 193.465C132.203 193.025 128.336 194.057 126.267 197.308L121.595 203.694C110.007 216.762 94.3649 214.589 86.4735 206.947L77.8566 196.51C75.6003 194.325 72.7557 192.46 69.3511 193.745L56.318 197.308C45.5583 198.832 32.8885 190.561 30.8606 179.884L29.3556 164.433C28.7447 161.217 26.6241 158.491 23.657 157.109L14.5145 153.968C0.766258 147.561 -3.83852 132.051 4.05532 119.098L9.20833 111.973C11.2781 108.577 11.1798 104.286 8.95643 100.989L5.1131 95.5489C-5.76636 80.0574 1.75561 62.742 17.8772 57.5509L21.4328 56.4061C25.3573 55.1425 29.1482 51.8833 29.4742 47.7734L30.266 37.7963C31.5513 21.6018 46.3288 12.3093 61.8717 17.0343L66.902 18.5635C71.7506 20.4557 75.5492 18.8444 78.1955 15.962L83.6353 9.02199Z" fill="url(#paint5_radial_92_121)"/>
<path d="M83.6353 9.02199C95.2245 -4.02308 110.982 -1.94687 121.063 9.02199L127.212 16.1409C129.341 18.4573 132.423 19.6585 135.557 19.3945L146.489 16.1409C161.389 12.9468 174.93 24.0629 174.93 41.3283V47.8323C175.245 51.3829 178.347 53.7899 181.55 55.354L191.426 59.4808C205.713 66.458 209.284 83.0138 198.876 96.9089L195.919 100.811C193.267 104.396 193.813 109.102 196.451 112.696L199.408 116.836C210.169 130.08 204.102 148.251 188.901 154.6L180.4 158.15C177.196 159.488 175.942 161.784 175.344 165.202L174.752 176.317C172.682 191.573 159.133 198.463 148.263 196.925L135.313 193.465C132.203 193.025 128.336 194.057 126.267 197.308L121.595 203.694C110.007 216.762 94.3649 214.589 86.4735 206.947L77.8566 196.51C75.6003 194.325 72.7557 192.46 69.3511 193.745L56.318 197.308C45.5583 198.832 32.8885 190.561 30.8606 179.884L29.3556 164.433C28.7447 161.217 26.6241 158.491 23.657 157.109L14.5145 153.968C0.766258 147.561 -3.83852 132.051 4.05532 119.098L9.20833 111.973C11.2781 108.577 11.1798 104.286 8.95643 100.989L5.1131 95.5489C-5.76636 80.0574 1.75561 62.742 17.8772 57.5509L21.4328 56.4061C25.3573 55.1425 29.1482 51.8833 29.4742 47.7734L30.266 37.7963C31.5513 21.6018 46.3288 12.3093 61.8717 17.0343L66.902 18.5635C71.7506 20.4557 75.5492 18.8444 78.1955 15.962L83.6353 9.02199Z" fill="url(#paint6_radial_92_121)"/>
<path d="M83.6353 9.02199C95.2245 -4.02308 110.982 -1.94687 121.063 9.02199L127.212 16.1409C129.341 18.4573 132.423 19.6585 135.557 19.3945L146.489 16.1409C161.389 12.9468 174.93 24.0629 174.93 41.3283V47.8323C175.245 51.3829 178.347 53.7899 181.55 55.354L191.426 59.4808C205.713 66.458 209.284 83.0138 198.876 96.9089L195.919 100.811C193.267 104.396 193.813 109.102 196.451 112.696L199.408 116.836C210.169 130.08 204.102 148.251 188.901 154.6L180.4 158.15C177.196 159.488 175.942 161.784 175.344 165.202L174.752 176.317C172.682 191.573 159.133 198.463 148.263 196.925L135.313 193.465C132.203 193.025 128.336 194.057 126.267 197.308L121.595 203.694C110.007 216.762 94.3649 214.589 86.4735 206.947L77.8566 196.51C75.6003 194.325 72.7557 192.46 69.3511 193.745L56.318 197.308C45.5583 198.832 32.8885 190.561 30.8606 179.884L29.3556 164.433C28.7447 161.217 26.6241 158.491 23.657 157.109L14.5145 153.968C0.766258 147.561 -3.83852 132.051 4.05532 119.098L9.20833 111.973C11.2781 108.577 11.1798 104.286 8.95643 100.989L5.1131 95.5489C-5.76636 80.0574 1.75561 62.742 17.8772 57.5509L21.4328 56.4061C25.3573 55.1425 29.1482 51.8833 29.4742 47.7734L30.266 37.7963C31.5513 21.6018 46.3288 12.3093 61.8717 17.0343L66.902 18.5635C71.7506 20.4557 75.5492 18.8444 78.1955 15.962L83.6353 9.02199Z" fill="url(#paint7_radial_92_121)"/>
<path d="M83.6353 9.02199C95.2245 -4.02308 110.982 -1.94687 121.063 9.02199L127.212 16.1409C129.341 18.4573 132.423 19.6585 135.557 19.3945L146.489 16.1409C161.389 12.9468 174.93 24.0629 174.93 41.3283V47.8323C175.245 51.3829 178.347 53.7899 181.55 55.354L191.426 59.4808C205.713 66.458 209.284 83.0138 198.876 96.9089L195.919 100.811C193.267 104.396 193.813 109.102 196.451 112.696L199.408 116.836C210.169 130.08 204.102 148.251 188.901 154.6L180.4 158.15C177.196 159.488 175.942 161.784 175.344 165.202L174.752 176.317C172.682 191.573 159.133 198.463 148.263 196.925L135.313 193.465C132.203 193.025 128.336 194.057 126.267 197.308L121.595 203.694C110.007 216.762 94.3649 214.589 86.4735 206.947L77.8566 196.51C75.6003 194.325 72.7557 192.46 69.3511 193.745L56.318 197.308C45.5583 198.832 32.8885 190.561 30.8606 179.884L29.3556 164.433C28.7447 161.217 26.6241 158.491 23.657 157.109L14.5145 153.968C0.766258 147.561 -3.83852 132.051 4.05532 119.098L9.20833 111.973C11.2781 108.577 11.1798 104.286 8.95643 100.989L5.1131 95.5489C-5.76636 80.0574 1.75561 62.742 17.8772 57.5509L21.4328 56.4061C25.3573 55.1425 29.1482 51.8833 29.4742 47.7734L30.266 37.7963C31.5513 21.6018 46.3288 12.3093 61.8717 17.0343L66.902 18.5635C71.7506 20.4557 75.5492 18.8444 78.1955 15.962L83.6353 9.02199Z" fill="url(#paint8_radial_92_121)"/>
<path d="M83.6353 9.02199C95.2245 -4.02308 110.982 -1.94687 121.063 9.02199L127.212 16.1409C129.341 18.4573 132.423 19.6585 135.557 19.3945L146.489 16.1409C161.389 12.9468 174.93 24.0629 174.93 41.3283V47.8323C175.245 51.3829 178.347 53.7899 181.55 55.354L191.426 59.4808C205.713 66.458 209.284 83.0138 198.876 96.9089L195.919 100.811C193.267 104.396 193.813 109.102 196.451 112.696L199.408 116.836C210.169 130.08 204.102 148.251 188.901 154.6L180.4 158.15C177.196 159.488 175.942 161.784 175.344 165.202L174.752 176.317C172.682 191.573 159.133 198.463 148.263 196.925L135.313 193.465C132.203 193.025 128.336 194.057 126.267 197.308L121.595 203.694C110.007 216.762 94.3649 214.589 86.4735 206.947L77.8566 196.51C75.6003 194.325 72.7557 192.46 69.3511 193.745L56.318 197.308C45.5583 198.832 32.8885 190.561 30.8606 179.884L29.3556 164.433C28.7447 161.217 26.6241 158.491 23.657 157.109L14.5145 153.968C0.766258 147.561 -3.83852 132.051 4.05532 119.098L9.20833 111.973C11.2781 108.577 11.1798 104.286 8.95643 100.989L5.1131 95.5489C-5.76636 80.0574 1.75561 62.742 17.8772 57.5509L21.4328 56.4061C25.3573 55.1425 29.1482 51.8833 29.4742 47.7734L30.266 37.7963C31.5513 21.6018 46.3288 12.3093 61.8717 17.0343L66.902 18.5635C71.7506 20.4557 75.5492 18.8444 78.1955 15.962L83.6353 9.02199Z" fill="url(#paint9_radial_92_121)"/>
<g filter="url(#filter0_d_92_121)">
<path d="M101.716 186.426C146.621 186.426 183.023 150.023 183.023 105.118C183.023 60.2132 146.621 23.8108 101.716 23.8108C56.8116 23.8108 20.4092 60.2132 20.4092 105.118C20.4092 150.023 56.8116 186.426 101.716 186.426Z" fill="url(#paint10_radial_92_121)"/>
<path d="M101.716 186.426C146.621 186.426 183.023 150.023 183.023 105.118C183.023 60.2132 146.621 23.8108 101.716 23.8108C56.8116 23.8108 20.4092 60.2132 20.4092 105.118C20.4092 150.023 56.8116 186.426 101.716 186.426Z" fill="url(#paint11_radial_92_121)"/>
</g>
<defs>
<filter id="filter0_d_92_121" x="12.1817" y="23.8108" width="170.841" height="170.842" filterUnits="userSpaceOnUse" color-interpolation-filters="sRGB">
<feFlood flood-opacity="0" result="BackgroundImageFix"/>
<feColorMatrix in="SourceAlpha" type="matrix" values="0 0 0 0 0 0 0 0 0 0 0 0 0 0 0 0 0 0 127 0" result="hardAlpha"/>
<feOffset dx="-4.11374" dy="4.11374"/>
<feGaussianBlur stdDeviation="2.05687"/>
<feComposite in2="hardAlpha" operator="out"/>
<feColorMatrix type="matrix" values="0 0 0 0 0.921569 0 0 0 0 0.47451 0 0 0 0 0.133333 0 0 0 1 0"/>
<feBlend mode="normal" in2="BackgroundImageFix" result="effect1_dropShadow_92_121"/>
<feBlend mode="normal" in="SourceGraphic" in2="effect1_dropShadow_92_121" result="shape"/>
</filter>
<linearGradient id="paint0_linear_92_121" x1="165.582" y1="35.7835" x2="49.4075" y2="184.006" gradientUnits="userSpaceOnUse">
<stop stop-color="#FC8B23"/>
<stop offset="1" stop-color="#E67639"/>
</linearGradient>
<radialGradient id="paint1_radial_92_121" cx="0" cy="0" r="1" gradientUnits="userSpaceOnUse" gradientTransform="translate(121.994 9.82705) rotate(138.155) scale(28.5983 25.2326)">
<stop offset="0.300161" stop-color="#FFA13A"/>
<stop offset="1" stop-color="#FFA13A" stop-opacity="0"/>
</radialGradient>
<radialGradient id="paint2_radial_92_121" cx="0" cy="0" r="1" gradientUnits="userSpaceOnUse" gradientTransform="translate(47.5874 0.798908) rotate(67.8105) scale(45.4646 40.1139)">
<stop offset="0.300161" stop-color="#FF942A"/>
<stop offset="1" stop-color="#FF942A" stop-opacity="0"/>
</radialGradient>
<radialGradient id="paint3_radial_92_121" cx="0" cy="0" r="1" gradientUnits="userSpaceOnUse" gradientTransform="translate(169.69 43.2144) rotate(-164.745) scale(18.1273 25.0997)">
<stop offset="0.300161" stop-color="#FFA13D"/>
<stop offset="1" stop-color="#FFA13D" stop-opacity="0"/>
</radialGradient>
<radialGradient id="paint4_radial_92_121" cx="0" cy="0" r="1" gradientUnits="userSpaceOnUse" gradientTransform="translate(206.257 69.6064) rotate(154.195) scale(32.1406 23.7382)">
<stop offset="0.300161" stop-color="#FFA13D"/>
<stop offset="1" stop-color="#FFA13D" stop-opacity="0"/>
</radialGradient>
<radialGradient id="paint5_radial_92_121" cx="0" cy="0" r="1" gradientUnits="userSpaceOnUse" gradientTransform="translate(213.252 123.98) rotate(-173.379) scale(35.8523 20.2041)">
<stop offset="0.300161" stop-color="#FFA13D"/>
<stop offset="1" stop-color="#FFA13D" stop-opacity="0"/>
</radialGradient>
<radialGradient id="paint6_radial_92_121" cx="0" cy="0" r="1" gradientUnits="userSpaceOnUse" gradientTransform="translate(181.137 165.635) rotate(-43.9639) scale(32.521 31.3301)">
<stop stop-color="#E0762A"/>
<stop offset="1" stop-color="#E0762A" stop-opacity="0"/>
</radialGradient>
<radialGradient id="paint7_radial_92_121" cx="0" cy="0" r="1" gradientUnits="userSpaceOnUse" gradientTransform="translate(30.4167 158.003) rotate(-127.747) scale(24.9321 24.0193)">
<stop stop-color="#E0762A"/>
<stop offset="1" stop-color="#E0762A" stop-opacity="0"/>
</radialGradient>
<radialGradient id="paint8_radial_92_121" cx="0" cy="0" r="1" gradientUnits="userSpaceOnUse" gradientTransform="translate(-3.60665 73.7401) rotate(25.2777) scale(25.3185 30.601)">
<stop stop-color="#F0851D"/>
<stop offset="1" stop-color="#F0851D" stop-opacity="0"/>
</radialGradient>
<radialGradient id="paint9_radial_92_121" cx="0" cy="0" r="1" gradientUnits="userSpaceOnUse" gradientTransform="translate(147.524 201.743) rotate(-142.487) scale(29.5187 27.8483)">
<stop offset="0.336586" stop-color="#E3745B"/>
<stop offset="1" stop-color="#E3745B" stop-opacity="0"/>
</radialGradient>
<radialGradient id="paint10_radial_92_121" cx="0" cy="0" r="1" gradientUnits="userSpaceOnUse" gradientTransform="translate(147.856 58.0132) rotate(117.739) scale(145.086 179.167)">
<stop offset="0.17178" stop-color="#FFD13D"/>
<stop offset="1" stop-color="#D89A29"/>
</radialGradient>
<radialGradient id="paint11_radial_92_121" cx="0" cy="0" r="1" gradientUnits="userSpaceOnUse" gradientTransform="translate(168.129 91.2334) rotate(168.299) scale(173.15 146.188)">
<stop offset="0.620449" stop-color="#DCA225" stop-opacity="0"/>
<stop offset="1" stop-color="#DCA225"/>
</radialGradient>
</defs>
</svg>
