<svg width="994" height="1087" viewBox="0 0 994 1087" fill="none" xmlns="http://www.w3.org/2000/svg">
<path d="M627.27 507.045L409.661 578.321L220.131 662.017L167.213 676.056C153.714 689.016 139.675 701.975 124.016 714.934C107.276 729.514 91.6172 742.473 79.7378 752.192C66.2385 762.992 46.7995 782.431 36.54 794.85C21.4208 813.749 9.54131 833.728 4.68155 848.848C-4.49799 876.386 -0.178155 904.465 17.6409 930.383C39.7798 963.322 84.5976 996.8 136.435 1019.48C162.894 1031.36 207.711 1045.94 241.19 1054.58C296.807 1068.62 404.801 1084.28 464.198 1086.44C476.078 1086.98 492.277 1086.98 492.817 1086.44C493.897 1085.36 503.617 1068.08 513.876 1045.94C550.594 971.421 576.513 901.225 591.092 841.828C599.732 805.65 606.211 757.592 611.071 700.355C612.151 684.156 612.691 630.698 611.611 612.879C609.991 583.181 607.291 559.422 603.512 535.663C602.972 532.423 602.432 529.184 602.972 529.184C603.511 528.644 605.671 528.104 632.67 520.544L627.27 507.045ZM577.593 536.203C579.753 536.203 584.612 586.961 586.232 618.819C586.772 625.299 586.232 630.159 586.232 630.159C585.152 630.159 558.694 614.499 539.255 602.62C523.056 592.36 491.737 571.302 486.877 567.522C485.257 566.442 485.257 566.442 498.757 561.582C521.436 553.482 575.433 536.203 577.593 536.203ZM466.358 572.921C467.978 572.921 471.758 575.081 480.938 580.481C514.956 601.54 560.854 627.459 580.833 636.098C586.772 638.798 587.312 637.718 573.813 647.438C544.115 667.957 506.316 687.936 460.959 707.915C452.859 711.694 446.379 714.394 445.839 714.394C445.299 714.394 446.379 710.075 447.999 705.215C458.799 664.177 465.278 622.599 465.818 589.661C464.738 572.921 464.739 572.921 466.358 572.921ZM443.68 581.561C444.759 582.641 444.219 619.359 442.6 629.619C439.9 653.377 435.04 676.056 427.48 701.435C425.86 707.375 424.24 712.774 423.7 712.774C423.16 713.854 400.482 691.715 392.922 683.076C379.963 668.497 370.243 653.377 362.684 638.798C358.904 631.238 352.964 616.659 353.504 616.659C356.204 614.499 443.14 581.021 443.68 581.561ZM336.225 623.679C337.305 624.219 338.385 626.919 338.925 629.619C344.325 644.198 356.204 665.257 366.463 678.216C377.803 692.795 392.382 708.995 404.262 719.254C408.041 722.494 411.821 725.734 412.361 726.274C413.441 727.354 413.441 727.354 386.982 737.073C355.664 748.953 322.186 760.832 283.308 773.251C274.128 776.491 264.948 779.191 255.769 782.431C254.149 782.971 254.689 781.891 259.009 775.411C278.448 745.173 307.606 686.316 323.805 644.198C326.505 637.178 329.205 629.619 329.745 627.999C330.285 625.839 331.365 624.759 333.525 623.679C334.605 624.219 335.685 623.679 336.225 623.679ZM303.287 637.178C303.827 637.718 295.187 654.997 287.087 671.196C270.888 702.515 253.609 732.753 230.39 770.012C226.61 776.491 222.831 782.431 222.291 782.971C221.211 784.051 221.211 784.051 218.511 778.651C213.111 767.852 208.251 753.272 206.091 740.313C203.392 727.354 203.932 705.215 207.171 691.175C209.331 680.916 209.331 680.916 214.191 678.756C234.17 668.497 302.207 636.638 303.287 637.178ZM586.772 649.058V656.077C586.772 692.795 582.993 743.013 577.053 779.731C575.973 786.211 575.433 791.61 574.893 791.61C574.893 791.61 570.033 790.531 564.633 788.911C539.795 781.351 513.336 770.012 489.037 756.512C472.838 747.873 449.619 733.293 450.699 732.753C450.699 732.753 457.719 728.974 465.818 724.654C498.217 707.915 528.995 689.556 555.994 671.736C566.253 665.257 581.373 653.917 584.612 651.218L586.772 649.058ZM179.093 697.655C179.633 697.655 179.633 698.735 178.553 704.675C178.013 708.995 176.933 717.094 176.933 722.494C175.853 746.253 179.633 764.072 191.512 788.371C194.752 794.85 197.452 800.79 197.452 800.79C196.372 801.87 87.2974 833.728 53.2791 842.908C43.0196 845.608 34.3801 848.308 33.3001 848.308C32.2202 848.848 32.2202 848.308 32.2202 845.608C36 821.309 54.3591 789.991 80.2778 762.992C97.5569 745.173 111.056 734.913 134.275 721.414C151.014 712.774 176.393 698.195 179.093 697.655C178.553 697.655 178.553 697.655 179.093 697.655ZM435.58 743.553C435.58 743.553 439.9 745.713 444.22 748.413C479.318 768.932 528.455 787.831 570.033 797.55L573.813 798.63L568.413 801.33C546.274 813.749 474.458 843.448 401.022 870.986C390.222 874.766 379.963 879.086 377.803 879.626C375.643 880.706 374.023 880.706 374.023 880.706C374.023 880.706 376.723 874.766 380.503 867.747C401.022 829.409 421.541 782.431 432.34 750.032C434.5 746.253 435.58 743.553 435.58 743.553ZM409.661 752.192C409.661 752.192 408.581 755.972 406.961 759.752C392.382 794.31 374.023 832.108 349.724 874.766C343.785 885.566 338.385 894.205 338.385 894.205C338.385 894.205 333.525 891.505 327.585 887.726C292.487 866.127 261.709 840.208 241.73 814.289L239.03 810.51L254.149 806.19C307.606 791.61 353.504 775.951 398.862 756.512C403.722 754.352 409.121 752.192 409.661 752.192ZM572.193 808.89C572.193 812.669 564.093 846.688 557.074 870.986C551.134 891.505 546.274 907.705 537.095 936.323C533.315 948.742 529.535 959.002 529.535 959.002C529.535 959.002 528.455 959.002 527.375 958.462C478.778 949.822 434.5 937.403 393.462 920.664C382.123 915.804 365.383 908.785 364.303 907.705C363.763 907.165 374.023 902.845 386.442 897.445C461.499 864.507 538.715 827.789 565.713 811.589C568.953 809.97 571.653 808.89 572.193 808.89ZM196.912 821.849C197.452 822.389 176.393 852.087 147.234 893.125C136.975 907.705 125.095 924.444 120.776 930.383C116.456 936.863 109.436 946.583 105.656 952.522L98.6369 963.322L91.0772 956.842C82.4376 949.823 67.3184 934.163 60.2988 925.524C46.2595 907.705 36.5399 889.346 32.7601 872.606C31.1402 864.507 31.1402 860.727 32.7601 860.187C35.46 859.647 79.1979 849.388 120.236 839.668C142.915 834.268 169.373 828.329 179.093 825.629C188.812 823.469 196.372 821.849 196.912 821.849ZM217.971 829.949L223.371 835.888C247.129 862.347 271.428 881.786 300.587 899.065C305.986 901.765 309.766 904.465 309.226 905.005C308.146 906.085 207.711 941.723 160.734 957.382C134.815 966.562 113.216 974.121 112.676 974.121L109.436 971.961L106.736 969.801L111.596 962.782C127.255 940.643 146.694 915.804 188.812 865.047L217.971 829.949ZM349.184 923.904C349.184 923.904 356.744 926.604 365.383 929.844C386.982 937.943 403.721 942.803 426.4 948.743C454.479 955.762 494.977 962.782 518.736 964.942C522.516 965.482 524.135 965.482 523.595 966.022C522.515 966.562 498.217 974.661 480.398 980.601C452.319 989.241 365.923 1015.16 295.187 1035.14C282.228 1038.92 270.888 1042.16 270.348 1042.16C268.728 1042.7 263.329 1041.08 263.329 1040.54C263.329 1040 267.108 1035.14 271.968 1029.74C295.727 1001.66 318.946 969.801 338.925 940.103C344.325 930.383 349.184 923.904 349.184 923.904ZM320.026 924.444C320.026 924.444 308.686 943.343 288.167 975.741C279.528 989.241 269.808 1004.9 266.028 1010.3C262.789 1015.7 257.929 1023.8 255.229 1028.66L250.369 1037.3L247.669 1036.76C241.73 1035.14 200.152 1020.56 189.352 1016.24C175.853 1010.84 161.814 1004.36 151.014 998.42C138.055 991.4 121.316 980.601 122.936 980.601C123.476 980.601 145.614 974.121 173.153 967.102C244.969 947.663 284.927 936.323 311.386 927.684C315.706 925.524 320.026 924.444 320.026 924.444ZM524.675 972.501C525.755 974.121 498.757 1048.1 489.037 1071.32C486.877 1076.72 486.337 1077.8 484.717 1077.8C482.018 1077.8 443.14 1072.4 419.921 1068.62C378.883 1062.14 310.306 1050.26 293.027 1046.48L289.247 1045.4L313.546 1040C366.463 1028.12 391.302 1021.64 417.221 1014.08C449.619 1004.36 481.478 991.94 513.876 976.821C519.276 974.661 523.595 972.501 524.675 972.501Z" fill="url(#paint0_linear_111_7)"/>
<path d="M402.641 0.0101789C398.861 -0.529794 340.544 20.5291 302.746 35.6484C251.988 56.1673 212.57 76.1464 188.272 93.4255C179.092 99.9052 167.753 111.245 166.133 115.564C165.593 117.184 165.053 119.344 165.053 120.964L187.192 142.023L239.569 158.762L364.303 180.901L506.856 205.2L508.476 192.78H507.396L488.496 190.081L484.717 183.601C465.278 149.583 443.679 106.925 431.259 78.3062C421.54 56.1674 412.36 30.2486 407.501 11.8896C404.801 0.550136 404.261 0.0101789 402.641 0.0101789ZM399.941 8.10977C400.481 8.10977 401.021 12.9695 401.561 18.3693C404.261 41.5881 409.661 63.727 417.76 87.4858C423.7 105.845 423.7 104.765 416.68 102.605C399.941 97.7453 324.885 84.7859 270.347 77.2263C261.708 76.1464 254.148 75.0664 254.148 74.5265C253.608 73.9865 293.566 52.9275 310.845 44.8279C333.524 34.5685 395.621 9.18972 399.941 8.10977ZM241.189 82.086L247.669 84.2459C282.767 96.1253 370.242 112.864 418.84 116.644C424.24 117.184 429.099 117.724 429.099 117.724C429.099 117.724 424.78 120.424 418.84 123.124C395.621 135.003 369.702 149.043 351.883 160.382C346.484 163.622 341.624 166.322 341.084 166.322C340.544 166.322 336.764 165.782 333.524 165.242L327.045 164.162L310.845 147.963C281.687 119.884 259.008 98.2852 250.368 89.6457L241.189 82.086ZM234.709 86.9458L257.928 116.104C270.348 132.304 283.307 147.423 286.007 151.203C288.707 154.442 290.866 157.682 290.866 157.682C290.326 158.222 257.388 151.743 240.109 147.963C222.29 143.643 214.73 142.023 203.931 138.243L194.751 135.543V133.383C194.751 122.584 208.791 105.845 232.549 89.1057L234.709 86.9458ZM431.799 126.364C432.339 126.364 433.419 127.984 435.039 132.304C440.439 144.723 458.258 177.661 462.578 184.141C463.658 186.301 466.358 186.301 443.139 182.521C387.522 173.341 369.702 170.642 369.702 170.102C369.702 170.102 371.322 169.022 373.482 167.402C390.761 157.682 408.04 145.803 423.7 132.843C427.48 129.604 430.719 126.904 431.799 126.364Z" fill="url(#paint1_linear_111_7)"/>
<path d="M167.213 112.865C167.213 112.865 163.433 118.804 167.213 127.444C169.373 132.843 175.853 139.323 182.872 145.803C182.872 145.803 256.309 217.079 264.948 227.339C305.446 274.316 323.265 320.214 324.885 383.391C325.965 424.429 318.406 460.067 298.967 501.645C264.948 576.161 192.592 658.777 81.3574 750.032L97.5566 744.633C107.816 736.533 122.395 728.434 155.874 710.074C233.63 667.417 320.565 628.539 427.48 588.581C581.372 530.804 834.62 462.767 978.792 440.628L993.912 438.468L991.752 434.688C978.792 414.169 969.613 401.75 958.813 388.251C927.495 348.833 889.157 317.514 842.179 291.056C777.922 254.877 694.227 226.799 588.392 205.74C568.413 201.96 524.675 194.4 489.037 189.001C413.441 177.121 364.843 169.022 311.386 159.842C291.947 156.602 263.328 151.743 244.429 147.423C234.71 145.263 215.811 140.943 200.691 135.543C187.732 131.764 170.993 126.904 167.213 112.865ZM209.871 154.442C209.871 154.442 212.571 155.522 216.351 156.602C222.83 158.762 230.93 161.462 240.109 163.622C247.129 165.782 254.689 167.402 261.708 169.562C271.428 172.261 280.067 174.421 280.067 174.421C281.147 175.501 297.887 228.959 303.286 248.938C305.446 256.497 307.066 263.517 307.066 263.517C307.066 263.517 304.906 260.817 302.746 257.037C283.307 223.019 253.069 189.001 217.971 160.922C213.111 157.142 209.871 154.442 209.871 154.442ZM290.867 176.581C291.947 176.581 295.187 177.121 299.507 178.201C327.585 184.681 377.803 193.86 409.661 199.26C415.061 200.34 419.38 200.88 419.38 201.42C419.38 201.96 417.221 203.04 415.061 204.12C409.661 206.82 387.522 219.779 380.502 224.639C362.143 237.058 345.944 250.018 334.065 261.897L325.425 270.537C325.425 270.537 324.345 267.837 323.805 264.057C317.866 241.378 305.446 207.36 294.107 183.601C291.947 180.361 290.327 176.581 290.867 176.581C290.327 176.581 290.327 176.581 290.867 176.581ZM432.88 203.58C433.96 204.12 435.58 209.52 438.82 221.939C444.759 245.698 447.459 272.696 446.919 297.535C446.379 304.555 446.379 311.035 445.839 311.574L445.299 313.194L436.66 310.495C418.841 305.095 390.222 296.455 365.923 289.436C351.884 285.656 340.544 282.416 340.544 281.876C340.544 280.796 361.063 260.277 369.703 252.717C386.442 238.138 431.8 203.04 432.88 203.58ZM444.219 205.2C444.759 204.66 512.256 216.539 543.034 222.479C565.713 226.799 599.192 233.818 601.351 234.898C602.431 235.438 598.652 237.058 587.852 241.918C544.654 261.357 512.256 279.176 479.858 300.235C471.218 305.635 464.198 310.495 464.198 310.495C464.198 310.495 463.658 305.635 463.658 300.235C463.658 268.917 457.179 237.598 445.839 210.6C445.299 207.9 444.219 205.74 444.219 205.2ZM619.17 239.758C619.71 240.298 617.55 253.797 615.391 261.357C609.451 285.656 593.252 322.374 573.813 356.392C570.573 362.332 567.333 367.192 566.793 367.732C566.253 367.732 561.933 365.572 557.074 362.332C538.175 350.993 516.036 340.733 492.817 331.014C486.337 328.314 480.397 326.154 480.397 325.614C479.317 324.534 532.235 289.436 560.313 272.696C582.452 259.197 618.63 239.218 619.17 239.758ZM631.59 241.918C633.21 241.918 662.908 250.018 678.567 254.877C717.446 266.217 761.723 282.416 790.342 295.915L802.221 301.315L793.582 303.475C722.845 319.674 662.368 338.573 604.051 362.332C599.192 364.492 594.872 366.112 594.872 366.112C594.332 366.112 595.952 362.332 598.112 357.472C615.931 320.214 627.27 281.336 629.97 247.858C631.05 244.618 631.59 241.918 631.59 241.918ZM333.525 310.495C334.065 309.955 356.744 315.354 369.163 319.134C388.062 324.534 427.48 337.493 427.48 338.573C427.48 338.573 423.16 342.353 417.761 347.213C396.162 365.032 375.643 383.931 350.804 408.23C343.244 415.249 337.305 421.189 336.765 421.189C336.225 421.189 336.225 420.109 336.225 419.029C340.004 391.491 338.925 355.852 334.065 319.674C334.065 314.274 333.525 310.495 333.525 310.495ZM814.101 311.035C814.641 311.575 803.301 328.314 796.821 338.033C787.102 352.073 772.523 370.972 739.584 412.009C722.305 433.608 702.866 458.447 696.386 466.547C689.907 474.646 684.507 481.666 683.967 481.666C683.967 481.666 681.807 478.966 679.107 475.186C660.748 447.648 638.609 423.349 612.691 401.75C607.831 397.43 602.431 393.11 600.271 392.031C598.651 390.951 597.032 389.331 597.032 389.331C597.032 388.791 625.11 376.911 646.169 368.272C683.427 353.152 734.185 334.793 771.983 323.454C792.502 316.434 814.101 310.495 814.101 311.035ZM827.06 314.274C827.6 314.274 831.92 315.894 836.24 319.134C876.198 341.813 915.616 371.511 946.394 401.75C955.034 410.39 976.633 432.528 976.093 433.068C976.093 433.068 968.533 433.608 959.893 434.148C890.777 439.548 802.221 454.127 716.906 474.646C710.966 475.726 706.106 477.346 705.566 477.346C705.026 477.346 711.506 470.867 719.605 463.307C769.823 415.249 792.502 384.471 819.5 330.474C823.28 321.294 826.52 314.814 827.06 314.274C826.52 314.274 826.52 314.274 827.06 314.274ZM460.418 351.533C462.578 352.073 484.177 362.332 500.376 369.892C514.956 377.451 537.635 389.331 538.715 389.871C538.715 389.871 531.155 394.19 521.435 399.05C490.657 414.709 464.198 429.289 436.12 446.028C428.02 450.888 421.54 454.667 421.54 454.667C421 454.667 421 454.127 425.32 446.028C439.899 419.029 451.779 386.631 458.798 355.312C459.338 353.152 459.878 351.533 460.418 351.533ZM439.36 355.852C439.9 356.392 434.5 376.371 430.72 387.711C424.24 408.77 412.361 434.688 401.561 454.667C398.862 459.527 395.082 466.007 392.922 469.787L388.602 476.266L379.423 467.627C368.623 457.367 359.983 450.887 348.644 444.948C344.324 442.788 340.544 440.628 340.544 440.088C340.544 439.008 368.623 413.089 390.222 394.73C405.881 381.231 438.82 355.312 439.36 355.852ZM570.033 409.31L578.132 414.709C596.492 426.589 618.09 442.788 634.83 456.827C644.009 464.387 662.368 480.586 666.148 484.906L668.308 487.066L654.809 490.845C579.212 511.904 521.435 530.264 453.399 555.102C445.839 557.802 439.36 559.962 438.82 559.962C437.74 559.962 437.2 561.042 453.939 545.383C497.137 505.425 536.015 461.147 564.633 418.489L570.033 409.31ZM535.475 417.949C536.015 418.489 513.336 449.808 499.836 468.167C483.637 489.766 455.019 525.404 435.58 548.623C427.48 558.342 420.46 566.442 419.92 566.442C419.381 566.442 419.38 564.282 419.38 560.502C419.38 540.523 414.521 519.464 405.341 501.105C401.561 493.545 401.021 491.925 401.561 490.845C404.801 488.146 452.319 460.607 483.097 444.408C503.076 433.608 534.935 417.409 535.475 417.949ZM327.585 468.707C328.125 468.707 331.905 470.867 336.225 473.026C346.484 478.966 356.204 485.446 364.303 491.925C364.843 492.465 360.523 495.705 354.584 500.025C338.925 511.365 315.166 529.184 301.666 539.983C287.087 551.322 286.547 551.862 288.167 549.163C298.967 532.423 304.366 523.244 310.306 511.364C315.166 500.565 320.565 488.146 324.345 476.806C325.425 472.486 327.045 468.707 327.585 468.707ZM383.202 512.444C384.282 512.444 384.822 513.524 389.682 520.544C398.862 534.583 406.421 553.482 408.041 568.602L408.581 571.841L385.902 580.481C345.404 596.14 308.146 611.799 283.307 623.139C276.288 626.379 263.868 632.318 255.769 636.098C247.669 640.418 241.189 643.118 241.189 643.118C241.189 643.118 246.049 639.338 252.529 634.478C301.666 598.84 344.324 559.422 376.183 520.544C379.422 516.224 382.662 512.444 383.202 512.444ZM357.824 518.384C358.364 518.924 339.464 540.523 327.045 553.482C295.187 585.881 263.868 611.259 224.99 636.098C220.13 639.338 215.811 642.038 215.271 642.578C214.191 643.118 215.811 641.498 232.55 623.139C243.349 611.259 251.449 601.54 261.168 589.661C267.648 581.561 268.728 580.481 277.368 574.001C301.126 555.642 356.744 517.844 357.824 518.384Z" fill="url(#paint2_radial_111_7)"/>
<defs>
<linearGradient id="paint0_linear_111_7" x1="163.932" y1="978.948" x2="242.628" y2="932.448" gradientUnits="userSpaceOnUse">
<stop stop-color="#909CA9"/>
<stop offset="1" stop-color="#EDEDEE"/>
</linearGradient>
<linearGradient id="paint1_linear_111_7" x1="165.693" y1="102.805" x2="229.014" y2="102.805" gradientUnits="userSpaceOnUse">
<stop stop-color="#939FAB"/>
<stop offset="1" stop-color="#DCDEE1"/>
</linearGradient>
<radialGradient id="paint2_radial_111_7" cx="0" cy="0" r="1" gradientUnits="userSpaceOnUse" gradientTransform="translate(484.922 392.821) rotate(-171.457) scale(81.6382 163.317)">
<stop stop-color="#EE352C"/>
<stop offset="1" stop-color="#A91D22"/>
</radialGradient>
</defs>
</svg>
