<svg width="413" height="439" viewBox="0 0 413 439" fill="none" xmlns="http://www.w3.org/2000/svg">
<g filter="url(#filter0_ii_92_96)">
<path d="M239.136 130.538C244.494 118.67 229.858 107.897 220.118 116.54L97.9004 225.002C90.9648 231.156 93.2691 242.508 102.056 245.471L174.111 269.774C178.62 271.294 180.832 276.375 178.874 280.712L147.961 349.185C142.614 361.03 157.188 371.802 166.942 363.215L290.341 254.579C297.317 248.438 295.029 237.048 286.222 234.078L213.21 209.453C208.701 207.932 206.488 202.852 208.447 198.514L239.136 130.538Z" fill="url(#paint0_linear_92_96)"/>
</g>
<path d="M151.111 141.56C181.747 141.56 206.584 116.724 206.584 86.0867C206.584 55.4501 181.747 30.6138 151.111 30.6138C120.473 30.6138 95.6367 55.4501 95.6367 86.0867C95.6367 116.724 120.473 141.56 151.111 141.56Z" fill="url(#paint1_radial_92_96)"/>
<path d="M151.111 141.56C181.747 141.56 206.584 116.724 206.584 86.0867C206.584 55.4501 181.747 30.6138 151.111 30.6138C120.473 30.6138 95.6367 55.4501 95.6367 86.0867C95.6367 116.724 120.473 141.56 151.111 141.56Z" fill="url(#paint2_radial_92_96)"/>
<g filter="url(#filter1_i_92_96)">
<path d="M361.261 35.1434C312.419 -12.4603 234.271 -11.6349 186.667 37.2071C173.954 50.1717 164.811 65.2092 158.921 81.2658C158.115 83.4665 155.412 84.3271 153.458 83.0335C149.177 80.2001 144.612 77.725 139.889 75.7303C128.607 70.5022 116.087 67.613 102.879 67.613C53.7617 67.613 14 107.374 14 156.492C14 177.404 21.2919 196.666 33.3993 211.937C49.7717 233.4 75.4999 247.159 104.53 247.159C139.476 247.159 239.913 247.159 279.123 247.159C317.923 247.159 352.181 228.034 373.093 198.729C410.516 149.75 406.527 79.3075 361.261 35.1434Z" fill="#463F6D"/>
<path d="M361.261 35.1434C312.419 -12.4603 234.271 -11.6349 186.667 37.2071C173.954 50.1717 164.811 65.2092 158.921 81.2658C158.115 83.4665 155.412 84.3271 153.458 83.0335C149.177 80.2001 144.612 77.725 139.889 75.7303C128.607 70.5022 116.087 67.613 102.879 67.613C53.7617 67.613 14 107.374 14 156.492C14 177.404 21.2919 196.666 33.3993 211.937C49.7717 233.4 75.4999 247.159 104.53 247.159C139.476 247.159 239.913 247.159 279.123 247.159C317.923 247.159 352.181 228.034 373.093 198.729C410.516 149.75 406.527 79.3075 361.261 35.1434Z" fill="url(#paint3_linear_92_96)"/>
</g>
<path d="M361.261 35.1434C312.419 -12.4603 234.271 -11.6349 186.667 37.2071C173.954 50.1717 164.811 65.2092 158.921 81.2658C158.115 83.4665 155.412 84.3271 153.458 83.0335C149.177 80.2001 144.612 77.725 139.889 75.7303C128.607 70.5022 116.087 67.613 102.879 67.613C53.7617 67.613 14 107.374 14 156.492C14 177.404 21.2919 196.666 33.3993 211.937C49.7717 233.4 75.4999 247.159 104.53 247.159C139.476 247.159 239.913 247.159 279.123 247.159C317.923 247.159 352.181 228.034 373.093 198.729C410.516 149.75 406.527 79.3075 361.261 35.1434Z" fill="url(#paint4_radial_92_96)"/>
<path d="M361.261 35.1434C312.419 -12.4603 234.271 -11.6349 186.667 37.2071C173.954 50.1717 164.811 65.2092 158.921 81.2658C158.115 83.4665 155.412 84.3271 153.458 83.0335C149.177 80.2001 144.612 77.725 139.889 75.7303C128.607 70.5022 116.087 67.613 102.879 67.613C53.7617 67.613 14 107.374 14 156.492C14 177.404 21.2919 196.666 33.3993 211.937C49.7717 233.4 75.4999 247.159 104.53 247.159C139.476 247.159 239.913 247.159 279.123 247.159C317.923 247.159 352.181 228.034 373.093 198.729C410.516 149.75 406.527 79.3075 361.261 35.1434Z" fill="url(#paint5_radial_92_96)"/>
<path d="M361.261 35.1434C312.419 -12.4603 234.271 -11.6349 186.667 37.2071C173.954 50.1717 164.811 65.2092 158.921 81.2658C158.115 83.4665 155.412 84.3271 153.458 83.0335C149.177 80.2001 144.612 77.725 139.889 75.7303C128.607 70.5022 116.087 67.613 102.879 67.613C53.7617 67.613 14 107.374 14 156.492C14 177.404 21.2919 196.666 33.3993 211.937C49.7717 233.4 75.4999 247.159 104.53 247.159C139.476 247.159 239.913 247.159 279.123 247.159C317.923 247.159 352.181 228.034 373.093 198.729C410.516 149.75 406.527 79.3075 361.261 35.1434Z" fill="url(#paint6_radial_92_96)"/>
<g filter="url(#filter2_d_92_96)">
<path d="M361.261 35.1434C312.419 -12.4603 234.271 -11.6349 186.667 37.2071C173.954 50.1717 164.811 65.2092 158.921 81.2658C158.115 83.4665 155.412 84.3271 153.458 83.0335C149.177 80.2 144.612 77.725 139.889 75.7303C128.607 70.5022 116.087 67.613 102.879 67.613C53.7617 67.613 14 107.374 14 156.492C14 177.404 21.2919 196.666 33.3993 211.937C49.7717 233.4 75.4999 247.159 104.53 247.159C139.476 247.159 239.913 247.159 279.123 247.159C317.923 247.159 352.181 228.034 373.094 198.729C410.516 149.75 406.527 79.3075 361.261 35.1434Z" fill="url(#paint7_linear_92_96)" shape-rendering="crispEdges"/>
</g>
<defs>
<filter id="filter0_ii_92_96" x="93.8364" y="94.296" width="200.605" height="272.015" filterUnits="userSpaceOnUse" color-interpolation-filters="sRGB">
<feFlood flood-opacity="0" result="BackgroundImageFix"/>
<feBlend mode="normal" in="SourceGraphic" in2="BackgroundImageFix" result="shape"/>
<feColorMatrix in="SourceAlpha" type="matrix" values="0 0 0 0 0 0 0 0 0 0 0 0 0 0 0 0 0 0 127 0" result="hardAlpha"/>
<feOffset dy="-19.1157"/>
<feGaussianBlur stdDeviation="13.5822"/>
<feComposite in2="hardAlpha" operator="arithmetic" k2="-1" k3="1"/>
<feColorMatrix type="matrix" values="0 0 0 0 0.674971 0 0 0 0 0.372803 0 0 0 0 0.202833 0 0 0 0.47 0"/>
<feBlend mode="normal" in2="shape" result="effect1_innerShadow_92_96"/>
<feColorMatrix in="SourceAlpha" type="matrix" values="0 0 0 0 0 0 0 0 0 0 0 0 0 0 0 0 0 0 127 0" result="hardAlpha"/>
<feOffset dy="-7.04262"/>
<feGaussianBlur stdDeviation="2.51522"/>
<feComposite in2="hardAlpha" operator="arithmetic" k2="-1" k3="1"/>
<feColorMatrix type="matrix" values="0 0 0 0 1 0 0 0 0 0.957028 0 0 0 0 0.804673 0 0 0 0.6 0"/>
<feBlend mode="normal" in2="effect1_innerShadow_92_96" result="effect2_innerShadow_92_96"/>
</filter>
<filter id="filter1_i_92_96" x="14" y="-13.7125" width="384.469" height="260.872" filterUnits="userSpaceOnUse" color-interpolation-filters="sRGB">
<feFlood flood-opacity="0" result="BackgroundImageFix"/>
<feBlend mode="normal" in="SourceGraphic" in2="BackgroundImageFix" result="shape"/>
<feColorMatrix in="SourceAlpha" type="matrix" values="0 0 0 0 0 0 0 0 0 0 0 0 0 0 0 0 0 0 127 0" result="hardAlpha"/>
<feOffset dy="-13.7125"/>
<feGaussianBlur stdDeviation="13.7125"/>
<feComposite in2="hardAlpha" operator="arithmetic" k2="-1" k3="1"/>
<feColorMatrix type="matrix" values="0 0 0 0 0.815686 0 0 0 0 0.784314 0 0 0 0 0.956863 0 0 0 1 0"/>
<feBlend mode="normal" in2="shape" result="effect1_innerShadow_92_96"/>
</filter>
<filter id="filter2_d_92_96" x="0.393846" y="0" width="411.682" height="274.371" filterUnits="userSpaceOnUse" color-interpolation-filters="sRGB">
<feFlood flood-opacity="0" result="BackgroundImageFix"/>
<feColorMatrix in="SourceAlpha" type="matrix" values="0 0 0 0 0 0 0 0 0 0 0 0 0 0 0 0 0 0 127 0" result="hardAlpha"/>
<feOffset dy="13.6062"/>
<feGaussianBlur stdDeviation="6.80308"/>
<feComposite in2="hardAlpha" operator="out"/>
<feColorMatrix type="matrix" values="0 0 0 0 0 0 0 0 0 0 0 0 0 0 0 0 0 0 0.25 0"/>
<feBlend mode="normal" in2="BackgroundImageFix" result="effect1_dropShadow_92_96"/>
<feBlend mode="normal" in="SourceGraphic" in2="effect1_dropShadow_92_96" result="shape"/>
</filter>
<linearGradient id="paint0_linear_92_96" x1="197.29" y1="98.0075" x2="231.113" y2="373.987" gradientUnits="userSpaceOnUse">
<stop offset="0.0001" stop-color="#FFED8C"/>
<stop offset="1" stop-color="#F4B335"/>
</linearGradient>
<radialGradient id="paint1_radial_92_96" cx="0" cy="0" r="1" gradientUnits="userSpaceOnUse" gradientTransform="translate(171.11 65.5057) rotate(-172.463) scale(76.1313 76.1313)">
<stop offset="0.308752" stop-color="#463F6D"/>
<stop offset="1" stop-color="#463F6D"/>
</radialGradient>
<radialGradient id="paint2_radial_92_96" cx="0" cy="0" r="1" gradientUnits="userSpaceOnUse" gradientTransform="translate(157.038 81.393) rotate(-141.242) scale(41.3291 37.8669)">
<stop stop-color="#463F6D"/>
<stop offset="1" stop-color="#463F6D" stop-opacity="0"/>
</radialGradient>
<linearGradient id="paint3_linear_92_96" x1="245.511" y1="233.869" x2="245.511" y2="130.709" gradientUnits="userSpaceOnUse">
<stop stop-color="#463F6D"/>
<stop offset="1" stop-color="#463F6D" stop-opacity="0"/>
</linearGradient>
<radialGradient id="paint4_radial_92_96" cx="0" cy="0" r="1" gradientUnits="userSpaceOnUse" gradientTransform="translate(105.431 141.821) rotate(144.444) scale(93.9609 98.4566)">
<stop stop-color="#463F6D"/>
<stop offset="1" stop-color="#463F6D" stop-opacity="0"/>
</radialGradient>
<radialGradient id="paint5_radial_92_96" cx="0" cy="0" r="1" gradientUnits="userSpaceOnUse" gradientTransform="translate(332.745 116.253) rotate(166.654) scale(327.591 257.989)">
<stop offset="0.815422" stop-color="#463F6D" stop-opacity="0"/>
<stop offset="1" stop-color="#463F6D"/>
</radialGradient>
<radialGradient id="paint6_radial_92_96" cx="0" cy="0" r="1" gradientUnits="userSpaceOnUse" gradientTransform="translate(64.0406 261.139) rotate(-50.5724) scale(116.643 160.97)">
<stop stop-color="#473C78"/>
<stop offset="1" stop-color="#473C78" stop-opacity="0"/>
</radialGradient>
<linearGradient id="paint7_linear_92_96" x1="298.636" y1="272.831" x2="299.615" y2="186.702" gradientUnits="userSpaceOnUse">
<stop stop-color="#463F6D"/>
<stop offset="1" stop-color="#453E66" stop-opacity="0.45"/>
</linearGradient>
</defs>
</svg>
